<mxfile host="65bd71144e" scale="3" border="10">
    <diagram id="JWgBhrDffidf4czuqmQ8" name="Page-1">
        <mxGraphModel dx="1524" dy="1398" grid="1" gridSize="10" guides="1" tooltips="1" connect="1" arrows="1" fold="1" page="1" pageScale="1" pageWidth="1600" pageHeight="900" background="#ffffff" math="0" shadow="0">
            <root>
                <mxCell id="0"/>
                <mxCell id="1" parent="0"/>
                <mxCell id="2" value="Government" style="text;html=1;strokeColor=none;fillColor=none;align=center;verticalAlign=middle;whiteSpace=wrap;rounded=0;fontSize=37;fontColor=#000000;" vertex="1" parent="1">
                    <mxGeometry x="210" y="50" width="260" height="30" as="geometry"/>
                </mxCell>
                <mxCell id="3" value="Business" style="text;html=1;strokeColor=none;fillColor=none;align=center;verticalAlign=middle;whiteSpace=wrap;rounded=0;fontSize=37;fontColor=#000000;" vertex="1" parent="1">
                    <mxGeometry x="753" y="50" width="60" height="30" as="geometry"/>
                </mxCell>
                <mxCell id="4" value="Customers" style="text;html=1;strokeColor=none;fillColor=none;align=center;verticalAlign=middle;whiteSpace=wrap;rounded=0;fontSize=37;fontColor=#000000;" vertex="1" parent="1">
                    <mxGeometry x="1203" y="50" width="60" height="30" as="geometry"/>
                </mxCell>
                <mxCell id="72" style="edgeStyle=none;html=1;exitX=1;exitY=0.75;exitDx=0;exitDy=0;entryX=0.547;entryY=0.12;entryDx=0;entryDy=0;entryPerimeter=0;strokeColor=#1A1A1A;fontSize=37;fontColor=#000000;" edge="1" parent="1" source="7" target="63">
                    <mxGeometry relative="1" as="geometry"/>
                </mxCell>
                <mxCell id="7" value="" style="shape=hexagon;perimeter=hexagonPerimeter2;whiteSpace=wrap;html=1;fixedSize=1;fontSize=37;fontColor=#000000;fillColor=#B3B3B3;size=17;" vertex="1" parent="1">
                    <mxGeometry x="254" y="117" width="67" height="60" as="geometry"/>
                </mxCell>
                <mxCell id="68" style="edgeStyle=none;html=1;exitX=0.625;exitY=1;exitDx=0;exitDy=0;entryX=0.093;entryY=-0.043;entryDx=0;entryDy=0;entryPerimeter=0;fontSize=37;fontColor=#000000;strokeColor=#1A1A1A;" edge="1" parent="1" source="9" target="63">
                    <mxGeometry relative="1" as="geometry"/>
                </mxCell>
                <mxCell id="9" value="" style="shape=hexagon;perimeter=hexagonPerimeter2;whiteSpace=wrap;html=1;fixedSize=1;fontSize=37;fontColor=#000000;fillColor=#B3B3B3;size=17;" vertex="1" parent="1">
                    <mxGeometry x="338" y="203" width="67" height="60" as="geometry"/>
                </mxCell>
                <mxCell id="74" style="edgeStyle=none;html=1;exitX=0.5;exitY=1;exitDx=0;exitDy=0;entryX=0.522;entryY=0;entryDx=0;entryDy=0;entryPerimeter=0;strokeColor=#1A1A1A;fontSize=37;fontColor=#000000;" edge="1" parent="1" source="10" target="63">
                    <mxGeometry relative="1" as="geometry"/>
                </mxCell>
                <mxCell id="10" value="" style="ellipse;whiteSpace=wrap;html=1;aspect=fixed;fontSize=37;fontColor=#ffffff;fillColor=#1ba1e2;strokeColor=#006EAF;" vertex="1" parent="1">
                    <mxGeometry x="745" y="154" width="30" height="30" as="geometry"/>
                </mxCell>
                <mxCell id="78" style="edgeStyle=none;html=1;exitX=0.5;exitY=1;exitDx=0;exitDy=0;entryX=0.471;entryY=0;entryDx=0;entryDy=0;entryPerimeter=0;strokeColor=#1A1A1A;fontSize=37;fontColor=#000000;" edge="1" parent="1" source="11" target="63">
                    <mxGeometry relative="1" as="geometry"/>
                </mxCell>
                <mxCell id="11" value="" style="ellipse;whiteSpace=wrap;html=1;aspect=fixed;fontSize=37;fontColor=#ffffff;fillColor=#0050ef;strokeColor=#001DBC;" vertex="1" parent="1">
                    <mxGeometry x="679" y="158" width="30" height="30" as="geometry"/>
                </mxCell>
                <mxCell id="12" value="" style="ellipse;whiteSpace=wrap;html=1;aspect=fixed;fontSize=37;fontColor=#ffffff;fillColor=#6a00ff;strokeColor=#3700CC;" vertex="1" parent="1">
                    <mxGeometry x="667" y="215" width="30" height="30" as="geometry"/>
                </mxCell>
                <mxCell id="70" style="edgeStyle=none;html=1;exitX=0.5;exitY=1;exitDx=0;exitDy=0;entryX=0.25;entryY=0;entryDx=0;entryDy=0;strokeColor=#1A1A1A;fontSize=37;fontColor=#000000;" edge="1" parent="1" source="13" target="63">
                    <mxGeometry relative="1" as="geometry"/>
                </mxCell>
                <mxCell id="13" value="" style="ellipse;whiteSpace=wrap;html=1;aspect=fixed;fontSize=37;fontColor=#ffffff;fillColor=#d80073;strokeColor=#A50040;" vertex="1" parent="1">
                    <mxGeometry x="721" y="195" width="30" height="30" as="geometry"/>
                </mxCell>
                <mxCell id="77" style="edgeStyle=none;html=1;exitX=1;exitY=1;exitDx=0;exitDy=0;entryX=0.603;entryY=-0.016;entryDx=0;entryDy=0;entryPerimeter=0;strokeColor=#1A1A1A;fontSize=37;fontColor=#000000;" edge="1" parent="1" source="14" target="63">
                    <mxGeometry relative="1" as="geometry"/>
                </mxCell>
                <mxCell id="14" value="" style="ellipse;whiteSpace=wrap;html=1;aspect=fixed;fontSize=37;fontColor=#ffffff;fillColor=#a20025;strokeColor=#6F0000;" vertex="1" parent="1">
                    <mxGeometry x="775" y="109" width="30" height="30" as="geometry"/>
                </mxCell>
                <mxCell id="73" style="edgeStyle=none;html=1;exitX=0.5;exitY=1;exitDx=0;exitDy=0;entryX=0.376;entryY=-0.016;entryDx=0;entryDy=0;entryPerimeter=0;strokeColor=#1A1A1A;fontSize=37;fontColor=#000000;" edge="1" parent="1" source="15" target="63">
                    <mxGeometry relative="1" as="geometry"/>
                </mxCell>
                <mxCell id="15" value="" style="ellipse;whiteSpace=wrap;html=1;aspect=fixed;fontSize=37;fontColor=#000000;fillColor=#fa6800;strokeColor=#C73500;" vertex="1" parent="1">
                    <mxGeometry x="801" y="158" width="30" height="30" as="geometry"/>
                </mxCell>
                <mxCell id="75" style="edgeStyle=none;html=1;exitX=0.5;exitY=1;exitDx=0;exitDy=0;entryX=0.675;entryY=0;entryDx=0;entryDy=0;entryPerimeter=0;strokeColor=#1A1A1A;fontSize=37;fontColor=#000000;" edge="1" parent="1" source="16" target="63">
                    <mxGeometry relative="1" as="geometry"/>
                </mxCell>
                <mxCell id="16" value="" style="ellipse;whiteSpace=wrap;html=1;aspect=fixed;fontSize=37;fontColor=#ffffff;fillColor=#e51400;strokeColor=#B20000;" vertex="1" parent="1">
                    <mxGeometry x="715" y="109" width="30" height="30" as="geometry"/>
                </mxCell>
                <mxCell id="17" value="" style="ellipse;whiteSpace=wrap;html=1;aspect=fixed;fontSize=37;fontColor=#000000;fillColor=#e3c800;strokeColor=#B09500;" vertex="1" parent="1">
                    <mxGeometry x="771" y="209" width="30" height="30" as="geometry"/>
                </mxCell>
                <mxCell id="18" value="" style="ellipse;whiteSpace=wrap;html=1;aspect=fixed;fontSize=37;fontColor=#ffffff;fillColor=#6d8764;strokeColor=#3A5431;" vertex="1" parent="1">
                    <mxGeometry x="708" y="244" width="30" height="30" as="geometry"/>
                </mxCell>
                <mxCell id="19" value="" style="ellipse;whiteSpace=wrap;html=1;aspect=fixed;fontSize=37;fontColor=#ffffff;fillColor=#a0522d;strokeColor=#6D1F00;" vertex="1" parent="1">
                    <mxGeometry x="756" y="260" width="30" height="30" as="geometry"/>
                </mxCell>
                <mxCell id="20" value="" style="ellipse;whiteSpace=wrap;html=1;aspect=fixed;fontSize=37;fillColor=#ffcc99;strokeColor=#36393d;" vertex="1" parent="1">
                    <mxGeometry x="812" y="259" width="30" height="30" as="geometry"/>
                </mxCell>
                <mxCell id="76" style="edgeStyle=none;html=1;exitX=1;exitY=1;exitDx=0;exitDy=0;entryX=0.75;entryY=0;entryDx=0;entryDy=0;strokeColor=#1A1A1A;fontSize=37;fontColor=#000000;" edge="1" parent="1" source="21" target="63">
                    <mxGeometry relative="1" as="geometry"/>
                </mxCell>
                <mxCell id="21" value="" style="ellipse;whiteSpace=wrap;html=1;aspect=fixed;fontSize=37;fillColor=#ffff88;strokeColor=#36393d;" vertex="1" parent="1">
                    <mxGeometry x="843" y="126" width="30" height="30" as="geometry"/>
                </mxCell>
                <mxCell id="79" style="edgeStyle=none;html=1;exitX=1;exitY=1;exitDx=0;exitDy=0;entryX=0.866;entryY=0;entryDx=0;entryDy=0;entryPerimeter=0;strokeColor=#1A1A1A;fontSize=37;fontColor=#000000;" edge="1" parent="1" source="22" target="63">
                    <mxGeometry relative="1" as="geometry"/>
                </mxCell>
                <mxCell id="22" value="" style="ellipse;whiteSpace=wrap;html=1;aspect=fixed;fontSize=37;fillColor=#cdeb8b;strokeColor=#36393d;" vertex="1" parent="1">
                    <mxGeometry x="834" y="203" width="30" height="30" as="geometry"/>
                </mxCell>
                <mxCell id="58" value="" style="group" vertex="1" connectable="0" parent="1">
                    <mxGeometry x="1121" y="111" width="238" height="194" as="geometry"/>
                </mxCell>
                <mxCell id="42" value="" style="group" vertex="1" connectable="0" parent="58">
                    <mxGeometry width="238" height="70" as="geometry"/>
                </mxCell>
                <mxCell id="27" value="" style="html=1;verticalLabelPosition=bottom;align=center;labelBackgroundColor=#ffffff;verticalAlign=top;strokeWidth=2;strokeColor=#2D7600;shadow=0;dashed=0;shape=mxgraph.ios7.icons.user;fontSize=37;fontColor=#ffffff;fillColor=#60a917;" vertex="1" parent="42">
                    <mxGeometry width="44" height="41" as="geometry"/>
                </mxCell>
                <mxCell id="41" value="" style="edgeStyle=none;html=1;fontSize=37;fontColor=#000000;" edge="1" parent="42" source="30">
                    <mxGeometry relative="1" as="geometry">
                        <mxPoint x="127.94776119402968" y="70" as="targetPoint"/>
                    </mxGeometry>
                </mxCell>
                <mxCell id="30" value="" style="html=1;verticalLabelPosition=bottom;align=center;labelBackgroundColor=#ffffff;verticalAlign=top;strokeWidth=2;strokeColor=#2D7600;shadow=0;dashed=0;shape=mxgraph.ios7.icons.user;fontSize=37;fontColor=#ffffff;fillColor=#60a917;" vertex="1" parent="42">
                    <mxGeometry x="65" width="44" height="41" as="geometry"/>
                </mxCell>
                <mxCell id="43" value="" style="edgeStyle=none;html=1;fontSize=37;fontColor=#000000;" edge="1" parent="42" source="39" target="30">
                    <mxGeometry relative="1" as="geometry"/>
                </mxCell>
                <mxCell id="39" value="" style="html=1;verticalLabelPosition=bottom;align=center;labelBackgroundColor=#ffffff;verticalAlign=top;strokeWidth=2;strokeColor=#2D7600;shadow=0;dashed=0;shape=mxgraph.ios7.icons.user;fontSize=37;fontColor=#ffffff;fillColor=#60a917;" vertex="1" parent="42">
                    <mxGeometry x="129" width="44" height="41" as="geometry"/>
                </mxCell>
                <mxCell id="40" value="" style="html=1;verticalLabelPosition=bottom;align=center;labelBackgroundColor=#ffffff;verticalAlign=top;strokeWidth=2;strokeColor=#2D7600;shadow=0;dashed=0;shape=mxgraph.ios7.icons.user;fontSize=37;fontColor=#ffffff;fillColor=#60a917;" vertex="1" parent="42">
                    <mxGeometry x="194" width="44" height="41" as="geometry"/>
                </mxCell>
                <mxCell id="44" value="" style="group" vertex="1" connectable="0" parent="58">
                    <mxGeometry y="124" width="238" height="70" as="geometry"/>
                </mxCell>
                <mxCell id="45" value="" style="html=1;verticalLabelPosition=bottom;align=center;labelBackgroundColor=#ffffff;verticalAlign=top;strokeWidth=2;strokeColor=#2D7600;shadow=0;dashed=0;shape=mxgraph.ios7.icons.user;fontSize=37;fontColor=#ffffff;fillColor=#60a917;" vertex="1" parent="44">
                    <mxGeometry width="44" height="41" as="geometry"/>
                </mxCell>
                <mxCell id="46" value="" style="edgeStyle=none;html=1;fontSize=37;fontColor=#000000;" edge="1" parent="44" source="47">
                    <mxGeometry relative="1" as="geometry">
                        <mxPoint x="127.94776119402968" y="70" as="targetPoint"/>
                    </mxGeometry>
                </mxCell>
                <mxCell id="47" value="" style="html=1;verticalLabelPosition=bottom;align=center;labelBackgroundColor=#ffffff;verticalAlign=top;strokeWidth=2;strokeColor=#2D7600;shadow=0;dashed=0;shape=mxgraph.ios7.icons.user;fontSize=37;fontColor=#ffffff;fillColor=#60a917;" vertex="1" parent="44">
                    <mxGeometry x="65" width="44" height="41" as="geometry"/>
                </mxCell>
                <mxCell id="48" value="" style="edgeStyle=none;html=1;fontSize=37;fontColor=#000000;" edge="1" parent="44" source="49" target="47">
                    <mxGeometry relative="1" as="geometry"/>
                </mxCell>
                <mxCell id="49" value="" style="html=1;verticalLabelPosition=bottom;align=center;labelBackgroundColor=#ffffff;verticalAlign=top;strokeWidth=2;strokeColor=#2D7600;shadow=0;dashed=0;shape=mxgraph.ios7.icons.user;fontSize=37;fontColor=#ffffff;fillColor=#60a917;" vertex="1" parent="44">
                    <mxGeometry x="129" width="44" height="41" as="geometry"/>
                </mxCell>
                <mxCell id="50" value="" style="html=1;verticalLabelPosition=bottom;align=center;labelBackgroundColor=#ffffff;verticalAlign=top;strokeWidth=2;strokeColor=#2D7600;shadow=0;dashed=0;shape=mxgraph.ios7.icons.user;fontSize=37;fontColor=#ffffff;fillColor=#60a917;" vertex="1" parent="44">
                    <mxGeometry x="194" width="44" height="41" as="geometry"/>
                </mxCell>
                <mxCell id="51" value="" style="group" vertex="1" connectable="0" parent="58">
                    <mxGeometry y="64" width="238" height="70" as="geometry"/>
                </mxCell>
                <mxCell id="52" value="" style="html=1;verticalLabelPosition=bottom;align=center;labelBackgroundColor=#ffffff;verticalAlign=top;strokeWidth=2;strokeColor=#2D7600;shadow=0;dashed=0;shape=mxgraph.ios7.icons.user;fontSize=37;fontColor=#ffffff;fillColor=#60a917;" vertex="1" parent="51">
                    <mxGeometry width="44" height="41" as="geometry"/>
                </mxCell>
                <mxCell id="53" value="" style="edgeStyle=none;html=1;fontSize=37;fontColor=#000000;" edge="1" parent="51" source="54">
                    <mxGeometry relative="1" as="geometry">
                        <mxPoint x="127.94776119402968" y="70" as="targetPoint"/>
                    </mxGeometry>
                </mxCell>
                <mxCell id="54" value="" style="html=1;verticalLabelPosition=bottom;align=center;labelBackgroundColor=#ffffff;verticalAlign=top;strokeWidth=2;strokeColor=#2D7600;shadow=0;dashed=0;shape=mxgraph.ios7.icons.user;fontSize=37;fontColor=#ffffff;fillColor=#60a917;" vertex="1" parent="51">
                    <mxGeometry x="65" width="44" height="41" as="geometry"/>
                </mxCell>
                <mxCell id="55" value="" style="edgeStyle=none;html=1;fontSize=37;fontColor=#000000;" edge="1" parent="51" source="56" target="54">
                    <mxGeometry relative="1" as="geometry"/>
                </mxCell>
                <mxCell id="56" value="" style="html=1;verticalLabelPosition=bottom;align=center;labelBackgroundColor=#ffffff;verticalAlign=top;strokeWidth=2;strokeColor=#2D7600;shadow=0;dashed=0;shape=mxgraph.ios7.icons.user;fontSize=37;fontColor=#ffffff;fillColor=#60a917;" vertex="1" parent="51">
                    <mxGeometry x="129" width="44" height="41" as="geometry"/>
                </mxCell>
                <mxCell id="57" value="" style="html=1;verticalLabelPosition=bottom;align=center;labelBackgroundColor=#ffffff;verticalAlign=top;strokeWidth=2;strokeColor=#2D7600;shadow=0;dashed=0;shape=mxgraph.ios7.icons.user;fontSize=37;fontColor=#ffffff;fillColor=#60a917;" vertex="1" parent="51">
                    <mxGeometry x="194" width="44" height="41" as="geometry"/>
                </mxCell>
                <mxCell id="59" value="" style="rhombus;whiteSpace=wrap;html=1;fontSize=37;fontColor=#000000;fillColor=#CCCCCC;" vertex="1" parent="1">
                    <mxGeometry x="247.5" y="194" width="80" height="80" as="geometry"/>
                </mxCell>
                <mxCell id="69" style="edgeStyle=none;html=1;exitX=1;exitY=0.75;exitDx=0;exitDy=0;strokeColor=#1A1A1A;fontSize=37;fontColor=#000000;entryX=0.172;entryY=-0.016;entryDx=0;entryDy=0;entryPerimeter=0;" edge="1" parent="1" source="60" target="63">
                    <mxGeometry relative="1" as="geometry">
                        <mxPoint x="540" y="420" as="targetPoint"/>
                    </mxGeometry>
                </mxCell>
                <mxCell id="60" value="" style="shape=parallelogram;perimeter=parallelogramPerimeter;whiteSpace=wrap;html=1;fixedSize=1;fontSize=37;fontColor=#000000;fillColor=#CCCCCC;" vertex="1" parent="1">
                    <mxGeometry x="337" y="120" width="82" height="50" as="geometry"/>
                </mxCell>
                <mxCell id="63" value="" style="shape=image;imageAspect=0;aspect=fixed;verticalLabelPosition=bottom;verticalAlign=top;fontSize=37;fontColor=#000000;fillColor=#CCCCCC;image=data:image/png,iVBORw0KGgoAAAANSUhEUgAAA4wAAABgCAYAAABWpPzGAAAMaWlDQ1BJQ0MgUHJvZmlsZQAASImVVwdUU8kanluSkJDQAhGQEnoTRHqREkKLICBVsBGSQEKJISGo2JFFBdcuoljRVRFFV1dA1oLYG4K9LxZUlHWxoCgqb0ICuuwr5/3nzJ0v3/zztzuTOwOAZg9XIslGtQDIEedJY8OCmOOTU5ik54AEcEADBEDg8mQSVkxMJIAy0P9dPtwEiKK/5qiw9c/x/yo6fIGMBwAyEeI0voyXA3EjAPgGnkSaBwBRwVtMy5Mo8DyIdaUwQIhXK3CGEu9S4DQlPtKvEx/LhrgFADUqlyvNAEDjPuSZ+bwMaEfjC8TOYr5IDIDmCIj9eUIuH2JF7CNycqYqcDnEtlBfAjGMB3il/WAz42/20wbtc7kZg1iZV7+oBYtkkmzujP+zNP9bcrLlAz6sYaMKpeGxivxhDW9nTY1QYCrEneK0qGhFrSHuEfGVdQcApQjl4QlKfdSIJ2PD+gEGxM58bnAExEYQh4qzoyJVfFq6KJQDMVwt6HRRHiceYn2IFwlkIXEqnS3SqbEqX2htupTNUvHnuNJ+vwpfD+VZCSyV/bdCAUdlH9MoEMYnQUyB2DJflBgFsQbETrKsuAiVzugCITtqQEcqj1XEbwlxrEAcFqS0j+WnS0NjVfolObKBfLEtQhEnSoUP5Anjw5X1wU7xuP3xw1ywFoGYlTBgRyAbHzmQC18QHKLMHXshECfEqez0SPKCYpVzcYokO0alj5sLssMUvDnEbrL8ONVcPDEPLk6lfTxdkhcTr4wTL8jkjolRxoMvB5GADYIBE8hhSwNTQSYQNXfWdcJfypFQwAVSkAEEwFHFDMxI6h8Rw2ccKAB/QiQAssF5Qf2jApAP+a+DrPLpCNL7R/P7Z2SBZxDngAiQDX/L+2eJB70lgqeQEf3DOxc2How3GzbF+L/nB9jvDAsykSpGPuCRqTmgSQwhBhPDiaFEO9wQ98d98Uj4DITNBffCvQfy+K5PeEZoJTwm3CC0Ee5MERVKh0Q5FrRB+6GqWqT9WAvcGtp0x4NwP2gdWsYZuCFwxN2gHxYeAD27Q5atiltRFeYQ23/L4Ie3odIjO5NR8jByINl26EwNew33QSuKWv9YH2WsaYP1Zg+ODPXP/qH6fNhHDNXEFmEHsbPYCew8dgSrA0zsOFaPXcKOKvDg6nrav7oGvMX2x5MF7Yj+4Y+r8qmopMy52rnD+YtyLE8wPU+x8dhTJTOkogxhHpMFvw4CJkfMcxrBdHF2cQVA8a1R/n29Y/R/QxDGhe9cbiMA3iWQzPjOcS0AOPwMAPqH75zFW7htlgNwtIUnl+YrOVzxIMB/CU240wyACbAAtjAfF+ABfEEgCAFjQDSIB8lgMqyyEK5zKZgGZoH5oBiUguVgDVgPNoNtYBfYCw6AOnAEnABnwEXQAm6Ae3D1tINXoAt8AL0IgpAQGkJHDBBTxApxQFwQL8QfCUEikVgkGUlFMhAxIkdmIQuQUmQlsh7ZilQhvyKHkRPIeaQVuYM8QjqQt8hnFEOpqC5qjFqjI1EvlIVGoPHoJDQDzUUL0CJ0KVqOVqJ70Fr0BHoRvYG2oa/Qbgxg6hgDM8McMS+MjUVjKVg6JsXmYCVYGVaJ1WAN8D1fw9qwTuwTTsTpOBN3hCs4HE/AeXguPgdfgq/Hd+G1+Cn8Gv4I78K/EWgEI4IDwYfAIYwnZBCmEYoJZYQdhEOE03AvtRM+EIlEBtGG6An3YjIxkziTuIS4kbiP2EhsJT4hdpNIJAOSA8mPFE3ikvJIxaR1pD2k46SrpHZSj5q6mqmai1qoWoqaWK1QrUxtt9oxtatqz9V6yVpkK7IPOZrMJ88gLyNvJzeQr5Dbyb0UbYoNxY8ST8mkzKeUU2oopyn3Ke/U1dXN1b3Vx6mL1Oepl6vvVz+n/kj9E1WHak9lUydS5dSl1J3URuod6jsajWZNC6Sl0PJoS2lVtJO0h7QeDbqGkwZHg68xV6NCo1bjqsZrTbKmlSZLc7JmgWaZ5kHNK5qdWmQtay22FldrjlaF1mGtW1rd2nTtUdrR2jnaS7R3a5/XfqFD0rHWCdHh6xTpbNM5qfOEjtEt6Gw6j76Avp1+mt6uS9S10eXoZuqW6u7Vbdbt0tPRc9NL1JuuV6F3VK+NgTGsGRxGNmMZ4wDjJuPzMONhrGGCYYuH1Qy7Ouyj/nD9QH2Bfon+Pv0b+p8NmAYhBlkGKwzqDB4Y4ob2huMMpxluMjxt2Dlcd7jvcN7wkuEHht81Qo3sjWKNZhptM7pk1G1sYhxmLDFeZ3zSuNOEYRJokmmy2uSYSYcp3dTfVGS62vS46UumHpPFzGaWM08xu8yMzMLN5GZbzZrNes1tzBPMC833mT+woFh4WaRbrLZosuiyNLUcaznLstryrhXZystKaLXW6qzVR2sb6yTrhdZ11i9s9G04NgU21Tb3bWm2Aba5tpW21+2Idl52WXYb7VrsUXt3e6F9hf0VB9TBw0HksNGhdQRhhPcI8YjKEbccqY4sx3zHasdHTgynSKdCpzqn1yMtR6aMXDHy7Mhvzu7O2c7bne+N0hk1ZlThqIZRb13sXXguFS7XXWmuoa5zXetd37g5uAncNrnddqe7j3Vf6N7k/tXD00PqUePR4Wnpmeq5wfOWl65XjNcSr3PeBO8g77neR7w/+Xj45Pkc8PnL19E3y3e374vRNqMFo7ePfuJn7sf12+rX5s/0T/Xf4t8WYBbADagMeBxoEcgP3BH4nGXHymTtYb0Ocg6SBh0K+sj2Yc9mNwZjwWHBJcHNITohCSHrQx6GmodmhFaHdoW5h80MawwnhEeErwi/xTHm8DhVnK4xnmNmjzkVQY2Ii1gf8TjSPlIa2TAWHTtm7Kqx96OsosRRddEgmhO9KvpBjE1Mbszv44jjYsZVjHsWOyp2VuzZOHrclLjdcR/ig+KXxd9LsE2QJzQlaiZOTKxK/JgUnLQyqW38yPGzx19MNkwWJdenkFISU3akdE8ImbBmQvtE94nFE29Ospk0fdL5yYaTsycfnaI5hTvlYCohNSl1d+oXbjS3ktudxknbkNbFY/PW8l7xA/mr+R0CP8FKwfN0v/SV6S8y/DJWZXQIA4Rlwk4RW7Re9CYzPHNz5ses6KydWX3ZSdn7ctRyUnMOi3XEWeJTU02mTp/aKnGQFEvacn1y1+R2SSOkO2SIbJKsPk8XHuovyW3lP8kf5fvnV+T3TEucdnC69nTx9Esz7GcsnvG8ILTgl5n4TN7Mpllms+bPejSbNXvrHGRO2pymuRZzi+a2zwubt2s+ZX7W/MuFzoUrC98vSFrQUGRcNK/oyU9hP1UXaxRLi28t9F24eRG+SLSoebHr4nWLv5XwSy6UOpeWlX5Zwlty4edRP5f/3Lc0fWnzMo9lm5YTl4uX31wRsGLXSu2VBSufrBq7qnY1c3XJ6vdrpqw5X+ZWtnktZa18bVt5ZHn9Ost1y9d9WS9cf6MiqGLfBqMNizd83MjfeHVT4KaazcabSzd/3iLacntr2NbaSuvKsm3Ebfnbnm1P3H72F69fqnYY7ijd8XWneGfbrthdp6o8q6p2G+1eVo1Wy6s79kzc07I3eG99jWPN1n2MfaX7wX75/pe/pv5680DEgaaDXgdrfrP6bcMh+qGSWqR2Rm1XnbCurT65vvXwmMNNDb4Nh353+n3nEbMjFUf1ji47RjlWdKzveMHx7kZJY+eJjBNPmqY03Ts5/uT1U+NONZ+OOH3uTOiZk2dZZ4+f8zt35LzP+cMXvC7UXfS4WHvJ/dKhy+6XDzV7NNde8bxS3+Ld0tA6uvXY1YCrJ64FXztznXP94o2oG603E27evjXxVttt/u0Xd7LvvLmbf7f33rz7hPslD7QelD00elj5h90f+9o82o4+Cn506XHc43tPeE9ePZU9/dJe9Iz2rOy56fOqFy4vjnSEdrS8nPCy/ZXkVW9n8Z/af254bfv6t78C/7rUNb6r/Y30Td/bJe8M3u187/a+qTum++GHnA+9H0t6DHp2ffL6dPZz0ufnvdO+kL6Uf7X72vAt4tv9vpy+PglXyu0/CmCwoenpALzdCQAtGZ4d4L2NMkF5F+wXRHl/7UfgP2HlfbFfPADYGQhAwjwAIuEZZRNsVhBTYa84wscHAtTVdbCpRJbu6qK0RYU3IUJPX987YwBIDQB8lfb19W7s6/u6HQZ7B4DGXOUdVCFEeGfYYq5Aly0Ky8EQUd5Pf8hxaA8UEbiBof2/AP5djndJ5PT4AAAAimVYSWZNTQAqAAAACAAEARoABQAAAAEAAAA+ARsABQAAAAEAAABGASgAAwAAAAEAAgAAh2kABAAAAAEAAABOAAAAAAAAAJAAAAABAAAAkAAAAAEAA5KGAAcAAAASAAAAeKACAAQAAAABAAADjKADAAQAAAABAAAAYAAAAABBU0NJSQAAAFNjcmVlbnNob3TuP2zYAAAACXBIWXMAABYlAAAWJQFJUiTwAAAB1WlUWHRYTUw6Y29tLmFkb2JlLnhtcAAAAAAAPHg6eG1wbWV0YSB4bWxuczp4PSJhZG9iZTpuczptZXRhLyIgeDp4bXB0az0iWE1QIENvcmUgNi4wLjAiPgogICA8cmRmOlJERiB4bWxuczpyZGY9Imh0dHA6Ly93d3cudzMub3JnLzE5OTkvMDIvMjItcmRmLXN5bnRheC1ucyMiPgogICAgICA8cmRmOkRlc2NyaXB0aW9uIHJkZjphYm91dD0iIgogICAgICAgICAgICB4bWxuczpleGlmPSJodHRwOi8vbnMuYWRvYmUuY29tL2V4aWYvMS4wLyI+CiAgICAgICAgIDxleGlmOlBpeGVsWURpbWVuc2lvbj45NjwvZXhpZjpQaXhlbFlEaW1lbnNpb24+CiAgICAgICAgIDxleGlmOlBpeGVsWERpbWVuc2lvbj45MDg8L2V4aWY6UGl4ZWxYRGltZW5zaW9uPgogICAgICAgICA8ZXhpZjpVc2VyQ29tbWVudD5TY3JlZW5zaG90PC9leGlmOlVzZXJDb21tZW50PgogICAgICA8L3JkZjpEZXNjcmlwdGlvbj4KICAgPC9yZGY6UkRGPgo8L3g6eG1wbWV0YT4KBFZgQwAAABxpRE9UAAAAAgAAAAAAAAAwAAAAKAAAADAAAAAwAABwAKLQHTAAAEAASURBVHgB7L3Xk3VJdt136nP9tZlpO6YB0LwrGAopQgoihIEnjEBS/ygVAiQRggcHhEQ+KCQ9S6EQEAQx097bzxTXb629M/OcujXdM63Hk1XnZObea5vcaW7mPbduXb3z1jvXj5483q6vtu3O3avt6fXT7Xp7ur373rvbu2+/vb35ox9tP/7R32/vv/vu9tG7723vvvnm9s6P39weffb59vjLR9vD+w+2h888s7328qvbq6+9tr38yqvbK6++un37xRe3b7/04vbw2We3Z3Rd3bm7PZX+7f6d7ere3e3x1bXsXG+d7ty5s90V5u5dXeJT5xpJ0BUfuvR9zdTIq00/V6rR4F2avkB2bU8y9fMvvti+1PWzpOn/DcVWNzzCvwvJVPHIr6+lTZca4/qV46cYdvyuFGfRjC08rXJc0W9lF4x8Bck2vwJzm+onT55un3/++fbo0eOv0FDxX8bHELgcukIuzKXYsnfk2F1iQvuJHz8O4ZXG/hx/lIkTONREFfeMnRK32uMwQqcFliBYUre7krgjgTsqa/gr+VZ3q/PN1EW+OY8fP96++PLL7cmTJ+6/SDe3tc36WrI6NTZqD5JLNe1JXFZ5l8sn4Os48Jgifoy9u/ccyzuay8SJBP7OU409Fe7quvO0iMeWCw/2tjR4pXc3iAftgg45AvvLL77cvvji8wsA99pFs22T/DZUY6ygG31Dm1AMNi5aqV9DdbujudoxvKMYuqzxN/U1PuMvnagWVZvReDMd+vBa/aEReLXdk+1lXb0pKErJeo0GQP1asdPa92iufbG7RgVKU5GbiR7w2N80r4bDje08+Bu17tuKbcZeKRGPeN1lznr8KX4qe45bXXy/llHTtAjY4xJfy7GOsRjEZ37WhFhzTRehVK2wfVkCj58+2b7U3H30VK+1K9fj4ZKO1a7K2BG24KVhYlKa9dWEhe880euBXtuvnkiV8lJETBK/eu2t8edYaTGwr8Z2NG6zsdLXMtbRomt2fNH2Xs5ay3eu+Ok1g9fdp09ZPDpNflOSi27Hw/eaxtjx+NnHMO1bpdVO41p32t04cofDBMZe5uvde/e2e7u5W3LCPd1Yrxl/RKIEbXLakCYppn7hksjep+lvurF1ztwlmBXzLz7/YmPvcntafbmJcmu0TpFiszEtF0Z70NzktJ02IDvHHrxe6zx3vf+rfZ/AaPaYV87rNrH+mRJ2d3E/aCmnsXcpXeu16/PPP/P6twzhw8pwSTI01Pd1UUjM22yjAd6dHpNL8ImQ46L17p5ed3n9vaP17ar6Cdm0GwPQoXy9tEK/bptX3LAiRY8eP9o+Vfy+VE5jJq58yqYjPUSgSN3OrkswPk3PKJlKoXQUBQ1JMgbrqYbuU9Y9fhIOxaPWPo2re5q/PcbWucb4uyrd7UGrnrk49nP61jxTzAQwGmO2a93OFiBvmOwiz37v8aMn21PlTzUWn+i15Kn20tC5vK/R/P7444+3Dz/8cHvvPZ3TdF6j/NFHH/ks947Oc5yrnnvuOZ/NXtL57IUXXtiee/657bvfeW373ve/t72m89urr768vfwy10seS0+vtXbJR34Yg1dvvPHW9ZePvtyudJi7e+/O9kSb0kePv9z+9m/+v+3//X/+7+3v/uZvt//4t3+zvaOD4ntvvrV9+v4H22cffrQ9oyBzWHxNB8Tvvvra9nPff317/fXXdUh8afv2t1/c7j14sN19cN9d9FQGH9EwHUyvGNRy3F23BIvDDYPdm07pdn0Z4Tic3+RE8vYOXKO/L7vR7oZD5zooe+zN2rVe9B/pwKOB/1OnMQpKsuurIrXo4NbkhtH8uXnQgOZHsfPGU/Fl88Sgz8IRO9kg5MDIxHAIpvIq3Wq8+Jlsc0TfUGBfLuvWhNUgZ9P5SGPsZ0ru+ktxu6Dt0J+0jNh5UaBgvkeVfXb8vPHMBsCHbeHyghUcVniBI1VUl7KLu9vwVOZYM9xPQmRxGdzLMkUdKOlgcWDssWka6+MRt9O2r3j75zk3tO4Bi64gjjgakrZn/IWfuZsXer9oMf4UJ0GdQF31gVFlDo5etc2dt521sjO5KR0xxJRkehsMdHdnPhA7Nu2XbK/gVVfbyzjATlNWiSozrki3+dGbpdEHAuqXecv46zgmjxJb0w27zGdwI2FvqQ56FYanLtAfWld1WNRKcYSOeux1K1WzftXl85eK32Ne9NcoiD/tIDdqlu0aL7pYRl2/AE/JKTVLBtqvocPCNScVSyfR5qYzY3DET4L2iLmuSeeNgJpuG61USmYdA6Tk5W1I496YiXN3ru0Wa1FvySfylzdmn+gF+MiDYB+GjeieONkEQzsGcfWjBS/R4ElIh8UrvVtzfcWGPRsnK9MYGvHT626XOwa2x00492CP8TY58rKNn0eaKBbLwhd/uE/gkNiTZnuy9umw7QNjHWQtNTFDyYFunfivq/V33oTr3hTGUWlAL21Ojkpj5DR+86pLytzVa65ilw27RvnYsC9jFXgWPst1fNtO3sRpW8xPle1T08hJnaeG/xk7o0ViUO6xEjpzN2tfyd3Ipt5IzDrQtNOTZ0oaOGPaHRr5CcMXwsradc1md+l478fEzIFxzt+23usuh3Hi+7OmcnWKL062rcncRzkHxs+9MQez4tfyKu8uKEK/Vne+w1VlTI0LTGwwL22rxl/bhc6epsce/ZTJhiLGQBrKw6Dda8cFO01q3bRhlitgS9xu4EU4toM2P9a697neqGX9W1N0DwsZtrYoI9jZ2eq5ODW0fOeDs8qJiQ+8R8prQMZe6WfccWnurm/2ZM4LD0xX62/6sKOCedWxwcGdJWkwnDeLbiT68kBs2LDbg0bAJ491cNTeuQ+KrGesO/jPGHjM/lD7m48//mQcFjlE/oe/+7vtb3SG4w0jiXis3NMZ7OHDZ7Znn3t2+/73v7v9wi/83PYP/sEvbL/wD35++8f/6B9u/+gf/8PtwQO9uSwPOTSy7iJ79c5772s+6MVXAWUv8tGHH2wfvP/e9n/9n//H9r//+3+3vfn3erqog+JnH324fSlH7srpu9r432MDKLHnHj7cnn/47Pat557fnteJ9e79+zp43vPB0Ao1ya+0gXwq3QSBRODz4tcBY0HRYkHnCet37VT2C7zwoCzbCqKE+63pUucClhu2f6OnbtU0GfjBKZ8nZT9bUgAI+m3GcS7e3VRvXnFV7vi1KmLF1S/4XXeEZTb42iyscSxLErXtm4a/mlKuBRhFO6Hm0/0+7FywvxP4iZUaRD8RI+ZFmKLBhqM2TL2Yosrjb9200w79ombEutvW+WLkkjnTuvEYUepq8DelBqWAoy5ZFjvit77gWmndjG0DK6PKV447qFXrTWBzOx9OA5V+a5CuET/FY4w9v1nBHJ6jHBwHRlzjJR8/emFEJanXRZdN2d++ij98HH2zl6f2VJsVFls5fpMpyqBeiH23eRf7wnmtcVk38io3aRgjZone9MEi3KSlxt+cu5EcUsi377QTA91eyh0El1UdDaKMl9p0/IQDY3xDD6ItrBx9sut3NjX+zCsbjdrJLJ0L31Dbp6yfVajsmCTgtFsaI0wlCcyIQxT5zQnFwU8W2VgRS8shkk0Cek077HmN6JjiaTsCYyqhAte5ITGNVtGkveqlILhJ1Ouf4tfrDmqUVpG13U133gOfNvGjvPkUUh6NldZZjrzuBJxrPTCOGEqnxp037mw+aHMfeCSCX92MsRk13U3Y2WuK2O1Y8Sv2qLbGQhoYGxapussDkvawaX/itTugxD2gRcyE1GccHCTapXZ2SpuqbgHKzSfXQCHepk0eh8aMv2A9p9i7aNyxb/GbOmv8pJsnGw6IRNi0Orlfo6NtzUNjbGdRXPyQ3vgTFdyzHpRO6m6s6m2mCrTXfk/RCyUcHKLFj485MIYfRvuO3kXVDXl46X+6gDcrvIZKCH96rTvuW1pjYh0DaWtzfop8uroXKr9vYw+6cN63MP4qdTd2fc2HXBFtxvNqxtaYsr/KUj7Kr1jHwJ0ZKc9b6ebA4DfKbEcS1Sl5vSq/IdMXR4OH+mqvsbE7gSsGauMmYpawyRmDV44GTnyVEqQKkCrUTUNP5mGQU3JYKNxubpgmy4J7qmkaZRayB0aSmyQUL8a248c8Jn6iB8IYBcsMZR5WMu3gTeGMWPjYcZegEZHCDbgLR2LhRHbLy0ceuHAoJGc84qsPi7yZorWHPoLOQ5nPPvts+1yfAuWQ6CePH33seadhEuUawDxYuqeHhN/6Fk8dv7X93M99X4fGn9/+yT/5z7b/4r/8z/Xg74XtmWfuy2Xs6WGf/L9678OPr72+MQPUqe+89eb2xo9/tP31X/1w+8s/+ePtQ30s9UudUu/oHSoOi8/p0ffz9+5vd758vD3Vx0TYAOpDaNs9FjN5w4viYznNQH2CAT5eev/edi3ntJxq4ygBNo/KaWA6ZC4cPeh7IanmFTaDHd5XJmEuoTzRY/QrVVwEEKaLjK8iRspB78FzEPmqdoXPIO/Y7eOHOhbeGTsiAKYv9QsDzgvf2oqK1aWAHaKY0Afo+7wdWpP5YWeL47brlnas9gFcNH5D522EryPtFysdGniXs2PS+uyTfOOgg8+pE2dHMHjANOInJC9OF/i0ls1C8gsA8yd9Fx2ZTD3yoHb8KebS4C2upggnc2ivYQKHLMhJtr00PVs+x09UTyXhMuZYAxK79LF0MPaQ9oFRbzJJL3NwUW2fIexsh2rgbfSG7PJb+yd+4M9XJSPKwRXNmuY310pBtzFjpQQ8dgQgBzf8KU1ZgBK3oafwYBtfuV/wKs5+0dXcxV58BL/KlsI1unZCMCka18ovkdFO+9d63HOqtO+UBrJ8OGBtb2LCjROtulxqQeeR0F3MUYYjob021WtMdVc6VBx6vGli/FlQN7DxmRc9M+C1I8DMp6BkQ/Fu2kzdjrXeRcY410OMtwKuNKrIOheCcuBlM1lkB2mMEWYsfe7LfVf93y4rJ/XMrkqao7tMybbar8nHE0bGsWPoAMJt/QLYjnD45wusNYoFX2XoJlGZqWADPzkRS7+AQueU7TmJp6uOLiPtsm43aNYWS+FxX3WXw9AomiV9rag7xioakFwjqgRUL1wOjKoiD414CdcHxc5x1BABe7xiOy1EP4kcIjm2yp4/Ml60Kg+9USJsUpphSyYklqFCiG32BXl6bM5ofHysoAiNL90HlK3SN+z7tbFJ9rkghfP4O+p2XRy/LqCezSeb9kW5dK77Fq9vxbf/KvNG31GmXfmqfG9JrTwSSgER3yXhmkbbfZhYZJu3k6nKaiNDp9BkP4MOq1UcHAPkKz6o67XBh3qb0Q2sYYk161/3rHUhVzq6vuZW04TFXvu+41tXgy/kGtb0rwLIdAF9A8QsisMVHvsmqmOFXMm4voh3vXPrVqXqtDnTizWkooDubrv0avZ6/vZhEe0D0n54nsOAW76mBGHYCz+ktDOOZAUrp4DPYsCu61bzqvXQ/sw9xU97KD6SyptnjIP0ew67frPUba+PsOqsxqdFHysX3MlrgJ40X+uJ4RM97dWsEl0PAEW7d/9q++73Xtt+/udf337xF/+r7Zd/5Zf0EdWXt+eff1Y45uwj2ZPNtz/46Lo/W39Hk/ndt9/c3tSB8Yd/8Wfbn/7P/3p79MnH2zNy7qEC9uzVXZW37Rlee/TRTH22UAfFq+2+FpMHLEh6ssiwfCK8IBsuXWuQ8PlhHx6fXG86am73tAjydLIHPx3JgOmBPzadFQD4YLnoVAJYrERiuaPHaWRVENGl0jOpi/AtxaETHR70P430qpROZgCstLUexpEfNO0Gy4tTBpzj59jgGL9ggnOtcEJXrDPIMjFqFA1XBEZNskFtPU3oPup68il0lAc/0+zHSVOpICtyx99VhLoADOkCY8gm9iz8oObHsgrguCV+DkKp8rgDr5+RhF1qg9wF80q+PWId4CkDT9rJj2lQWkBe9toBduoUYGD2WoYOyAdMqolBadsLH/BDl+iznPhQT1xqXNleeOlvyi2nNltABx1pwswavR4fwwa6rY9b61jKBz+P7bQFYY6wRYOYq7UdJ5UaswMlZZS7za09sB4zokLQRZ4yyPIEFsuWeH7KoHVoJMsVtsroMaJtu4YSSS2YtrnS0AtsubnJ+ELTh09gOlmASo/08s/0lMfaJ1qjIqF7yy94eMd0g20CNzvmVroMZQdm7IqgX89d1vFWXnT4xJhYlEar4tXIaIjIT8nWkLwmHHpbd7oJQSXskMRknE1MNHo9Ns+3QKvoN4uwrY8ltlz0AEPv1AHfmJKFv6sPenDmNWaRVdE1+HmzivWnNpD1OhhZcPKh24cu8yXXORCn2e44Vb6KZztgHLSJS9TaknJ0GsctcCiWLx4qjAlE5WjBx6bbjNtd+tBV+C60XCPM163pY5F132ODy4PIeUbSrKM3h0ZiBDq8K+2NXHYMpcP6ZFUYP+WBhG+o5zYqENChyzJ3xKIcvU33637jUKHk8ZYiNf9g0KqbXvW8SYBMkM3eg9Mm80pJ4sRdfuKq5UFQUep64U1aym2NsFhce8yMKWLTQOUCeP5aKX0smn+TJ6xl05if/WYtUku6TeOKMbB9ldwqs5aN43bQnWVFSP3CWmXW8m3yxD4HVo0Nd6C0KG9d8B07YthKgPBjHLtxJb/uIaWkbGBDGfeVvr5UDvpBdqUPJV0Qc/gBUNfAG2NAlRh/dtz+NdLta6ly31q7TL6UU5x3R0pm/CpAPCp2xNARU9w4NLY9dMUNCtHt1550ZDypcuwWzq0IHjH0MZKtrHL7AqvlXQ46uuDVBQ9r+Ntd6D5ORMy2+moTuDhuy55TKj3RBoxPRfKx73t6cPf0Wh9r1QFw46Om+pv2p0++1JPLL/T3iy/qbxlf237pB7+4/cZv/ur2yiv6DpqH9+UCbzI+1tlL8XrrvQ9kg3ettUwpf/+dt7e33/jx9pd/+sfbH/3BH2x3dTB8UX+P+C191PRberL4DIe+x09N94FRDj3QuwcPeCyqAyNxoG1yRYfEax8aOSw+knNXj55uz1zd83WvDoxuYMIixxSIugiGO4mCkjtZweiPRtC94I8pA2BS17rRDqgaXn00kVW6qbKCHz7vlPjdkp3gXmhfW4AEXMy4XQ7Q3gUCc9ZnCSIcH3iEsXQNEMpBCuFC5xl7HnDCwuKzyzx+P6bIR9HqAUJr3ZvGsjZ0LMIu3laXDzwlYbwdk20MuSN31tcx0dSvK0vsaD8H5vbB46+cdux0w0Z6hwmYGKoUc4AWP4varowcuvUlgJbOgZFNm7iLjhYauuBFuK0GstC/Un4FSC7mMv5qVLRZjLW5aS8Co572iKgYkjwfl7zb2nmbJ26OIX1e7Sa6u/hYY92kfsQB/ZAPvgxnS8TZKlexK7FCSZMJna/CKQ+7LXjogzkGwAvk34wX4jLWLsnNMjCAij0YLdjHxcdjumy5bdhv2yp3DPyRN8sXv+y0bcxgDdmIU4aWzB8FrrKJvhGPAmGpi9ULbnPR8pHPAdi95o02TfYwgf8XyOE3o3PZna+lFXHzKn7S5AOgg6LYEFe0g+mLYrUp4xQ93bZVf1zY3WUc1ZZQIWbsQMF6bRCv+MkloULGeqQok9DlzYrU5OBW9MGfddtFpnWH5TpPZvwOM3zT29eAoPkKM0RoUsaKax/IVfcP+YJNEZ2hw0ubJE/ZunQjHFU3MdXwjQFJWuJmm37Rj4jly46xbTO+pt9is/XQ06SZl0+mUl71hTiwbit8UCR3hnPaGRvoZ+u4HNbWug5x1keO/7z713zeyG25GkNoNc5tFZYxichiOwTZ8wERu5fKsTOwqLBOCkr23623QVerlY3jCR2f/EpbIxbeqqjG9kqKsiHn6Jnmhkx64Raz5Vc5qLYjMd7skSOjL3Cq+OVZ1IApAnuuS/uWxv+0ub1v5RJOa/ZaeLnqlKc6vOlZCZe7fMhv0kUpIipv8qNg0Mtu11nL8rdqjA0xK3YEJ0MqyES4nSG+ibfu9aAj8Vzb1TZaity0ow+irthdubCrjrXMjObj5JnZGFikaYPBRUNXX6XEf/PO+BAdVt9oX7A1TrpecvDg5KfKFTvGnpMytwyfikTusUm9LxXt4XhxajzgwllhypCc0gnC7Ne+Zg+bEIwNh2Lb87qvA1+PAz9xlL+ozGtCvgCnn9znI7ba59cXIXFY5Emj59A9PcDTx0uf6JDI6exKB8YvvvxEH2H9cHvxpRe273z35e1XfuW/2X77d39ze1n1e/qS0s1flCZ5XmvffOcD/VmXBCXOV9F8/P672wf6GCoHxj/+/d/f7ukp4sv6FtQX9ATxBS2Kzyt/Xu+m3fvi0aZvy9HTwmt9JDWHRk6wHBI9NNRaDopPZK8PjHd0YHz2zj09qby/3ecVrGJNoPoF3jmDg7h1DpQImsShSUo7LZhJsvROHh5tRDPcWhpbZObSt6ZRKzv99zJgVt4qs+PtGD1xIY4hNdre0I7FYoFQONH25ndMWo68eZ2vGDaMeaeKGEz7kRfNNkarvrLedts3/L1dh+xJtc8bBu3tu1em6VaNxlGmSLt+InaBT8GU3P9s2tV2fuq3mdZNBRvtXXKjg0sD3BYIjQtT9xv2cVo4Xby734fGm7jS1fIJ5E7/WKvKrqGFX/3QRwam+tZn14RSvVs3ZEzzbWfPbVr9AEJslGc6LnEB3HbFj5VY4O6PcjJtubRGQAvMd9VmSjuLrmz4KYjLRxHXQ7zIlxzNyMoEgsVnTWJGfBCHD7fQHRbfJMqYYsNI+xkf5L4oogCafvuLB2r5Mq9wLUM+L0QjS86XhfHlBvSv9ZEv9louehEtWXvA2seFaLWfykiKS9edL31b9H56F9xN/pDvHsP+mg7Vgd/R48cc6+5R++a1T+2N5cU+NtChK/FGRynVQEWD7+w4RD5IIq1UeJUY28jkkESpZ0x4IpTO1HMAoyzNwMsmIGxFFx8A4p1a1exDZK2r8Ja37uixKgASQI4XftuyXsjyq8ptxzLclGKZHFx6fR78sBGE4eghBORk5PCrbvve9KE5/M7Bu6xb8E2pvrKO2BMieksAD5BJu6hNHfhasImBf7wKly2FKv5d+hO8jHhD5bJudII7ovq2nuhl5fRfWoufBYu/++0yB7s8AUxM+6CXw6IXt0V3+UpgvT5INpNIjLJvPySnbzG2jYOt+qtv4/MxXuwK6iQdbmvaTIV2OodfwFAynk0et0JOcTgtVjl+iqbOoI9GWmRMHSz8q8qgYaeSChlX8dV08DHTqORgKZmfntkDfraaTVnxZbMsE53aLax7SRGvaWDWsmVu04vwEXzBzs7uUZfruvHrGDOzo5R7l1sHcTNOTLbMY200tlBHG0W21oUX2WrCQm9bK75pI/frvYQMGtRdwb6jt3Qnl0DXQbsMLcSEQGV+IfmizYArweufelDhmEA/4CIR/YY2X8DWP2IMr/jhdaUNt37RAWjtJDd2QkrvQZZqkbxOWE4ErRmjH6j6QqeuWiyh4SO4fERZTxRlm9cOD0H1BU8THz/WNybrIHjn7hN9A/BH2yefvq8Do74xVQfGX/21X9r+29/7re1b3+a/W7Cq8vhPTxj16ZgcGPV5Vl5O9Hxw+0RfePPRu29v/0Z/v/gnOjA+0IHxVX2pzQuy9rxQ3757f3vx3oPtvg6M+to8/R29Dpq6HuCNRiUviqhnPXyiNfCpXuD5dxr6bsft7qPr7TkdS5/VU8YH+abpGTrklZLRYNdkcZ96c9bUwCZqyJV848h5aeDpkj/WqvKl1B1y5DWdvMtg1vIqc5GuzsK/+Bj0Df+jNO1egdjiUoz9hMzitMEaXOPW+jpnVDWK9kPnZW2OyAsy4kar7il0Zsn9bcGUvwxYp5FRSNvzpUbFWBWJNOQWelROvPsfpEmT3iK30Wd7e1uR/h+jQIJRmXzSI8lEBEC/9oa9ba7YeFR+KWse8+GpJp9/+La8grQO56bppt+Wg+5y06o/j/iBo1B6Egsj64amC7aNb5wqa710tQ/Ev7RYwPQboqVAWfh1VGNfpOupvy1QQuKvfd42rG51fuhpfWVwoXebI1v8NfOLFu+wp/9nHKSEVBnF0SZ8WOhj4g56xmG/ieQ5r/iQ92UZ4zX+4Wkt1ATe8Y0VzdjiUQY/5SWmT3BwaBxtLX7j2r5ly0dp8VrM+n5Hb1jwLqF6gGYqqSwT3V5EkkKn7NUDevPAdzlcuzj4VlAayweTuLVc5xCqbAn7dsTV+iXc+oQzFuJnWVO8Flnsrcn9DwGZlmhAnGgqc52yDzGWUAzNlC/FoxqMcuakKrxROjYj8CPkHF7+tl8lzLUecuEiKzo6LJteokxiP8C79HnCOOegseIjhTnnrqMXSWjqfRn1pdU/OPjIIJE0cutpPvLY1oGVAyN4+nVgKJaOQZs60Yx8bNHKKpsuHDLlB220Lucz/gwSvhsh9sGQGNGxYx3WF17XQRmrW/7+19ot64GnmPgV0R1Cm+gYBlE/LawFyzQOdLrAcGjsg13nO7nEBxvo56DHR1Y1gKNDtNia9nLwRH/szwMkMtFBu5Dr9qcAL5TkiamA/kmOHV3qN7cXNTsZ6hD9mzwqRUxi3LHxtB7dj/igVl9C8b19HvrxMX7iJb+3JyPib/l8O/Ync4iCU9kbdRFdXvzY82rPqPjt6Lfgy8qSldwqvHBp/8payx0bHwh47RLWZisWjcVCl1HtcoC2xNrItO20FG8sh4O3+AXNry/WecHforf+mUfJbWtzbOne8iMvL6j74naTRhgcChdm2WhuSowgj/cCm8yt+S5zm/pXneAij7bytWRt3Hx4Sk2naCUqMG+8uAHkdwVFxpRqw2Cz1nQCUFfPnba9+t1wsFnbXJi+6HTmA+OTz9Wf/Kulx9unn72vf7/xjv7DxbM6ML60/fpv/GD7vX/+2zowPpQ6/rAw1x3tX/UtqZ/IfwnquqsvA/lIH0l9/603th/WgfGhDoyv6cD4bb2z/W0d9L6tRe9b/C2j6Ff63yD6hOu42Ajx0VP+55T/74k2R9fa4FzrsSZPGXmq+OAxH2nV30FyYByto6ABb0Lnoqwj3NjwdvRlEje986F+YPzeoNxkchH9JQ1n4CmNejCmiobuVX/TW9PF+mCqC4fe2G9doWOA3wEq/FrHfiskT+WGvMg7mJD1UmT53R88GxuB6f/ihRUt9RvmiycnClqIfR2e/cSUN21GT23QXav7YM/6Pv6Tviq5FB/PNsOJ+9L3w4bIB/894YrfEl582oB4Tcd+9yXlNRC2yIbVTxi16fPfMS2S0uNI2ZYrO73ruoFqSxrb5apUBiaBdqlu9kKyyU3sdqwwm/fN1J0t8CVjPUd521dLnCNes0xtZ3NHu/2E1e2Hawj3pCk4mQLZh4J0LFYailJXwUpb4ZITf3mhlVv9AJprPz4tXPLWR3n1CSnzq43iuc/J66C3OzwOvk2NveDEIq/NaR8MSwfrKHata+HZF9fxY2+bN+vaF+TFnr6D1QuF3yHUGGSrTUofuuimU3KPuY2JkAhKQjbNekPjbn7xSmLoihNG2Vba2XXBLCeLztODsVd6gYrXfvLpiKHTfdh8gJJ3TEKDgnBslA5jrK24hvhm67qR+9LNY5bKoGkEqW7+DZr0wjM/ZSrBIqcDlzZ8PoTilHHgwZTeKisruZn3foOei87MLUuLMA5PaFvlXa7Doj5C+ZTDjuISqxPrNho7aase++8DY+wbjy/Y5lZlSr6a5jo6E4MgwZQd0bvs2AhA/Rhnfy+C7EP3mFA+Y1F+tM7yQZn9I0d39LcHHAYZeIqFc14d6ZfbDovg54HuepTrbxf71dUHvuhl1ll/HTj5DFeeGJatsudX5n7C6EMp/LZFTn/hW+mrXKDwOta7PHElAOlv4pUxIwKCIza9sUW8r8nHpmoKPIfGpKINe0W2nyiJHqiBdIyrbkjhDC75r8hoyc+S4m16A/leOlxeFN5Gx2x0BOxyuXKDDuTopkDT+mJwKe70LPJNR95r2cqjbN1RZKxottV04+fqALJ1XmwXAOugkNT4zm/j32j3UIATKLUzTa28ItMsj+3ADRDdY8gDE0p5Ad68GseudxlG+EjMQV1001pvoDvfSzbuyp7GfR/S7C18Jc8bVBY+OsqHAIzzosXcyWQITWWr8Q1luXouhilr5idGDgFy5U/LBNvy8ctvLBqrWa+9AR/n9rlHr//6J4dySZ8Q5dq+2D786K3tvfd/rAOi/k3id17U3y/+8vYv/7vf8RPHu3yz9jgw6pz43vufisKBUU8A9aTxQ33pzfs//vH2wz/7k+3P9TeMD/UU8dVnHm4v6e8XX9bTxRfUoc+rEQ/5O0Z9Lv6BOvAZbXr4aCprJf+Y+Etd/rIb3k2/rwVP/8+Dp4z3JXulb1e9w0HTe5YEwhGscdCb7s7N063rnU86JemxfOnrXYLlws9dS6dwLMf0UJl0jcrijcflpTr2dz5Qj4bSc6yvehU47BwmTuubOaqm1qYfzAxM82ce+RmG+FR7TbVfbfdAHCpirduy5G3T3kyFTR6xsAXaZtO3+Z6NKsb90nXQF6koOeqxWt16Q54ZtsQ6AmW/3St+FItY8Tc7ZXs8+DBUWevlI+sYk7mXXqsYuMsyqx6mnf9+iQmra5daD3F3uV7YAQ1eWmw5gbr7Um9c0Yc7LQxf9pmjvEtZcUB26Cm7bX/YBaSUdVz6S2Xn5fDws8eBCYt52q7tnn/8v+Ckc9jCQGNDhBJa1dtP5+1DUMY1f/jTvM69UApF7D34keh4VxxkC9WxUUbaL+ijrAJl8Fx1kKHsj8sv9J6TrI2WxzYHOg54lbOQ9yExh73Ug5kHSv9rInmXJ9z4ULatJ/VBQyd8uelcdll3sva4hbTIPgUDsBIEE4NLu4M1YuGDwNSgO3oiNA2GytakGIB1uflDOLjoka2SO+px3bJCDB2WulHv2AeHxm4D64+EW96cVLCsaaJxmkMGZUuaFl7XyT2bPK8oNz85ioJNzqHHPzI1dKgArQ8zscdcWTBVDq39zLE/ssJKMHwoqZNT8VsEynlK2IcG8xZc7JacmPDXywcuy6O/fChcfC+8aUiWLuuRjEi9dsL1WiRN3V7zdRs464lO2tX2LSv7ybvN6CuM7eWGp+DoaMfH+kOpySheT8yZ87ZyPobKAU/0Orz5qWIf7JzrsEjO4xMfFDsnPhph47EKX3mvS5/hQleeTgYT+22j7JXu6BTNExAM+jv2LZ+2EwC3zHnaSJvF1Q9vFChWqs6+mxiX4Pni5t+ZE7/epEpj4kku3cLewK/y8B1/+Qt9+G8GBMi3pjGHb0V8DYYMsMww573070QqIuVEohuAy+2ccuJ5G3+lr+on3SvOytqVJ05+ts1CwFu/AbWx5CnvdU8+JZTRT5pFfu1XtZJxi62Wg736MOjCjjIYgCW/0iHPVPbLj0mnJL8R9JgQzvpFSDG6I84wUZ1bWRp0FQ5lj3tooM0Do74rnBnFj14oGcuOZPHwy9YQz+Sx6LSH2JwD1oJC/5YS7HphLvsG2VrhoqN1Rgc0StN+8+Nv2yxbbcpzVKLq5/5EALG4q3WIf6GRP2fTWe9KT+x0Pb3+UrjPtvc/fHN7972/rwPjt3Vg/MH2L/7l72wvv/K8vpcG5f2RVMm+/faH+pZVHeK0nN+XoY/1hPHDN9/Y/te/+PPth/qW1Puff6GD4r3tZQ6Mup7Xl948q8Mi1z294/eMenwcGBXd44Hx+oEWPB0a+XiqDqvbHclfSc5+OCQERqk2DjUciBVEblWs4C30yQMjhn+TF8XypUCZbBN5tRM1ZTIYUWa9dRULdKllAcvfKzUv+VjY4K+sXV22S886I4es5GY7qETT4NN3TuiZvOZ3DsTctl05LzmZOGn/inN50Zk6d1LbulmOSPHN3mNLJRwl/K4+8OwNNrxu0qEfxJw64K18JH+SPWRXG4l//GirOwOD6FC3KDr0y+TLC2/rmbL1OihYsBZoeWvVJPfKodVjt3IdfERm8bn1osIHBQoLZvrZdgEouQowZTIvJH7RsBSk6OpCwYf9rovffiCZsg1EwVJEYWt3M0Zb1H4tPP4nsFprnCy3GKHY+Mpn+2Q3UsMXqu1XWLK9qIPW6rDeh8U+sM++ivQAW4duravq6Bj+SLHHVuUel3Vwu0EXBr/8hoH3fZLtw2I/GVR99CtOF58vyekDKf3v9sHXbx8yOVi6jEzJ0hZ+hk55DovUb1iNtoSoe0UYscImnsQOwbqMr1i4HLpFSg6y8S5UP4kX/ycPi21r4FsHOTLWEXu+Fz1yS58YFxkXhQM69VY7zFzsCoCNcanQ8xxa7xV4sZ6Y/WEluPJRQNYK8EiYt+q3U+IIYN3OwfWmPlLIe6+BrMp5QgmPqw+M8XXKqiRAMLPMYdUfKzUnfKlRLRjaaxlkuwyA2Mhf/MwXV7TuipmwaYPBKrcetC36pX20ZaHH1t6HxDt6hozUjXL1l+tlr8udi+z2xIdqE0Rs9yB0lc7gIMbEVFm5D4wcEpenfNf6yJTldJjTV5CEZ/7yhNE6OBjW3JNez0H/sY/+4IdD4zWHRi8CslW2bb/tkeNP1wu7yKB/TCTa6RikwY6ai2ZIF1AOjB0/bIrmW+KOPIRkobk+gMVz/CK/8qMrmFJLZr+S0x6NF39JUMZNOWCbYlZusdxkJpaqYBdtaQF9jaJE0NNX7A4TOwW2t5hwHUTpaHDjBr8Yo77ogGW6+mDwW9Eqt8gM3GI3fZSR1To9yhpc8qutWISBnHL33zTeok1xfdVTDG9XLN/I7pvUw6/yhCwlKUX5AuxodG5wXI2cy+Whyj1GUYQa2LRnbmdqDGmgj2aqgH7+BzRE/zletOsu3SixrvAtp6J9gkfJuWAsLFACTQWehFrO85CKf5N3TP1/qMGTwkqx8PFFuoqf+Y09zV0+WaG/QSR5RfFYYl3AvCTEatvxpQ3Jf5opov+VnD+hoT8l1BNGDo3XG198o//T+KnOfHrK+NJLD7fvfv8l/Q3jL26/87u/rieMz+qgKV3G8jeMOje8+cb7Wsk5MF5vz+j6pA6M//7f/OX213/4v2x3P/l0+7a4r97X48oHz+ig+GR7Vk8Iue7LgX7CeB9P1QY+kjqeMOobea71jyGvdWB8pI+hEdk7XHIZe97c0OpKx3rTabUDr1uVBsuFpl/MG0rw8MHRlZ5L9sFOW5RDMTk8fPE1OBRwkfvIqZGaLsNVT56ReJutpndu0dxoAnq5yhcqRsZd47pOjg/GIqM+IwY9Edq/23Irsy1KNsTd5chQbMpKj11TzMdrXTK8f8oRmahe9UNXkmy0uxJTO3tGASw3oiPoulsB9knxIUoXzSraw4Y1y7luxc+mqSb2wotu3fHNv2a6HB6LF5Oew7othby2b9VXbWx32v7MD/oLb6XFmrETQXHvA2N5H/t9x4/V/kJvH5CjBfjghIB/k0MztvlizrmCfb1TpY+rz63LlBv6KJRe05a6o8biN/QXVlnbbV9bbDi7PGEcH0mlzQA7DbuLXwakbvuyRE/6F3lk6qDmtq7l5itf9qNeJ/sJYz+RzOFP7UCfL2U+LHJg1IopvdCzxyxM0XygXDDtTxq39KvaibxbrXzESmWnNTdO1MZ53u7rEQottqoMo+VdSJ9hO0/Z48PoR9FLxHKjYjw1Yj7vK78XstEWcNZHL6nAr+tisOitdSviVnFVCT3eXGucrYdGVcWbM9d7kMIjw4uy5fCVMQrRZd8jK9sm04/GV7uqHJ2RZZ5Zj7XgU/8NpOjS41VEyrKilE1hc2CLjvgV+7xH/IQ/FcGn9iMe2lfLyYZ+7ePIhSGAyOUJpTAEUSk+4mdd6MYn3WybO3VhocRXk1yPDWQSO2MigljJoU8y9nnGP7IrJvqPccVP9y8WUcpF5kGCUnTSHs2xmqR+auhDITsVHdw46PFxXl19WNT3bZtufsv6kIdM9OnzBlXmD3c4MPJPsFuubIIdh8PYii91YGzd1hUf+ymd20VsKhjEL78mUnQip40eM5hV2bEQ1aK6ZVsUifDQa8HoUTlc5JWoF+Fi3njjaGMfuIlJ6ZKgVSy5mdw05uKq7zbmdg7A1y+goab+RSF4ncpaOUikSOWLSyb0slP80HZ36Ry6LCcdK2EF38AWs/1SfPyFTZoI6MAbVHXuSmOhV+yCyujumXObC6aXjhUzYyPmagMXL+EXOkWDpNBtH0bieews9xpIeWMG0bRgHWtt0zkuIeM8plIPDevud2H053o+e/gbV2E4aKs8c2GVw6+KsMjY6FjYzaKhyXJa3MhzmcptyMWP1E2niLlhk0po3bbY1xqnw+ITnbv8f5T1ms/TZq7G26YXSexLsVy358Zq3uuToE8eP/L/ZXzyVF92w4FRf7uYA+Pn22efv7t9/Mk728uvPru9/vor2w9++b/efvO3flkHxof6s2s1jOD5S294wvjmB3x6dNO5zgfGj/QvNd79+/+4/bu/+Ivt3/7rP8yBUU58T3/H+P3nXtiek/PP6mOlz+pvGO+qESyFD+pCES9JetipNVBDVNcTbXr4OOqX2izygoUt/haFQ4M3W5LtRN0BbELljeu82R6EXSFE9PGtueMoLr2ipdPYCJdYZKPiUA6xcXRGfvdKJh18JRkaKBfoUSXaf9Rjtb4NnqER8J1RUmPC8UtMpGkYcQTSWMxgv3wA4q/W16jKAjKx7YsppavjHd1toPzHd+v3fVdufOfBIafL7VaRGbSkaavthNn0hu51NpW8Y9D55KEjUYMWH+K+W21gewOuy2Zg0C5Jh3we87vdHHkV4mDJ2CurwW5esvcHxoZbYNXlcuu01/asN2PxSapbwQEPf/ZpXGBLhTza1lZOnIXsSt1G1lJs+pywJ9sxH7ld3AAtPtADfOydLR5x6DRtg0cped2qmnrFQLTVjvd9FsrNvJJvNXDSYlYnFkChWrd4wRWhhZpfuZ/uddTKz37yx/jyE8OR65BHWbIevyrYT62D3vcpD56PiRgE0BjjqtyHSoGMZ/H0gbJl2HthZOGXUTeqbY94qpDYSYaErPNkIyaQizXmadE8bnruDkz6pNVN2dKLXeaO8J3fxEx3zCvdiUf0pG+rBeUP2B7L4eRuCfGsZsFCGDSaSazLTfI+tJEzV3q+Zd4H26unD1/CIcfrlke3cuosFGseXnyNvPjGYCO2WofI0gU/upFFmz6cExn5bJpxYENvmemzAErQc2n00w+m6qZA2AcZWn2A37bdZwLGfnDmF6b9GHjrahvKBQZj+1W2ThjQlfuneciLDrd1dz0raHjwjbF89NiOiNHHPck5OHiDSJsIQF3LgawmqXjzaSKHRb/XpQMkh8U+OM7DHhs4JiQHI+Z/yl7fapd0dfVANrVjKpzteID3QbFzdHFgnDmbaD+h4+Blv2mbaG4TbUvDjjlB4MFe3ojic2RU/Ktbx2Tmk9eYmWOR1AfWaQvixNmTtY7PtJMvtnCcC2tdAGO/qTQla0nWUMGSrLgrXz+XZVp9XPZvKOhlrRnIOJXdtd46afelNLBiotdr8QXgwB1tIAe+6PlIaWiMqdgf0kNzU7A3yu4cFGXlGeAu4F+XlY/y0adjHWzREB9yO3orX3Ihuw1DqsZv2itN6NWYsU6VqYZGQcl8ZZWn0PUp4NhrYbjS4jmfMEYvsh7DKswc3VgVBt3tq8rljfgtB5byrPuj2ybCUryR81X6VCY50y12i2I/imkfKHcsAOMDMo2Z8qaJHMUUkljlykG96aAzmL4h9eqOvqxU34765Ppz1T/RN6S+s334yZv6v4s6473+8vZLHBj/2Q+2l19+brv/QBbXJ4xvv/2BvpeG//Oij5ZK+Qf6+8V3/u4/bP/bn//59lf6SOq9j/WEUQF//bnnt597/oXteb2ycFjkS2/uPH7M+2b+eCkHR9YCf9mNIsTh8VqHRf8towbvl3L2sU65bJDusmGi5UrrRHIwQq47kVmwhKvkAKyyqfteultOecjOKRPERc3wBdi01/KhhhWpIVsFZz1BO28xMcsDWaU9SorPbTLdpsQnBjpWaOoR0Tq9MAQW1RNstPWVT8C67R5I8eJmvKxvtr9tYbtaYFvc2s8SkUaV/LvPI6B2mywtytd0qd3wW3+w+/FQpkCZPbCle5pQiVnrpDZQpVw3MloWROcGC2OQsT2HoRlbLCNLV7kSYeEGRIXa5lVe+jtb5Lsdw54w2MOzscFCbpWBv/hqdvMLy4tO2tmxgJGUcULZjhYxWbeVRQkNTq2b3OWQmweqx4JLHvNQ+8BceJvzrQgWlEgprdxWRUq+7yPTkC4RK2p5V4gNsVsOjEVvrEXnbeoqnXv7IkKXDcz4YEdBa5vno3M2jY3ReNHa6AMmh0avf8Jy0LOC4NzfYmdzF72tk0Oh91rSbcUXcutvOg2T7tafGOEQqfJDtcnWb17FmXLVO1/n0OiNwtmm7dRNdPB9WDTe+tBLoXoQfxHhpisxbx40EQ2gnLVk4EQafqjs1HBkfK26IDUgthjfIHx4QpsIOUgVv5SCMY5cmJah1Ic1iOY4z7zxF7cAllnbQj+osuPcdfDR7Xy153LWH2w1Hz+HfdExo8w0yrbDHMC2ueR1gUeXL9GoN085DiM/41L+gRGwbVO2HPIuz9yfKxDR/tIXB6z9s75gohMY9WpvxEr3PkYd970vaYfE0ib8ckX65mRTuQ4ylfsw6HKe8lHngzlP+eY+TULqxvD0kYvDnfDRk3IfGDNpdcDUYZFLH7eyjgyCssvEXp8yjnrT+Wp8+ezgIZN4MKkcZ9pFQelSzm7D/85Da4PLgS6ykYsKdHmQVKzEs2aUp1CmSr6Z6Jj8tRw/8bXaa1zAHmtVb/utsednVoVS3kzn9MeFJKiXFViUlfV1AT23BsUcWkvW5NGggBrT+U7vKidGbAd5EV/Cmp4jDdygqeco1xpJTAZmSMUW1bZGTq97XPCgZMGuxR39gv/GXqKXfzt529TN/hbAlS7TjEiMJ34dXzwEZqjaWDmDa0Cav+aIuG4BVyj5o6DMGy0M6JoxZjyK0Hqdqy6s5cb6QPz6ByPVUukD177aNjT0mJ48D2iqHTDMTG7EoCELvfPEIZbxgbUAni7stC3apmSvSrcz3bp9xFpvTbv+VE8Y7+jAeOce/4vxs+3Rk4/1dPGt7cOP39DfLD7cvvf9l/OEkQPjqy9szzyj9UxPGK+v+UiqYvjWO+/7CSP7jAdy5qO39KU3P/rR9td/9mfbX/3B/7Q9+PTz7RW9W/bdB/p868OHPjA+p0ecD/V0kW9VlRtaMvOvNbzOqF1+UfLGRRU5ywYoL0YasOoxxgqDOC0lJCQTq2xCbiaDEB5BJd9VTs2kFjdmxy/QDHzUhMy9/Fj0orEHNGVSma6K6inBqd/OQ2q2vZzgkKvuzGKTQCm2qn0FKoTli5Ryx+GAS7V1VK62QjfP5ZTSBJX9G1r7UOBkBbfhuq1x6ZiNPApbxdA/ZRL7YQvfho3Vj2mxsZ2XCQsOUcPn+Ip010uXV469BByjipxyycHEqHlegl1euMUDqCRsQanoAqnLdluKevfN3jYiRqWhKesOjXt4qpAKE4PUTc1t4VlOc7w0DxweQDW07bWOzi0lDQL2mjnsLBgbdb2IK2+0ffHhYDc6pyxIJ0jDt0FNHAoy/KG+2lUVn3m6mCeMLZB8QKXf5bIzdajdBbJl+NR9UZac1juPe3Id7vxFNtB9yT7rIZfWXx8CC+9DnvWhB53kury3qgOldTY9ufWpGF0Clz7bgM7FDV2VXFzqJjd75FVQ5lFGdfAoV+yLlrgstKLT7tFLorWuPjS27VaNHpeboDyxNjLMhWcu9b4KNrLCdnPt5+p765JAVsXYw0/GePYYs4wvHvvGN1Y4EcOrwxB1EaCSk8j8+qeSXuczlpT3YbHx5iFvfPEtn/UGPn7B7yu0aXPV0T6Quz3kikHLtt2Zl3/lw8CVvdWW/RAgbYg/KLbMaAN+xR4fibVvNS5sk5vSjRg2lty2M5Ys7/ra/sJI1+RjF0xsO6cuYijq/D7gaWDMg4wnnXiepM5zMAw9B6kcGDNBczhcD40pl55M9tKng6K+ZV5/o6MWtB1yfMHeomsnJ4x9xc/43YPe4XO7JE7LHM6beQ7cxFC7NSaEY4NIsN1HQ1/UASudVu96ywbbthCQXqUhgw3b4cZmtfzHBwsbnvJSj5HwuEfrrA++GDd4C0wr76i5JBuTMlgu9LLQVCLVdoaMSCY6j/bBa8HKQ58eNM655fcCzYd6xDRv5ik1rul7jTM2g+8Y3x4D2158G3L49FPS97FDWNdQQr1j0znWlYARgRIZuKpXE2rMBK+KCiVTOsb4gselRQTzdgE4l27Rp4rrgbbt8MDJI/HbL+IyeJ6P1hQdqIJpfa0fu6GtISgIAhixzJAtkl8oRjkYY9WeiZ12zBNelOhTngM5bSBGeP+lHOL6QuvlZ/rU5yf6G8a3to8+fnN78eVndGB8UQfGf7r91m//ir/05r7+wwXf/cAqy7/k0oHx3Ywi6XqgFffjt/UHkG+8sf31n/7Z9sPf/x+3h599vr125972Hf3vxVfv60tv1MDn9Hbbszo03vU7FlqGpJC/TcxHH/BLU076cnBggcVRLlpfV0UPKpuaYw4ZrDlmIocWVfyb3ERwLITwnQlVefihI8tPlum9/MBFOfdW1iznB7XDTpmv+hRpvwYFBQbTHrxxxt2p2eaoUojBQ9Yyja8KKlcO5GG7nPNCaLl0ORJOlrVAKG2j2GBcNK7Blhz01KbNtt1566C++uk+bjvDz9JW9aFbBUitM2xps3z7lXHSMru8Z2zb2zFRDiF6omW5l4w3+ELB8cRcchWTrCJ6yjnT2SyvUmWq7EY0FqPf/lQMPNdX6fInUrpT98Xt6LdokO3x5Jk0bwCmL6bPuu1LlDYPH0tn5NKr8Pb9sfNG6wKI1oCkyu2Dcvp2x1386H5PLILyvTGo63SgIZOnGPJfPrSuhpNbRPaTT45bLOLwiwZSB+hLt3EA1HpXBzxs2A540fIGe2Ebf5AH5wAiW3pch26ebDamco9JlZ2Xb6MR6K9kffCVZi/GnIkta75uitOIb+tRbhXKlx6o9d5aBEA2Ao1JrFSzXHIjjAuqZdAyYkvFY4acitKlvGnyavRtDFjeFtye2N7Zila3p17bXfZBRvCMm7S3+TnIiAZft/xQV0k059KrYjAqWQae/Aq/sEhbD/gqS24cpIzHj8gN28ZEZhyWpKhx2EYx9bzkJ2f1bzvDT+EGzXpbjyrYtw6rG351fOD50i351NWxwT/2B/2Mg/ZO28jJnn3oMnzwse82DH7WCGy5b8CJN2KANpjWmju2rF8+pAM4uMzD2DiwLYdFTTSB55fa9M7BdE/m5ZA3Dn2h5V9oRH9081kseLqsF93wcWjRY3tdbwxflgOu9an9bl/nUhPCxTz9zZv2wvujslIl+fR3xYr60JH4BoMNG1PecmApR5aiV03N5YIqLx65BxA89KodEoC65rRuJBQq7WlFbJ6YthnojTuykx9bNojRQ+rlBfLe5lK3WMmqHSxbO+yiE7vNG3mJdn2Bpyj+yhvloveaZvpX6aIdhUF5dIVAD9xIF/TdZufr0I/6YxMj0/auPeVhfJaFgsaW74PmsciYyiJXKhXvUp3xpwq/HoMacSq7R8D4YmwaUPJ4PO1aR7HB35AHzli2LipKXcam676HPhemtFSsHv8BI49PCCqR90WRMjpIjD3nlHOlLeCCSdb4WmO0+Hr9uuJLbz6X6OdS+ZnWTz6S+vb20Sdv6G8WH2zf+d6L2y//yj/dfvt3fk0fSX1+u8ffKioAvBp4u/Hmu/PAyJfYfPK2Ps+6HBif/fQLHxjgz5xJAAAvwElEQVS/q29IfWV3YOSLcuq9Kx0YGRT2n0WD2CvPg9DkOekK4Z41kmbX67YwjkLnZi38Y/2Ak2yJK0+l85akDiY5nrUQiAou/Dgy/IG7pmKLFJmJb7tiYaiSi1NoOroAFrjtUt/HI4jGpSUo0GQAmN9httF7HW2w2mqZIM3p+i5fZKQs+jBXcu7LpncMu37MI4dsx6y1j3ZMwgVMmLzeRUfVy6mpc7ZvUafibfSgGLMk9HRLMlFCt7xj0PyMd+gt28jo8R1nlZgT0eq50RYca/hKnpQpcjeatuk35cpL9oZN7PTV8iiCRnK70NR+mwp5SapUfehvvnIvwAu622RS41SZfSGZhd5tT3t8n6Lg2pmSGQjXdTMGkeKoPjDWVLwVP9H1dOWW/rJ8xizjq+OAhV0bwJUfpuOzxiS+54BXB0YP1KIJ4nf2WXHB1uHOcWI8o8N6sL8v87Ryf1CM/HpojN2Ss3z7KFqnwYa2Rq3WEHAtW4jRv4j0ZVzVKSvtcBBsq+dJWWP8iz6x+EB7ESh/UklttQfE8gYHv/KXciPib9WUedQvufnTsvhghZIreJP9yHoICR3+8QDZhxZseI6gQ0D0+LJM5Py6bz8K0zjl2VfEh90BSXFBjw88pcu20E+9dPQeKnUkYsO6VO5DIxxfug0/0VF6rFMI8oEtmRmX9rd14RH6dHPOFiM6aVf7QJw9b0QbsRK+fR62Bw39S/vRXfFAfm3z7AdkMOBfl9uXeLkeFjW/6uDYhzn/j0Umquj9hHF+xJTOE6/4yTkEcsgj5yki/D70JZ+HRTBl04sB+ppG3gfUpsVWDreMUeqKRxZTmih5/+qW1h1zsOtTRkSQINbpgyhYdeVwB4zYH/iWi6w1Iei5i39o1qVOR7fr1lE+2/emJ7cjRmaaV9GZNRZsh5OeWFvRs8w6OvjlR+Rb2YKdxcgskKlDoNajItrd5AXbaiyz2K+lz2zKt6XV1igLTLlbc6Rf1CUbKw5MZhClgwMH7JD7hnQszdQzeNr261wB3LZijXLbZ5yT4Cv+7gKPrdRDn/ExH5xlagxal/SUDnKPTcDQOmHLPBGWHA/yhK6AyDCmna+0lKObMkrIdPNCFb7vq+3CWB9M1wursqG6ZezER5cL1/bmfIPR8rXW+MCoNcUHxs9kggPjp3JrPTDe14HxpTow/rr/hvHePWQSR7YiV+eBkcDOAPdA9mJwY9opYIwep8hMvBj5dd4ow6dQ8YaSKVMCQOG2/c5ht1QvHvht+y3TOpwLZYHOi9lttUxrjHLrbbrzRUbKog8/Ss6jtukdw64f88gh2zFr7aMdk3ABE+Z5YEycex0dIaNL+lKxe6O7is7LMlqLaQl2n6Y6O33or65GDwvS0IuNrGBDtFTu+m7oMR6/SsciaxPc2pmyOWw1wBisFEf1gYHsJMqKF60x+Tie7Jtf8MpCyphljI644e+Cty7qukzHZ+/hJOWD4HlgdPg83hLcxCz9MsbMpbWj+n+N8egl8D0+6NHqA/OXMsVJq5oyj7ol7/61LQmwpTFKBGjzYJQ6NF+6+fBxrIuODc8RyjVXpkzkODxhKvTCo0t4eNER+30Q7AOS68Jk7wESOdXL1np4Crf0CgcPvyOLncgOP9FReqwTTwQyDmxdsYGv7W/rmv4ImvZYR3CxD1brUEIde2UjbYjNjm+3yzLSOeo1thwz2wovh8L2NYrjN+3u9kE5D4xEyf2rG3FUld+RnwdGgpFlxgWCQ5wq8Rrh5WiSmuWVBCbDnOSlK8Xa9FflkDWejhhl5H2FcqQfVKR6kId4HhgVOfqqx7pzEaB1YmGCZNzMifl5YNQnSc8D4xgpXdA8z5RMlvJgMnAGKSNt4sXIr/OWMXwKFW8omTIlABRu2+8cdkvNpeg8MO7i7xjWCtDBMo3bbfQA+lCAvkIq4HoxXeXFm/zmKb9ha/ZfOo1NUjRlTZq+DNGdrfKWztev0Z2XRzdsoqiv2drQaIPbhab2G6LJKaQ28EM/OknY10panpvUbWq+c6D4XWnoUb3bnvZMTUZza7kSH4gGGIPi4qg+MJCdRFnxojXmPDB233RECFitIRRrvIUqTo3ZMa4cV3B1AVTa4SCIP+dJxR9dok8sPtSmq3uo+t/eHWxk1wWRFF32g+qCbURoVVPmkbvkLWtb1ghWKBGgzYNR6tB86dYHml1dFWx4jlCuuTIxkTsPjOeB8XzCyKzIHKmCM2695DTBMzhwBJqs6Tt3QYO4FFh/LAut5ZxPHQ0fOBF29roOELHWY3qtXTfVRcdiv5Y+tNxon4l1G35I5ygj4yuUI32VH+WDPPS5qzk4fMAO/d+QPnxxod/ymbbXPYJ7qlij3PZ7AwFf8XcXnE8YM44cE8KiAr81PjtP6M8njIpDTVZHxNVMMI12D7glnxBzzKd0fiS1YjUDdCN2Y/FgNLIAFiGRJO6M2KZTJnX9mJtjG+tiEZll0xqCN5xV3GXnE8bEudfRERz6pi8VuzdMA6TOY0MLZ/BChltJCqqPh/6qQ+9NcKPH5h9C4yj2QFF56Kky1m1/2RlYlFvLla7hZwOMEa5boPrAQHYSZcWL1pjzwNh90xEhYMvcI/6OXWI2+hdaX4isZTR0X5YsfMZAW3Feu6aJhdprRCGr/4MvO8qcLN8GhFh9WMqNCL9qyjzqltx8KS7LRMG1eu09D4xETMEhPus1D9LnE8b50dR8lPT8SGrmm8eLN/WUNH70IuAjg18MVD5ubKsOtpcSyiRrjBoUhWi61o5Ru1lg/Rn8lnM+dbTUwFmvbgtk8KC1HuNq7VqwIjtZZrFfS194F/Altvhb7S4G+ro1wx/TWvKQy8aKg3tYjafAATvkviF9GqDk3nfe9HWP4LZVXEa57fcGAr7i7y44D4zngTF7hZqEPaqU1x5iUC7iNMo90J2n4oFnYkSpU01+HhgJRiJSoe36Lu+wM3uFJoBKQ86re9NrxsM17pjP2K+LRTQum9YQpKOMVb2z88CYOPc62nGhP8elYveGaYAUzxzVcodE2odZSirsQ393g/LzwFhxJSbEw7lu50dSPZZ67JAzf3sMOq9d03lgrLGjzPOJTVCVefpIjU2RP8LZvIqlP5JZPOMsJ2zhcpjrOlpjw7pU5smoMdDNKx8K1/M79uOHcY1XHhscFs8D43lg7DGmgeEXEhbEGlvngXEuhwpTIqM8IXOcjrfGMDlHWSDKvec60o86XD/IQzusxlPsgB36vyF9GqB0HhjHwtuBYZHVrxM5a/iuPnmG6paxox4SzmXLIaoCv6Wg8+g+nzAqDn0YqaAqhh7ozlPxBDMxGOpUk58HRoKRiKwx3Mduho8RKnQRhpxHbdMZvaSuH/MZ+5uHwfPAyArQESSKLhNw/aZceaHGgQ4wib7pS8WhCxpJumJhb6f7tEDRocrQP+RF04I09Bqz1BpnU7My9JRONKQ9U9Zobu1MiQ9EA4wRrr1QfWAgO4my4kVrzPmEkRATnI4IAVvmHjzHLoh5uBMMevF2ZTTklWzHPw+MGedEmtfxHNpyyCJ+oQtTc4r8PDASjxxsiU8fhHu7Oeoapx2/HGCDPf+GsdbWGlMEM3E6v/RGwykT0RFxbdx6WYPgMkGrNHgJZJOFq/3Ngm2mZTRGW5blcS037pg3BhdHWSDKre1IP+pw/SAP7TwwKnL0FQsMv85Tdsy4sVkxjzKY5I5/8YBFjyJa/ElzqXQX0Bjd+p26QKIcHqkw1jfq5pgXV88DoyPi/QvTwTOh8wqWstCP9QNOsiWeieV6EyPLhAOT/DwwEoxEpGLb9V3ecdeIZgEkgEpD7jwwKhp6Ua64ODh16/FMnIlYb6qz7tRK4Vi3QL3YV9UIlOg35cpTu2kTO32pWBZCQ6d01fZh8kKGWyn2qIw2oZOkvDe3IYAZVqYdoD1QVB56qowPac+UtQluLVc2B6IBxgjXLVB9YCA7ibLiRWvMeWDsvumIELDzwFhRcCz84qzSfJKW8UPEfOl2/g3j+YRx93eI67/UOL8lNfPkfMKYlyGtG+eBsd/yma876x7B+8lijbLqfhnvDQR8Lc4+VHlspZ7BBtbo8MGJHbxK1lWbhVrgzwPj+S2pHmEeOBobnTNuSNQZUsnPAyPBSEQcHiqp7/LiecYJTQCVhtx5YFQ0tDhVXBycuiVWDqYj1ocrsLWcVcxbYFBN8IKHEuOtgl5Qqrvou0S9LxWDKhpA6YqFvZ3uUyCrQ6NNbUf5eWCsuFacHSMCeH4kdQyfMYw83kLOWNadMdRvMlxaO2owBp/hGA2UkSfwpOjyeKda/dFF8tAKj92S6bxlbUtwtjRGiQDtPDAqUhUL4tHXjEs/ES1ebdKQIbFW5IlfcMhZVnH2vEE3MuTwKPOjSh/IxxNFZAZG+BpbsYGeyJ9PGImgkmM58/PfajgqGSiJEFEaqVYJ110uOITBg8ZAq+R9ZJaMJo3cMhqjLeulq+WmioHvQuNxcZTFpNzajvSW3eUHeXiZQZQODhywQ/83pGNppvPAWIvfEhIFuLuCnDm7qxcUmC/F0Hz1kHKXqRdv5FZlYBT0vww6/61GBZRMMfRAd56KJ5iJwXmCG5rS+aU3xGwXoNR3MUzsMkKFLviQ86hteg/Srh/z2EN2fXcpFjQZWnmZPNbbk/NvGBPncaAbgVGB/qk+6t7oOp2X7URtKkpuH3Z3vjlDf+lDz3lg9EwYcT4PjBlE8xDYg0oh8ngrPlntmiaWEdprRI3WGoyuMe567A35Jgix8pdyI8KvmjKP+iVv3WVZfLB50YY2D0bpc2i+dOsDza6uCjbGIYgNwE4mcnzsFFORLTw44c+PpBKPGd/zwFh/fzT+DQhj1O9OKU4ZRIwjBlPyjDmCuNbPA6OjwSRLsIjZkohqJ5cLDm3wLDoZ2ccIMEmtIjJay1q2lj7zvWUayH2h8egcZUEot7Yjfa+hagd5qOeBUZGjrxgD/DpPuaImYjA9TDp3/ItnrPUoos5LeilHN/TSDzDvlhUYVvEKRt36Rr2gwHydB0ZHJHuE3jh0XsFSVnuIQdjji6wepVO5eWIteQtCB5P8fMJIMBKRilDXd3lHTyOWBZAAKg2588CoaGiiV1wcnLr1OCXORKw3yll3FM+Qw3a5XuTD8drmgEve6M5Tu2kTO32pWBZCs/7zwHh+JFXDwQNzjA6PlPHmDDzGkKkaQ7276XFVvHWcGbviIKBGutpKxq/uok+dUHtNKWQmzRjvtoM+EjaK79HdPpkHn8LIUmg8dtG65I0vy+KiIC/a0M4D44wF8ehrxqUPuMVjwwOOm/PzCWO+FEffoKp3+a838vo2VQ59vPNfh7/QoYXP7mQDv+Cu/aSAMQqPzaoHs2POzWGvPqAT1vp5YByDUrGrskqdiGonlxfI4EHrwa0ieyAvLwt2p0PMlvXSVcxeKhu75o3HxVEWgHJrO9JX+VE+yEM/rMYDesmWmQcdw+7XpE8DlFhdJegrnPGao6rbBnstt53eXFk8axLvrLkruJk+49N0yJ4HhRk2qn4eGM+PpDJqMviWnHFDYsAw6JOfB0aCkYg4PFRS3+XFY1ayABJApSHn1a/pnqLhGtf0ziOH7LpYWKH0H2nHenDSodfL6AilcZ2PRal8bbnb6eVBt02N7JawSR3lEYPmN0/5DVvysWIgZ5UkU68U54Gx4ra8cnaolgHmThmxbwC5y8VReWAswU2UFR+KueeBkXFJcNaoLXMPnmMXRI9Z06AXb9QdVWG7Lxc+dtqKczDiTyzUXhsKmUkTudUedizfBqLrkj+NiI9VU+ZRt+QtW5bFByuUCNDmwSh1aL50O58wclg8D4zj0NcHQef3NFDqwLfk54FR64FfKMmZSQpT5Z50pmSaV9GZZ3DgCAyW9wCjdrPA+mNZWC3nfOpoqYETYWev6wARaz2m19p1U110LPZr6UOLlzEXLtyGH9I5ysj4CuVIv6DGvq44MIfVeIpdsGXmN6RPA5TOA+P5hPHJY73X9dQD8eoqOXPHf1+g0UrOsYyPfvp45sWCUWiUBxFDKXuEmnxgDyP9cv2Ak4zFnKeC1RCxQtGUys8DI7FJRBKfUW/6Lnz0m9CikYac+7Lp9Cup68c8csjOw10kvKC08iLdxIRxHhgT5xuHVPqmLxW7N0wjdIpvjmp1YIOmtA/77PShv/ocPbzAD72SHZt/K+KWtPbd0CMWZTRYh8dO4cmw086UzWHLdd2MAVwc1QcGspMoK160xpwHRkJMcDoiBOw8MFYUHAv2hETnPDBqnlYsiEdfMy7ngfE8MDIqNDbIvK544c1Y8VOg5vPaw0ERPnnTk0cBmsQtUmqglZpWcpC8j6BwS2KdizcCtJzzVjYFB06knb2uA0Ws9ZjOPqboytZkHYt92tQ2ju27IQdhwVNFtlvTeppOfiMd5OHTA0mdz+pFnQcdA/M16aV9GIn9aXvdI7htxRrlttMbCPiKv7vgfMK4O0Z5Pik+N+YV0fcnE/QG1vk3jDUWyTSaPaCdp+KBZ2Jw1KkmPw+MBCMRSXxGvenOi+cVTGgCqDTkvPo1vWY8XOOO+Yz9ulhE47JpDUE6yljVOzsPjIlzr6MdF/pvXCp2b5gGSPHMUa0ObNCU9mGWkgr70N/doPw8MFZciQnxcK6bPyWm8X6HS2+RkXugFs1YcIU1Dkzqzl0u2lJGn+UE3eXoalzpcx0aWF/cKkH2BW2MDpfHXGvZQow3BBDpS8VdGWzvgsCQlKOzrTivXdPEQqW9CBQyldRWe0As3waEX/lLuRHhV02ZR/2Smz8tiw82GxK8mQejeAfNl27nE8bzCaMnvZ8gan6eTxiZ8JohXDVPzgNjLzFZuhyZLGNVvJElegngKKuayIZypN9QAkFr1IqDdFiNISUdsEPuG9JbfRs5D4yKhGI6EiffrpP3YRiA64UE5kuvUNDpWeUuUy/eyCH5VA1W6f/vA+O7H3zQb/xs958+3T55+53tgx+/sf3bP/nT7Ye//wfbw08+2169urd999797dUHD7bn5cxzwj17PmF0f/RmK5u+mqhj1nX9BsGyUVCYorDugs7eqTdUkW8toha6DlqqQmlq8ilb+7Ah44JlWiLC1tt05yXiEdr6sFNyHrVN92i2oqPvbR85/zSh1Ut/x7FJx/qg6/U5OkJpXOeeQbCWpgVZ/t2gF7ebJN+6JczKUR4xaH7zlF/Q2TGIH5LJbDe2JeEN0Z2tagVK9GsfOi+PbthEUV8qDr+hkdwuqMN6k53nJnDhh/4hL0kWtQXdbYqiyZh9IZmWF5syGtKeqckQbgna9KFVNsAYiJGNngZ1LmrjIakMru3i8+pTS1lE4IRctRAiOcplmbouPkVh3Dgw1mGRA5wOjBwcUUg8bJM62DrgOU6MZ+uBFywyXT4PjNVDzB/i4lR93FXyKjfJ9caL6FG35I1nbJDOA6MiVPOb/cb+G0cz7onVPEifTxjPJ4yZPYyXzM3MPqrX54Gxl5jzwOjV1aNCIyNp3SPoVS8LjFijLLhHU79YW5w1SqDzCePPcGDks55sPh5pL/KZeuRzXZ8qlJ9sn3z29vbRx29sL778YPvu917afvVXf3H7nd/9je2ll5/f7t1HJn3nbcpnj750H/CCyoHx47fe1oHxx9sP/+iPt7/4V//Ddv/jT7ZX1Gnfu/9w+87DZ3Rg5LB4Hhh7hPfAz6avBnnWTQW66zcI5jVg4XrdpZ69DhtIUEE0zpPKwueBcRf/iomzDpYr3Bj0SjfoIfe6hL5CCuttZgBQxZv85im/oHP0m3nngZEgEiei5vhyAKhUIXJ8Tap4DkQDFpmO+cC4f5buta22MG3rkxkLaPJjMvPN8ysEAfb9G99LB51cB0CPjT4gjqeMGS/w7O95YFQcqsecJ97E2CmTpsZHxTgc9ZkwxTd+7celPLrNtKop86hb8l4HyrL4YIUSAdo8GKUOzZdu5xPG8wmjJ/75hNGz8zwwOgzj5lVHa5VzUb10FbeXvwFeCo1noRll5H2FcqQv4rN4kIcxdzWsYks6YIf+b0hfLKjI6ordabv3beAcqWKNcttfX+g10DzWzgPjT3VgvPJTRr50S71w/YWyzxV0Doxcn2wff/rW9uFHb2wvv/rM9vrrr2y/9hu/tP3e7/2z7aVXdGC8p4OmBgXXtc5+V4/1tmK68nq75wPjWz4w/uUf/tH25//qv9/uffjx9rJePb//gAPjs3VgfHI+YazB3wPfOYHNDODulLrvK6G4ylqmKO4cyKWoc9itZS5F54FxF3/HcKw8rs3bbfQgel1CXyEVcG8zS4Wo4k1+85R3x0xjo/96QPRGGWxL7vp+Z6uWVjrfeCnuvLy7YVN82yJXmm1IHYdid1g3AxMzqdLyTV/yfgLR+G6T641TpfsE+upnt92+La+cFuXWzpSufRtELJnQdRdpYDCm1CpMP+jx3zBCK7oF6hYS/Qvbt+Ls+3foRQBwHRj9JFD1fCwVPWK4jhrFHvx5YFQcqsecJ96jF4mn0i7GpugGvvhGOP7FXMrRAJ6raso86pfcfEHKG+VghRIB2nlgnLEgHn3NuJxPGM8njIwKjQ0yz7XMN4+V8wljLzFZuhwphSkhq9o+S/REE2aUVaXs16QqK3NaMU1zfpCHNnc1BwcO2KHzG9J3/qhBsT9tr3sEt61Yo9z2ewMBXwPNY+08MGYcOSaERQV+HZyZuw90WMx3yNzVU/+r7enTLzQYdGC8o0sHxqdXn26ffPLm9sFHP95eefXZ7fWff3X7zd/8wfbP/8Vvby/7wHhXexo0EfvzwOiYOtpV6oGcvcaYPsVVrAeJ3qIegnMVXRuYrt8gDH0ILFzrp972O7etkurFA79Xu60nuVAudN4m43fstgQG+fVtyRcZKYu+wsG6tOlDeme365HDRsestY92TMIFTJjehw8b0llOdT76cmlaJGe7FzOj2OsSegrp9o0yVPEmXxPI0spv2DJU3MSTvDfKYFtysNGjWE5b1QraZnxUtT3gN2wKB9YXfF1O0EhuF9S9HUzMpErVh/7mKz8PjBVXYuJLt/PAOMZ2jx3yOU86Zhp7ovc8uLh21GD02HV858g0fgzW6FrtdRkxJ8tXTZlH/ZI33rYkcB4YFSE2ZMRCt/MjqZrY3mzl31v4DSBPdgaRJ/2S599h5G8Zz29J9Rg6D4y9xGTpyqqUZa/Kx6xWK42r8TJsCHT2TaSBOZTN7NtBHvLc1dA7Szpgh/5vSF8sqHgeGPMO5BKVOuSZQpew9nbXuF5YlQ3VLW82qIdEc7lw54FxievYIxQtdTbuK6gmkmieWEveKOiIJD+/9IZgJCId2JuxI15JjFChizDkzgOjwqOJPgPVAatYOciinQdGAtOHZda59ZXT4eM2BxgI1sWkBmTFLDpjcsE01Niir2XxzyeMhJigjMi6HJqK8JaYzcMdvLqU7cqq7nDFPw+MdfgiPgo3T+Y4hGkf7fiR+YAmZpfhURv45qlfwPgf2avgp3xGlu7C5elf4SwRG7Fd9rHbF/baBvkoB6vqxJZMbJwfSfU7RePgeB4Ys3Zn8fD4Og+MvZT6pa6W1fVlTzNqnxrDpBtlQSj3nutI32uo2kEe6nlgVOQ8MHXj14tbyiOG2aB4/Q1GHEEc/+IZKxqbGVRYJ8SlHN1FNF23LNoQk3pxpVYY6xv1wODF1fPA6Ihkj9iHkc4rWMrCP9YPOPWoJ5LzVDzBTIwsdarJzwMjwUhEKrZd3+Udd41adUT3xZA7D4wKkDZaDKxD6nHtQadbb6qz7rBCKDnWKfJKUlQTXEaJflOuvFA3bOJDXyoOXdBI0hULezvdpwWKDlWG/iEvmlauodeYpdY4m5qVoad0oiHtmbJGc2tnSnwgGnAeGNM//mirgkK8VO6PwboOjXj54lYJsi9oI7IunwdGIpK49Ov4PBglWkTMl27n3zCeB8bzwKj5UDtcZ167mUM1T84Do1cU4sHLViKTMrRLqTEsNKMsIOXecx3pl/Qc5cGcB0ZFrhdw5eeB8fxIqmeWJ5bGRuc9oaj3xKPEJ3tNMICRlNSbJ69/E9DssafN6JOKAJO3SgxVcrEwJoXQ7PJ5qZaOtt85iFablkDRNgdAy0BSCk4oFzoPr/2OTJAtZL3W5duwZxkpiz70l9x5YFTodABawthR7tgnVOeBkbgQp/PAqED0IY9Bok+3ZQ5TZo4pNz3l81tSa0Z516XYONWOqqvkVW6S65mE5vltCjE7b3yv/OeBUZGpN4Q4AJwfST0/kuq5oUXbc0aV1JVT9mWKy9kcZPZBPb8ldeySzgOjRk4OrBkvLOG9b3aZxbhYjpoHUC3pvbkyjTVKEn4zQrkHITnYGnuNQ7H4ORgWv3jgzwPjeWD0CPPA0djpnHFDos6QSn4eGAlGIuLwUEl9lxfPM1JoAqg05M4Do6KhRani4uDULbFyMB2x8wmjIqVwsPlg3V4/m+PwcZsDDERwFBrg8dZ0abE+ADO1itgI3WUVz4+kEmKC2REhPvWmE0V4jnUQPWZNg168UUdGaYeDgBrpaivpC91Fn1iovaYUsjov+OhBndN5YDw/ksoGUIOBf2fjXPU8CWYPSVl8MczjvpTD69XnjnA5EHbuv0v0/1OEl79bPP+G0cEmqiOWLlL1pRsQMs/dLBBUzwPj2CWdB0YNmvPAyKTQ1akXKuqeMFm7zHa9gCr3XMv2hxdRTbfGmM8NHMSZp3J+6Y3i0BsNh4Qqv5Wn4ulqYjDUqSY/D4wEIxFJfEa96c6L5xEqNAFUGnIetU3PYDXXuKZ3PmO/vrsUjcumNQRvOKu4y84vvalFofpiBId6Xyp2b5gGyJssqH75h+LUfVq16FBlHILbjvJ+AhEsmGFlyMFb+3foKZ29ZTsPjMwLBfV8wsjIYNh4jJK5toxlaNl19WAUYuUv5UaEXzVlHvVL3vOiRzBbGqNEgHZ+JDUbGGKxXjMufCx14WmzYhw3ZFTvQxo45CyrOHtNQBYZcniWT91ygwY/281gVPdaFvn4E/nzwJg+IKjEtHP+0ba+37DiqAXHqWLvPkgnRIZ4I5qY01nWFoiZ7jPqFIzVzS8kmW+WPz+S6hWF+PAymcikDO1SagwdMMoCUtarhUWO9Et6jvJgqjdVSp8NuQu2zPuG9KG/lMX+tL3uEdy2Yo1y2/diISXwPVaVn08YzwNjNq5sojzCxu1y/YCTjMWcp+KBZ2JUUaea/DwwEoxEpELd9V3e3cDsFZoAKg2588CoaOjltOLi4NQtsXIwHbE+XIGtl3MCyW+SYllrpusuo8R4kTov1A2bKOpLxaELGkm6YmFvp/u0QNGhytA/5EVjwQ7Q926TK41TZX0xGHpE77anbVOTRbm1M6VrIBpQB9TQdRd9YOzEVGH6Qc/5hLH7Zo3a8mZNjTdCCWL0L3HsC+ZaPuKKzxhoK+kL3SU3dULtNaWQ1f/Blx30kbzrwjApuuwH1cWfRoRWNWUeuUvesmVZfLBCiQBtHoxSh+ZLtz7Q7OqqYGMcgmquTEzkODxhKvTCo1t4eNER+8cDkuvC5OAFEjnVy9Z6eAq39AoHD78ji53I9pyO34tOPBHIOLB1xQa+tr+ta8oKmvZYR3CxD1bjIqE2pm2kDbHZ8e12nQfGfiJK4DjwKYZZTN0v3OgfOuxSfh4YHRXHpyJFtEYiqp1cLji0wYPGYK3EHsjL1SQ1KzJitqyXrpa7gG/BxtOJoywm5dZ2pLfsLj/IwzusxhN+wA7935A+DVDqGSylldY9gttWrFFu+72BgM/4Jj8PjOeBMXsFDZcxYjOyLtcPOMlYzHkqHngmlp6actD5Of+GcS5CjtCF2M3wMXsVtSIQv8gwe5tOmdT1Yx57yK6LRWS0oLTyEG7Ui+z/CRMdobRc5+MFYTpfouXfDXrYvS6hp1vCrBxlr+LxPbTmKb+gM80Rwzw2SSWlekvCMxsXdraqFSgxHn63bOqJ53VHUV8qDr+hkdwuqMN6k53nJnDhR5uGvCR7Q1IS3aYommpmX0im5cWmjHX7VvFAyhBuCdr0ASapAR1DE6XF+lwZt1YRGyG7rOJ5YCTEBLMjQnyWuQfPsQ5i9C+0vhBZy2jovixZ+Os8Sl/oLvrEQmU+obD8qc4L3myYSdgovvHIWbbyKjfJvMaL6FG35C1blomCFAklArR5MEodmi/d+kCzq6visV2bmp4rExO588DIWphg5pBa8fbakvh3fM8DYz42yyExH50lcOeBUUHQbOXn9sT6M/hMapLzKofi+8Cp5vICGbyeyCVn+zAXbLGiY7HvpavlLuB3clSEGXZVpdytOdKB30gHefhzV3Nw4IAd+r8hfe/TeWAc79R1YBiL3RXkrH+7egGB+VIMzVcPKXeZevFGblUGRoH/NZBOO/qY/fl/GCumzCgPdOepeIKZGJAnuIrJzwNjYrYLkGMz6AljRZgRqsgV3LGF41Hb9B6kXT/mM/brgSIGlk1rWbyJCeP8SGrivB7EHBn6pi8VuzdMA6DOY0MLZ/BChltpdvrQX32Ont4EN3ps/iE0jmIPFJWHnipj3faz+olaosi3XOkafrquW8mErrtIA2NNU4XpBz3ngZH4EJQ1asvcg7fEbPQvtL6I81pGW/dlycLHTltJX+gu+sRC7TWikNX/wZcdZU7YKL79X31YyhSD173x2MWbJadMKsvKIQglArTzwDhjQTz6mnE5nzDO/8d4/luNzLVMKo8VPwWipLGjFwHml5+KOm96ck86IzVFi1TVTNOmjR01U5mf2xPrz+C3nPNWNmUHTiSXF8jgQWs9xtXatWBbo2UW+166inlsX8uQr7ZGuejdmiN9lR9l+bTioB9W4wFlYq/YUf6G9GmAknvfedPXPYLbVnEc5bbfGwj4ir+74HzCmHnimBAWFfit8dm5Y30eGAlDTVZHxNUMeo12D7glnxBzzKd0PmGsWM0A3YjdWDy8qsyYJ5LEnRHbdMqkrh/z2EN2XSwis2xaQ7iACeM8MCbOvY5WuAjuvFTs3jAdkF7AvGmuOyRS76mrFh2qDP09CJSfB8aK64i1Crzh7289VYFNwvgG1K4TWcUeGfEmvuaBYaLTEee3pBKsjF3ixdXJu64maHSv/KXciPCrpsxjf8lbd8+T88DIZqxWCAXFT/mUE5/1Og+MDCJP+iU/D4x5Icl883g5D4y9xHiblMho2SI4t6TGMOFGWVjK7JtIR7qJx9tBPnJtuPMSOmCH/m9I37t0HhjPJ4xPHmvvU39KfZWcoeg/SNeoI+dYxsHMxzPvmBiFRoH0mMqGlc0T1c7NWvjH+gEn2RK3NSpY5bcTdarJzwMjwUhEKkJd3+UdPfrtP7F3Njt23EYUvrK0CbyKtAryLN4ZyCZ5/1cIsgsCBVolPt+pOmQ1Z3YKHEBge5pVrD+yD38ua/qOJWsA1LX8bsIoNHTIalwMTheZz+AMYnmzgm0dyywutU2WlFqtDoLYXoLQXjdv2pTewaC6anWJ6TqD18fBrUMdPU4Yxz/yQXOgtKmKPJPrsSPKCDr7mWd338Ynp10p4texns8gYfuUXKVEy8ad2CEsP+LcN4zgAygTtfHLGnQDszW+yHKD8+SJlrFsX/S0k1ZqLFRKvm2RZk9pyx7/su92RHzRRuvd/9mHwcOWvcrY0y69GRSeq1sWRSArCZDtxKjqyHyryFcmH3VVaMNrBD7JF372Kb/7ldT+5UkwMm7CxngV/sH3fiVViWknp/crqb2QRLg4g/QSLsFRsv8sPQuQy7T5krhcdqqZHyZLhyxxbNd717B1sMQY7XvramW2ythOOttafMfL05zy6b949WnaIT9242XKpjZtF/+d8t0A3E0Yb8J4E0aviRyOTbXavODWqkv9jWCvp/i0hDMO1nXW6U2pl3SiZPPwQmwH+ySG6fatWK1kh+ByO4k46pGb2lIFu0fi4dp+3v0i77horT5p+eEbzBJ9PccWvGNTyvuGsXCeiZiRAfPcYjMaGSoGhQMtmqXDpYdSLLWKIW7Fj140h2Cb2mZEih1RRtAVp2PSur3GJ6ddKeLXsVb0GLRPyVVKvmzkzpUQlh9xbsKYsZmo3YSReXMTRq1LJ22s806KRZkp896J9P1KapK5l/8ZDr1lNP0kyhtI6pv+1/V+E8nXDPKW0psYcmSl59fZ9h92N2FkIjIT6/I5IpV3KJ9Bvf1vP/vvGHFbdhKYHyZL50WwFXWOkcMWJVzFGO3zsZU442Nv2YeJDTEXLyV8nuaUx/dBD390N2EUcowVc4Af0+IXdvUb7ZpmtsG+8W+dbSXjgPSYTpZVpIoNTxCICm+cpXfZ/Si+bBwPwYjlEISRsuZOPYf5tkt7pg6Foi/tM/XC7v4NYyDxiHohqfDCGjRGXuCqFL1vGAVEYbUBeoOdMbVeE5ANsAXGGLlnbeSZpKmfdGM/E4pqfhxaS6C2dustMrkJY+E8E7ECRiWQNWwZjdQZvErVOmGzk8wfMKsS/8gHZUNaceW/3hYRK3awI+jsZ+25HWN8ctqVIn4da7UVg/ZpBNzmsqEPuhLC8iPOTRgzNhM18QKtIFapn2jX+KLMbZC7Dq/rYae6x0BF4iwbYmfc39s7evDsN9sjAPatdw+nfvCwvizrmohn3aCZr+njTRiFUK9vDi73K6mV1H0g0VPi9oEPHidyTKLmF+1E8CaMXnqsqfvvMPaeKiy8dRmZ4pt9Q3q3WttbDJAn2rKxLBYHZas8RHs3zo7XBoft8vtO+bN5dlfa3W3PM4KfrVWLT/s5QNidPUph7t8w1tHbmAhVQOHH4GzqMbgJIzBoWq2Z7WotEMk84QY1aOVhG/T8d/+GcW9CxmhgtjEMepqNAjyYW4/qvUMf6HpsTlrt4Ts3i2rhJoxgyfrPZR4g9VN807bKPhp77NYtdsXyWKD7zoTRMY8+evyl4Eo7sJko4mc/f4SEkUf1mBhvFT47ak7z94l6bh8s198x9lwHe+zbtv7msXWSGS8w+z/9DSP9rvGjT3vu7OSunnmNMc/C3de0s9j6Msg8tI3lPYfe2ztoXFfm+2yjTl2lt4VjdQcGHwv7djx4tzpoYq/+WSArCZDtN2lVR+ZbRb4y+airQhtOuuAVyHr8xBAPv/uV1F4LwQgKNsar8A++9yup2hw6Kb1vGHshiXBpp8oSLsFRsqeuvYAFyGXafElcLjvVzA+TpUOWOLarvdKT11F2YZ/RPltd4syPzO1RXGyIuXip4PM0p/yM4frhj6wSNjgeZFyH7Yr/nfLRgtibMNYHykCFuZShgKq+ppfrbYuZb2GInNkgap566xZFtAJRuW8YDVrOAqoYQ090FV5Yg1pvk1pylPx3E8bGagP0Bjtjaj0zVKi1APx8edZGzuzlSv2k1R6+M6Eon5sw/h4JI7tLjRLjWcg/SwlbPhO92beMMn4rUaAy4s3xnXF+iITRz8mhFwx3IlgJo3aVlSwW70WDDzdJZd+2Y0H9zgljLeIxinoO1mSNXyhjy6DWfPG6p25Z0/BYeR/YId7Eio1j9Bx8b+/oDca9m+3J35+QradfbiN9GLYRlb5rIm510DxLkAAFW0mA7CaMQqyxAI/cG5f7ldQkc/kq6f1Kaq03z5X7P73JFlNbl9YQV2+VVTnKQk9CAbh4fHyX5JQfIap6+CO8CaOQ88RUwU9lYSULiHVA8b5XNlI0lh9aZ1PHEaKm7Tz4io1cQstVeONsW6ta12YEc7xVb1vMfN+E0YjUGeBtctFw1fkmFdGnfSs0F7yQTKuyD0FlQx2bojdhBIxCZGL4xA686tKMFfA5ry2/9w59RLXjSTf2M6FI/FN21tOT+5VUjYWuOtAHFVEwz40+qgyiByWHdZTLIpaiMm77HX/6PL2SKDhA2iFKJor4Had4ornl8clpV4r4pQ8OjBxGRfs0AhadT5EQ1UYFiM3/4iup6SPP7mejQd4cilay2EmjJ2rJ6IVtP3Z9JZXla7wchzXDcyIv/sNPCk6SqZ8HtaztOp797E9/uCn6Euuqi0bEanjagmz7Grcaq9LZrILZtljKzAN7q6gwfUTpkBuvOf7dbuZit7/Grn3dEmO/+gcvafSDj+jx/BK61UHj67Z4BgtkJQGynRhVHZlvFXkD9qirQht+swjPAeDhU373DWP/kiUYGTdhY7wK/+B73zDeN4xezywkLhZnX9o5soQjelD20bUXxM90x4jDspPg0V7qGOKWOJb33vU2XMUY7XvrIoau/girylGufijm4vHxXZJTfoSo6uGP8CaMQi5jKHoTxm+aFd/0b1P/+/X16z9e//zX31+fv/zh9ac/f3n9+usvr7/+7S+vP37++fXp00eda5hB7M3/ef0GAAD//7VbEIUAAEAASURBVOy9ebMlyXHll6+2XgAQXd3oBaPvIXFEglgJECD1RSVuM0MjwQULIXBsPsXIbCSz6R3o7urqRqPqPZ3fcT8RkXlfAeD0H6LMMuvd9Aj340t4RMZNf3nfrasnNzq2bbvRv3vX19ujd97ZPnjzze0nf/vD7Ud//hfbvQ8fbQ+vt+2NB89vrz7/wvaFm+vthadP9Xqy3dmutyvpXV0VtZ0rca5kT/RKiDs6Q69gCqtGUdo6BON8oPDqKHl6R3xAWNChE95WGk34YIo6IuNKXrHQvmqHiavk8zzjSfz2XHrlerHbzakUxmJwB3ceHKfNKtqmKLhpmha5V7t+Fnmho7u69xy0scoIHR22EVuhJap5SyxAJefwXIafHKZ/pKWHbnJcRjj3OCbjFkwJr+60nYTQg5s2O46WT5PP4hfCy1NN7GQkjG+0aUk25ZGJXvgyFGv+4XTjXGmkYkVziAlh58sZF6/0HYP1AFZEFz4lx55fAzX7thXP4NoOrXlIYJmkTcHFP7jyXhoZk3sDT9izM+2UTayVvWnJaE7Ra/WBCCA5tENJxR+YCmmYMP9g55ocw2t+q5gUq9Ysa3RiWifgjpGxly1htSZxfHWHl/Y6qBdq8VA19m73jQNTuqZuN29pY28T3vGs1G30yyY+PXh09VMvGn00r+amclcSMlU6mbc5ZzVXmBw2UUqfto6sA9g2lQay5s18lc1b9w47mjr2gz4Hc99yI9YYlrZdG49O90TsdaGx7fgE1Q7kM2+G8PSWt/HOeN19eH7pdF3W9n3j5EU6tgHd6ZQe9nBlmbGNU7t8lT7+r2ND4wDvvhqOTZyyMXEVc/pIewzo+iUf8PJSw/HS38UCvuIY2NYpH8SaeNteYi23tlc2Clf+wdb9AUGMXMl2jTVjr7GN8aMzMNLrfKBf8ZT+PmYc+EcEHLZpYemO2rqu9Aqlvd3cbVlReFdbtX0914VuPV/06MCznnCm91pOH3nRG1Ns8UKndb0Ywis5dydHXMXJGkWmfHCR9vgmrdFJ6FGGgu07NfHR5xAGfbBu2NywiQ6ZYuOytdWX9UrXEIC+1oiv7NxoMdsufdvomB27LQ+5Gtbj1Fv87NOKeMXJTnkb0F2DvWzIo2caYxM+cGK5vUCGDF7sGMdeDU+vw2Gdxb+3rsYcx7eqrr5GWwDaGc2Rv+qPtmJacfB7NtU6BHzADr3PyR+xuOGrfuc77zWIPbYOa7TjX2vHB3Ll31PgtVV9D8fYwtUUe8U2XsLI2wb9WvMlKwfYkw3LaIMpimXXL/Q5zGc9d3vwaKAngbFN6WfjLUgZNwYFK5U95O7T0KG2zelUa6didLtx8TevNwR9eA+j/rq73VxrH7j+lQbzqbYRvbZPt+urx9vHH7+9ffDRm9vLr7ywffV/emX7zne+tv3Z//a97eHLX9ju3bur+xlskXvtImfBWMngzJGF7M3g4rJDXria1RUvQf2YBmX4VGrZMDJ1WgEo0vgPRRytbB7E4HijExumQlkhtIVejWVs2ln6tlUGrW41LUAZK3vE0RKv2vCzSNM/0tJDNzlORGMck3ELpoRnwVh5zj46UsaU5KVmZiNTVZPXG6mnbyCGCRvoqZ32V53FLj7Wd7/Ww9g6v9MOePRjb/q3Kqe5wDBzGIMA7a8z4HCnFasME+bb8LRzFoyZG2Wnc1PZIbeRibPIyKOnBV74a5t56nmxWKeaxgJnHs6CsYqws2DUjRZLQwuDGxzfDKl7Foy6K+vC8ywYtSD68C7iTUQMFsvgcyfx7IP3oCGPnum0Ee2BE2PnL32AqMWO+dzHNF9kPWxj8c/2GB/rW+aqQzsYfI128zOaI/9ow/2DPryzYFTmMoeiVWTRWDJYNyg1zcZIJkrOz4KRvfosGHu1zFWTm931pmdZUuOGNCtt4rWs6qdWWCux2BallplbiOgE3/34D7WZYMZ2chaMu/w7Pz2XS4orbc/it7Tx2BurQbv7aHvn4E0i8shEL3xlynsy2a77naL2pBnLUN356tXF5OvH6NCO6MInhvJSc8QNj8MLqWM2byBKXqCyofa0v+osdo1ZbMSP+JkTTE471cZajWfqWpWTY4SiufgKIDmMVPxpxcxhonwUL5izYMzcKCOd48qgOvx0/uec1VyZDT46a1vsrG2LdSozBc48nAXjWTDWL9nZC1k0+tENOPfgrJGzYDwLRi2D/E6Qpg/vIt5E1D0WbI25jbCX1Q606Fk/xqbWwIm185c+UNSO/gFfmisbi3/etuKj38KweHEEg83RFop2RnPkXxiBcdCHlbuWi4AP2GH/c/LxOY/zCeP5hPH8SKqvh9xkmepq8wU3rrr0LxjzWopOc7jZAp2brlDEsZLNg4t/9TvlhY5uUXgc2gk47CcaSz98UyN1YvegWKr+8O/dL/y2K8N7v+njsv/FUMxnHKOPuyW2la/3VVtJLI2b+Dm+RU3NZ/ELlZtk7GQkvHuNNi3Jpjwy0VtCrbAksOwsGMkyeSJrzunyztkpcn49G2aMGRs5zN1EzQnzsWBqGnvtNf9g5ywYSTFJqdxVysimePzUol3Wc82V2ajx4ljb6p4Fo/KkNHptq+E2lNzw0qk+klkfzyR/xQfbONHzI6mVO398VHk7P5JKEamXPkZ6fiS1LyQRjrqTqPZtZ/aybFe+AAFxIfrK22sMnNhuA+tjyOqCDbv8I1ywEVpn8c9bXewsb3uBDxoMNkdbUtoZzZE/lNfGQR/RvKs5BHzADvufk7+GQ5LK//Sd95qKTV5b5HHSjv/cXJlX+wMbZU2lmANbkYcPG1A9Sez8tQ10zieM50dSfWV5wWnthLJuOOizpIqef8NIMiojTg+d6u9oy3z1Ck0CdQw9737h+xItqXHhh5YeuutmYYOyf+Qd+4WTjbNgdCqyjyYvzN94qZnZMA+QJ08bqNucBoJOH558t6f9VWevlULBCr02aK9zN+1IVxisVQzTv1U5zQVmkwMRQL/bFl9n2zN0nGLCGOvNmM+CMXNTuaukkSklip9O3pyzmiuzyWXn0zRtsbMOzNKpzBQg83A+YTyfMJ5PGM+/YWQT8c06+4bv7t3QqY5jQeVdxJuI5MGr6fuI1rmNsJfVDrToVTVxAR84SXb+0keDGI7+ASc2MH3YxuKfMcXHcXzRgQaDzdFufkZz5K/6o33Qh38WjMocc8Uc8mNa7Zm3wmSZhJLz8yOpuhc4P5KapcJKqiM3TetNT2TQ4tMqnYnXsqofUxAcLLZFKQy4dUQn3e7Hfyhi2zJN63zCuMu/c9hzmRSZx+lZ/ALkJhl7YzVodx9tWpJNeWSiF74y5RJYJpv9TpGiyV4jprPz1dEy+fpxDKEd0YVPye0LqmPE3f1agx2zeQNRCj5LEP3oyVL87+ziY333G3iZqEVri2ucGXvZm/6tyil6bWsgAkgOy7JjHRjzponyUcxgzoIxc6OMdI5rpajDT+d/zlnNvdngo7O2xc46sFinMlPgzMNZMJ4F41kwngUjm0gKxVDfxGf/zmadPjQ838GX4CwY53bcqZpk3d6bO+9qkswWHLC1a0v2OfkzGFrnE8bzI6nnR1J9TeQmy5SbJbjjqkv/gmHdMrCD+2YLdG66QsHGSn7b5AsRQP0s8kJHtyg8jt4wrBOLYqe/o1YoHRmJneHfN/DhZyNK/0hx0f9iKObZUA68Yz/Q8wlj5Xne1HdmmMq81MxsmAfE+V2Lv4FA2ocn3+1pf9VZ7AqVQsEK+O5jnbtpBzz6sTf9W5VT1kDbGogAzoKx5phvRM23op7fkrpb9710mtc9Ea+6hea6yBrjlsYoMeC5uNENan1MtHjwuWfNRyZ3fXW8tgUAw82w5UPnLBjPgvEsGLkwUyiG+oLRdcKx/g7SfU5cSBxcWH3UnUR6l5T3oL76p571p41oDZwYbi+QIYN39I9wwe7sLf4ZU+wcxxcdaDDYHO3mZzRH/qo/2gd9+GfBqMwxV8whP6bVnnkrTJZJKDk/nzDyvnZ+6U2vFVZSHbnZrXvX9fKMPMjSmXhh62d3tdtCboRRLUaMTJ3mAAUS/6GIrWqa1vmEcZd/kpQdPCky7zfxC5DCBntjNWh3H21akk15ZKIXvub8Zb5TXKVoslfpDdWdrx4Fk68fxxDaEV34xFBeao644XF4IXXM5g1EyQs0Apr2V53FrvAZU1RjKHNCf9qpNtZqPNO/w3HsHWyTgQig322Lr7P4A9POPUz80j/YOZ8wsgxISuWOFFWmxOOnkzfnrObKbNR4caxtdbMOLNapzBQ48wDGdrPOPZdcTxjsWYx/WPDLBD21iTmMjj/dBRtW6XdPxCNZaGy3Z8nBCiUGvLNgnLkgH3nNvByKaSXOGE7g1c9/ZUHRjd5ZMJ4FIxd1CsVQX3ReNXWZd9PEV3CvqR1OdixbwUubvWzIfecvoWmMTfDAibXzlz5Q1GLH/N67Ls2VjcW/ty5s6PC2V82L84hDNkcbHb+Kc+RfGIFx0Ic172oOAR+ww/7n5ONzHuyu+J2+814DxjPVotGO/7wZWb32pPNvGJUz56NSWsUvy7OSGEpu678GOv9bjXnvQFK0yr3QTavjhWcmgFqUdOHzj/9hiZ86KtG0s5Dr3mQAGoc8zdKZ+LJn8cC0i6kURoy4v8Btn378h6IQnMdmC2fBuMt/58QkyXKHU8/xBb8A2ZewN1aDrsrRpiXZlEcmeovNMW+WyWa/U4CN5m4J7nx1tBgxXjGGdkQXPiX3AoHqGHF3vxZUezZvIErBZwmiH71EG/6CzpiiGlHmhP4aZ8Zuz50PMDbNqZI2Y0DIEUByaCbzsYzTvGmifBQzIz0LRvJDMit3Mzvi8dP5n3NW68Vs1HhxrG11sw4s1qnMFDjzcBaM5xPGs2A8C0Y2j9zQhu4KsWzW3mh6ywnvWLA15jbCXlY7EBtUGzCNsak1cGK5vUCGDF7sGMe9ADy9Dod1Fv+8bcXO8rZ30JqY3fYsFLoZTeygvLbpj2PxF968qzkEfMAOm5+TH79Fz4Kxf1s208JaylRA1R/Ly/2GAvNLOYTPrIu6Tb9lg8IahuhQ6ZwFY9+UKCEcyqEXuml1fIGZGUhdcpz5dxaM5GyXoOrvcli5qxUqdMOHnldt+F7NnozChR9a/tDNjWmsY//IO/aDPT+SWnmeN/WdGeYmLzUzG2OK+93NfM/jQCS1ZaDneNpfi8zFLj7Wd7/Ww9g6d9MOePRjb/q3Kqe5wDBzGIMA7a80dbY9Q8cpJoyx4WnnLBgzN5W7ShqZIreR1TxFZil5zAvB2lY36wB22ekGsm6eBeNZMJ4F41kwskHkhjZ03ilL6g2DTaMO7ynhLTfCvo8I6BbKe5B1kUXPNMam0sCJtfOXPlDUYsd87mOaL7IetrH4Z0zxcRzfhR6MBU8X3YwmdsKHXhwHfeRnwajMZQ5FvfaYT3g56galptkYCUSd/5YZio76u+VkXhkq27QxAtGpNr8CWNQytwszlpd1GgrMr7NgdEbqBq8vPi6L9YoQ4vb+AScdq5lWxxeYmZV4+nSLngUjyaiMVH5GP3zTlvmqEZoE6hh63v3CZ5VzpH+kM/drQVE6Z8HIO2UySE7cJuH6qXbTRrF/7Q76eak5bAXnyUuxhuZA0OlD4MZP+6vOXiuFgpXjR511fqcd6QqDtRrP9G9VTnOB2eRABNDvtsXX2fYMHaeYMMZ6M+azYMzcVO4qaWRKieKnkzfnrObKbHLZ+TRNW+ysA7N0KjMFyDycBeNZMJ4F41kwsomkUAytO+/ajY4FlXcRbyJsNGlghX/PPs6CcZ+bs2DUamH5uPqCqNPtkam6Qall1mJ0WGfn3zDqXuD8G8YsFVZSHblpWm96IoP2PZVapTPxWlb1UyuslVhsi1LLzC1EdILvfvyH2kwwY6vsQis6Q17o6M6Y4fdYraNTjvR3NEKumhSADKH1zoJRCdKFtKQxGUvuK1XarlPsCNslk9fCUJV8rsKeJYwYL6uhjbrwiaG8HFVHAo/DAbUP81ZvBbGBxk/7q85YPVbImNyJH7uanWlHumJjzZ6XOwOjOVXSahzqjggDSA7tUFLbc2ecYqJ8FDt2zoKRFJPMyt3Mjnj8dPLmnNVcmY0aL461rW7WgcU6lZkCZx7OgvEsGM+C8SwY2TxSKIbWHbp3lvMJI2lYt2d1a7ut/bTOnasil+eDPoCzYFTmeDM6C0YtBv0fjHfO/4fRV5aLGa2N0FxN9LnYip5PGElGZaQzlP6OJnvsQEKTQB1Dzzfw4XM1cqR/pKWHbm5MC8/5fMJ4PmFk6YwF5qWRFaUlg1A/xRlnsQbGGtOE+W0umLNgJD8kRRnp3FQG1eGn838WjP0JIt1cnN+SWiuEa4iXiz7n5ZAb8YzhpINi4PzSG/2nwZuKRP0d0Y3pWTCy0aRQDD0LRl8yuy15bM8S0ea+iePIN/N40jW44kqvL0xfpYvCATv0Pid/8aCm7u9qdxjsvNfA8Ng6vNGO/7wZIWePgWpTNuVk/sxP+LALX5hpt/pee9EHy1G/0W7bVrd9cnI+YSTnv+VbUv/p//jz7f5HH28P9S7xxoPnt9deeGF78fp6e+HpU72e6O8AZYDFcFXUc6ebDuddlLKMvxV0eeaJF8I3fUZ6juoeRRiv1FCLFvmxf8BJt9XtjQ5e+clBn27Rs2AkGZWRzlD6O5rsMW9Ck0AdQ+8sGJUNXUidFyenT1nP5JmM5SlM7Umsf7NL7LbsmFkntzGin2o3bdSFT/zkpeawBY/DAcWHpOGXtM9iNn9nX/Mce6EoZExWXuytbwarnYzdNrr4Q9eqnOYCs8nhK4DWKX1DRlwesXCGIlJj6Ksb39cABghgHcWqNe71PTCH+TW/5tNjI2buC0Wv/F9caMeD+o9ti2cPYPivMPpVmNJ1vmwHPfGW9tUdKaKjnx01D/34bT3rEw8vTn24D4uGMjNEZEkdfho/56zm3Wzw0VnbWOt5sVinMlPgzNX5hPF8wng+YXxGwdhFZRWXd3WZdaFpqjYFp17exGqzUV/Xly4uX1+D9j6tG+HiFwXbd2riY5tDMvTA9o3zagud6kMBLr5o+6UTliBjkyjcjW/qI8eGXt5YoOEXLQM2ld8JVgeztBq2w0lSO8yA7hrsZUPe/ko/xiZ84MTa+UsfKGqxYz57dfNF1sM2Fv9sj/GxvO2tKm4Hg6/RloR2RnPkXxiBcdCHxQzUETq7t9o82BiY35Hf1oeT8j99570GgMfWotGOH68ZgZAr/56Cs2DclVHj+u31meuL3PpLb9g72GN083Nz8yttI3q6qNfNxuvj7dHjd7YPH721vfzK89tX/90r27e/87Xtz/7su9vDV7643b+v/agn/+bm6Xb1RNY9F1K9p2Lw0TvvbB+8+eb2k7/9u+0f//cqGF/WpL3x4IXt9RerYHz+yZOzYPQKVt47m6ZKrHM7rq70LxieS5+i0xzMgS6zvSmV1T4jj71+Mhed2GjDexst7LgxMe3gsPs7uujIWNlb9Lz7hd9XPFZlw6gdLT18Jmexzm5w5B37wZ5felN5zj6avDB/46VmZsM8QJoUv/H3GRZH5rR7ZUOdYd9zWFL0h11jlt6CW+du2Gmbw8byztnLZAbTtob1AKBul2Qvrxg98uCbRQzxOwqXwJtaRcbJB2u0/CCUZgmnhvq2CR8F9mPRZxWMQG6COwvGWkO37R3kSIfn1bl1t07gW27EKl/aZUEq5nVPxCt3oZnfrCFuaI0SA958klZ9eH7pdP4/jDxdPJ8wcjPmi/+mC0HTe1oofYO20IsnjEsxWBuIbAh/tRaPxmBb9rTh3Pi3Xd5sdOPnxVzXitYka9M31LfQs2B0dpyfzhRZGgdXfg63Gw5vyOD1DXnx672iEg9nHtbRXhVdb10tXt72pkJk4chXdGHRjrUjPyo7etBHVgUbrWVw3b3V5sHGwPyOfEzPw78uUHf6Xu8RPLYWjXb85M0XufLvKTgLxn99wche5P3pM20ln2gmVCzePN6e3ny8Pf7k3e2jj6tgfOPfvbx961tf2/70z/54e/krX9oePLg33navLwvGp9ujt9/dftkF4z91wfhQk/bV555XwfiinjA+3Z5/cj5hzOLPwjfVVeULa1xd6V8w5rUUneZwTwS67o10+VjVp7KNbLTOgnGXf+dw7Dyd0ZBn8UuefQl7jVSifZvZBsSVbMojE63piSPTMW89f3kKAzaaTONQ3fnq1YUR42UytKO78ImhvNScY3A4kn3OghH/bNhtDpIxmYXvPjIndNc4M3bbWN45rerY20iT4SsAY2y1PKk/MMXBY+WBZFhvYvyRVMnXmKJW0LrefH21LtorvmKXluTmM0e+h5OWn/ZdPmEEUgVjY/NUsHWdL7drffmiByPe+YSxZ4j1Qo589BynC+12WO4HL6ZX7kKD93xK/SwYlaG+vrkpq4+Tkpf9axbSZ8H4eQvGepKYG7mVqn3Fk8YqItlg/MTvLBh99XPSzphLePDWhvfOMFxlqGOaKz7CsXWY4f1jgYz9xBfCFNg/wskaBq3D3t0cb11LewAPjeCxOdrC0I61I/9goroHfZjzruYQ8AE77H9O/j6us2Cs30AuWWEtZiqg6meZjk0XODC/lEPjNUOibtNv2aA2ZSDakrOv1OuKgvHqMzGrYHyqgvH65pEKxvf0lPFtPVF8fnvjqxSMf7j94M++s73yigrG5+732672e9V+fsJYvzHVE0Z91HRXMPZHUusJY30k9QuK/vxIqmeCk2/qBtVc+oIbV136Fwzr+hSd5nCPA7rudbRNWNWnso1stM6CMcVJqK8gclkpo9VHX0QX/BKnKMDOuNx0VY42LcmmPDLRW2yOebNMNutqNzaaxDhUd756FBjRj2MI7YgufGIoLzVH3PA4PC64w3vYpnUSuPHD/tCXJpvags6YytAUzLmQTvQlpo2FGs+0ZAinStqMISYDMAZm66o/rQQszoqfaH0io7yvMUXLKlKslKtXDGuvePtDppf5KGg/RvEsGCsvNY2VwOSLtVL5Wue/8j1msRR7fZQtnevg+mm58T0HFi7t8iqued0TsdeFZn4dn+BnwagM9fXNDcpZMPZNFkWbLnB/xLwudC0WLviSFwVDcQf93Z8wngVjX30suD64zNfDV3B4K04XcF/dK3y0eQ8a8uiZxtiATpxYO3/pA0UtdszvvevSXNlY/HvrwoaO4/iKW+cZb8fRQvgZzcCY14AjUUwrDvG8qzkEfMAOvc/J34d0Foz/nxeM13x6QXvW1a81NVUwXvOEUR9J5Qnjo4/f0UdSn9ve0EdSv/WtP9h+8KfHJ4w329OLglFPDj/yR1Lf2n76d3wk9S+2B4/0N4x6p3/jPgXj89tZMOZSqAsvN8emutp8wY2rLv0LRowYsEj7hlXsNhSKQnDZPNjFVr9TXujoFo3L3jAEnnbKuPvhmy46MhI7Q8+7X/htF6sO5EjLH7rJWayPcUzGLZgSnh9JrTyvRYwzQ87zUjOzYR4ATUrdqvcNOzwdmdPulQ11hn3PJUDx9IY57Bqz9IIDuhgddtomFqy1vHNalVP02tawHoAxwiUK9QcGtg9xVrx4wZwFY+YmOSJhZEcJ46fzP+es5spscuq8Nk0bCz2XZulUZgrg3Kt5FoxVhOnTVM4jxNdTX1O0kfn6EOVJHh/7NE4JhbrfMuNsY+Lq6V/6aJQP21KbItAY+JZ1DI3L9S23xkKNC160fBBr4o2tjhUFHR6PtDOuxOBbR5YGthlf+6ixVr9+gZ1xAF3Gj2rno3xgp7D7IrcM60wUPR5acPI3gZPWb+GrOLxx4XcWjGSKNwLnrNJJMmvOTI1wvy76ec2ff8PInU4dbI9ru9kXJBhyPNpC0Y61I//CCIyDPqy6gloIyXHADvufkx/zRXMFy2gfea+h67G1aLTjP29GyHu/YKPkmq+FCJ35CR9x4dWKHCYAfkyrDdQHvixTb6HOf8sKh1wZFQacj6VdtuFiBKJTNl6Dm4eMozG2N/qWlAnJsVlvsxWj29YrmV21Aftv9Txd5O8X/YmFtWDceMJIwTifMH5VTxi/yRPGP/3O4SOp2kNTMOL3Wv/8hPGdd7cP/rv+hvHvfrj96M//wl96kyeMrz7//PmlN+sVpbxl4ZtKZvHApH/ByHQasEi979LPTVcoCsFl82A1rX6nvNDRLQqPg9nWIfC0s/TDNzVSJ+nISOwMPa/a8NsuVh3IkZY/dJOzWB/jmIxbMCU8C8bKc/bRkTJynpeamQ3zAGlS6mapzrA4MqfdKxvqDPueS4DiaUMado1ZesEBXYwOO20TC9aq3U/cdunY20iTYd19naBut0TtgbElTuIYo5PpxJwFo1LiuUmOOl8kip+etzlnNVdmk8vOp2naZLzn0iydykwBPD9qngUj77FVZJE/8uLrqa8p2mfBqPWmxJwFI08Czo+ksjt5F/Em4gsGlg/fR6RzC2Uvqx1IQhYVh2mMFYvzwKW9QIYMXuwYx30MPL0Oh3UW/2yPsbO87R20Jma8hTUC3YwmdhCt7YYWWfyFfxaMylbmUNRFFfMJLwdvfJaJsVDy/P/nb0l10fjMgvHx9vjT5QnjbygYScr4SOq1vjL13tN86c1b2z//kILxL2fBqCeMr+oJ4/k3jGN1uZGbLFOtLBbXeiVX3+dSvAWwSL0J0c9NV+hqNpuHJxBA/Qy3Za83NHHLRrn3ldDGph0c8hNboYuOjMTO0PPuF36uvPSPtOyjm5zF+hjHZNyCKeFZMFae5019J41Jz0vNzIZ5QDR5dfvfBRs8HZnT7pUNdYZ9bHKIngVj57Xz7ByRQN3fkcjzI6m1TmpN1cLxOmTtaK+ofPX6u23v6MUYnbF2vf7EbblnoecA0bruy2t43cM/V8RCY9u+BOd34EaJAW8+Sas+PL90SkGz66uDjyoC1dbNiOXoWecsGOuX7NqHKtUzV+Tb+SJ/M7/FI691uzv6WgfOrcA1T6V/PmGsNUcSyU/o+aU3zkZdiJUZsjMOlmMOtxsOb8hqwQUmPvcx6i7YCK0jYXTZ6tZ2cEcaDDZHWyDasXbkH224f9CHV1cMrUPAB+yw/zn5eJpHruDpe70H9NhaNNrxnxsR5Kxr6PmE8V//N4y7gpFvR/1EeycfTf14+7g/kvqQj6S6YNRHUn+wf8JYb72ax8+uVSqqWEzB+PG7esL4JgXj328//ou/3B589Hh7qOX2xv3ntnrCeH7pTV0ItcKz8M+CsfLhrc27ji79Ha1Njw0hOdttKAUerEtMic6CsfKcfXQmTC3y3Tt+ZiN9JqNuI/pmohX3aZdy9JumD81NcHzmyZL7wRPCYnSNkzbeHZsLhrJkVU7Ra1v7MYhpDDotUX9gylTJrN/4iT7/hpGUOMfKmnNE0shg5SrzNues5soq4KOztrHQc2mxTjWNBfb8qHkWjFUI8RSRPEKquKwc0z6fMCoXSkwK8lEgKmHka/S1wJK/s2BkIdV6Innk5UjPgtFZcV46U2RpHLVTVdfthsMZMniuVoLr+5sFW5LW0RqN7lkwngVj/WYrK6TXUtZOr62xvNxvrNrweX+ot1mtKvXdbhwy7wFtwP24ypfeHAtGvin1hqIxBaO+9Obl57bXKRi/+Qfb9//029vLL+u/1dC3pN7Rf+3F/+7F7nL1yWefVcGozj39DePH7763ffj2W9vP/v4fVDD+lf6G8fHGR1JfHwXj+f8w1lwwW5q4ujsqqrn0JpGdAnmBONdxC2CB+2aLfm66QlEObm5FmkAA9bPICx3dovA4Ku7SiUWxbSO2Qq1QOjISO8O/V234bVeG9n7Tx0X/i6GYZyEeeMd+oGfBWHmeN/WdGaYyLzUzG+YBUX771nTKio20j5p3OsM+NjlE2YiGXbFSKERuCnSZy2HHeOJqG7X7TVXH3s6aDF/u6wR1uyVqD4wtcRLHGJ1MJ+b8SKpS4rlJjjpfJIqfnrc5ZzVXZpPLzqdp2mS859IsncpMATw/ap4F41kwnk8Y+8tx/JGE/hIK2uNvJutvKP0RsvMjqWxOteVkk+8b4uJzL/Hsg71syKNnGmNTd+DEcnuBDBm82DFO9hEuWPV8WGfxz/YYO8vbXuCDBjPewloCP6MZGPOG6r6x+IugfsVC7xDwATvsf05+/BbV/Z39Tt95r0HusbVotOM/b0bIlX9PwfmE8X+4YLzS3zDy/zDmv9VIwfiR/h9GF4xvPNy+QcH4g2+P/4fxDv8VmA/N4wcff+yCkVsDF4zvvbd99PY72//5D/+w/eQv/7oLxjsqGB/4CSNfevOi/r/GF54+0VbX/x3sVVHPqS4U5pg/TOdbedgWof4MMIvGV4yRDsEXHRjHFNrxiRT/2D/gpNvq9kYHr/zkoE+3qCNa5MRTRxZy4gk/dMZTOhNf/uxy51eaU6l97gFLz1D68R+K/+BqJHDOgnGXf1LCGuNIsqqn87P4Bci+hL2xGrRWR5uWZFMemeiFrzl/FQfXRFnytRGr0huqO18dLZOvH2uGtu6FTwzlNUc7HXhcWErcNW5czEOd7g/7kYueBeOcC88LuSGB50dSvYS8VHSqNeXeXLusb1hZ574euJ5QrWujO0Mna7GMCzMWK21sWbJrh1Xy7ol41S80uu1ZcrBCiQGvnlzlqV/x4CPPE7BdXx18+BqhLaDlQ+csGM+C8SwYuVi5NjhC1XCfk7eF0etLPOIVJzt9dS/o2eR9esijZxpjC3Y2S2eBTBsCxY6aWPd2tGBjxjqLf8YUO8fxRQcaDBvHaDc/oznyV/3RPujDn3c1h4AP2GH/c/JHLG6cBWO9oSxZYS1lKqDqj+XlfmOB+aUcwmdliLpNv2WDwhqG6PALKb36CePV1RO9D38iwaf6xIa+9IYnjI/f2T589Pb20ssPttdff2n7+jf/1+3731fB6CeM7FnEVu96V+9/8IGb+UjqYxWMjygY//Eft5/+1X/Ynnv0yfayguQJ41eee87fkvoFafBfa5wFoyaub2JMNZe+4MZVl/4FQ5PQR3TS7X6Z7U2prPYZm7F3Foy7/DuHvqo68Uky9Fn8wqRAwl4jZaNu+hqhPvMReWSimY4C+pz5q6mSTr9TgI0msqG689XRYsR4mQzt6C58YigvNecYHI5kxA13eLeg4mwMBrChY9jvvv2zqZW4MUsvOEkyJ4CGnW5jwVqdDzBW5ZRg2tawHoAxaLRE/YGB7UOcFS9eMOcTxsxNckTCyI4Sxk/nf85ZzZXZ5NR5bZo2FnouzdKpzBTAuVfzfMJ4FoxnwXgWjGwiuaEN9R2x9hGO5W2h+pyzgS83wtwD1Q5j2MWJvWzIo2caY1Nl4MRye4EMGbzYMY57AXh6HQ7rLP4ZU+wcx7eqBoPN0RaAdkZz5K/6o33Qh5+7louAD9hh/3PyRyxunAXjv5mC8c4TzUj+hrG+JfWRCkaeMH75YReM3/j32/e+/60qGO/f9fV6ffNUeprHd3/xi8uCUd+U+nMVjP/81/9xe+7jT7ZXVBq+do+C8cFZMK5XlFKYmyxTySwemPQvGL6MfIpOc9iEQHszYpuwqk9lG9lonQXjLv/OoXY6jkpZtX1+Fr8guUnGXiNlYy2Q2EGZj8gjE73wZWgF0fOXm2qw0STGobrz1ds6k298maq4+jwUK34bgtf8OYbIiRvu8G4BLuahTvTDXyhv8MOulDIm6wenTuYE/pqbjN02lndOq3JKMG1r+ArAGFvl5FgHpjg6i7Pii2PpWTBmbpIj0kIGlTB+Ov9zzmq+zR65L3jWiS30XI60p9HWwZ4F41kwngXjWTCy0aRQDN0VYocN3VtJeMeCjc3nGQd7mXWRR880xqbiwIm185c+UNRix/y+N7s0VzYW/2yP8bG87WF1dwQz3sJaCj+jGRjzduqzs/gLM3ctNZBwRQ/YYf9z8hcPdlL+ZbSPvNfQ9dhaNNrxnzcj5Mq/p+D8SOr/+BPGFIx6ynjN3zDePNpGwfjSg+2117+8/REF45+oYHz4he0+BaOqXR4oMof7glF/w/j4/fe3R/q/GP/ln360FIx3VTDe31558GD7opRe1ISdH0mtFZ6Fb6qrzRfcuOrSv2D0ZeOrpXSaw80ZaN+kqRWKOFayeXC1r36nvNDRLQqPY1yZWC8WZzXd39GIuXoTS+Osg63w2+7ohx9aeupVzDFt2uNYeMnrwnLz/BvGynP20ZEfpjIvNTMb5gHS/NXt/77o268NTz7oWehhk0P0LBg7r51nzwEJPD+SmiXidVJrqhaO1yFrR3dKla9ef75zyt7Qq7UXY3TG2vX6E3csVtq1JofjcjdVLJ9Me1U3NMD2LD5YScWAd34kdeaCfOQ183L4uC43c+A4mXKbgY3CoXcWjGfByIWbQjF0LBqtkWNB5Su419QOJzt9dbPcLg7uH4Z8LkrhYmyqDJxYO3/pA10Xt/m9d12aKxuLf8YUH8fxYTpHMPgabQlpZzRHfnR39KCPrAo2WoeAD9hh/3Py8TQPdlf8Tt/r/Z3H1qLRjv/c6Fi99iRVL7UUmFfzZ3481TrBBuQ1ps60WzrFr/aIE1+w9Fqp898yYy1nHRdu8twaPssIGAFr8ysAZ3joc9hOj2n0LbHMUJ1q7VSMblsPU2Ur11OoLRw/kjoKxv5IqgrG+kiqnjC+dH97VR9J/aOv//4oGO/d5+aG2FQwyvXVex/8Un/DeLM91X/KyN8wUjDyTakUjD/7D/9pPmG8+2B7+cF9P2E8/4Yxs6oE9k2MKQlF5BON9C8YJWzAIq1JQa8NhTbUetk8mMjVb+wUFWpnw6o69SqVbNoRO/0dXXRkrOwtel614bddrO78pl966lXMMW3a41h4yevCcvMsGCvP2UdHfsh5XmpmNswDpEmpbbTOsDgyp90rG+oM+55LgOJpnxh2jVl6wQFdjA47bRML1lreOa3KKXpta1gPwBjhEoX6AwPbhzgrXrxgzieMmZvkiISRHSWMn87/nLOaK7PJqfPaNG0s9FyapVOZKYBzr+ZZMJ5PGM+C8SwY2URyQxsqhnaROpa3BTO8i0S84mSndpho7il72ZBHzzTGJn7gxNr5Sx8oarFjPvcxzRdZD9tY/DOm+DiO70IPxoKni25GEzvhQy+Ogz7yKthoMZDlOGCH/c/JXzyoeRaM/xYLxhv9DaO+5nT7+GP+hvHNZxaMrHMKRr78RgWj/oZRHQrGu0+ebJ+8/4uzYNQS92YwLvO5/ItPvy683GSZKrG+4MZVl/4FYzHYmOZgH3T8hyKOlWwevhBbwTqxYdobmrTKRguzYdhPLJZx2w3fdNGRkdgxDpF3v/CzEaV/pMTf/2Io5tlQDrxjP9CzYKw8z5v6zgxTmZeamQ3zgCi/dfvfBRs8Hfu0z0kf9rHJIXoWjJ3XzrNzRALPJ4xZIl4ntaZq4Xgdsna0V1S+ev3dtnf0YozOWLtef+KOxUq71uRwXO6miuWTaa/qhgZoXzLCLY2lYsBzcaMbRP0y2314ful0fukNeTnkRv3kR6nyXnE+YWRjUJGo3/LfmJ4FIxduCsVQMVgyPo4Fla/giFec7PTVHdUd5f5hyKNnGmMTPnBi7fylD3Rd3ObLPuBLc2Vj8c+Y4uM4PkznCAaboy0h7YzmyI/ujh70kZ0FozLHXLEG+DGt9sgdb1CWgQNT1PlvmbHms45LPnlutW3aGIHo9G/lCaO+9GbjW1J59Zfe8JHUD/kbRj1hfO01fST163wk9Zv6Epz6SCrxUyPevatV+I6fMOozqioY7/z616Ng/M88YfyP9YTxZd0RvXr3/vayvimVj6R+0R9JrS+9YStkMfIFOM6JqlDn1hcMy9x3U73g528axgLWbPhi2NFKvM/mr/2+dHJBLldgioxJo8eUlx9ayPn21nkwq3VIpEM+mjZ7EPMX1YIlJjStPvFwFvwRsPdD4WTv7V/tAthemWlf7cc865ReHMdOuS/NWr2NaJ3qVccoKe6oV7xQ8C1Y/KRvSg6LkZgnjRdsY0evCZewOrE/0G2/+s1NHJJhq35Cg5zzueNgb1kvkZki4+ggyoLO4s92xQ6M26PwfSMMczky9mHP9qUj/9EbscMZfsqIMegonrSHntjhDZfG0lOjx1h4WPCQVdSDb5EFCOtwl2u4Uc6H2uKz7y3RD5tW7LxVG1HZTW6shw3+WbRGITy82DCuwtnZNmbyp+3wymbMOOYWIWFM3MR2aOI4kCiPNGVd2ZohGXVD5cC+Ew9fOy3eFb+B46XfakDNa77x8NgOB676XisEbd3Smxgp2Fbp7dqtw3+SVP7kEiwHMjdD2VuIjTngqHMge6wByxpQP2ZQ6FdZANstMMg4RqOkXk+S3dypXBoWrOekO+Et1BpLv+z7PGKx2CdiUYOfjsHR+bpTC4xxiqUpluqdSZ4EAV/v8bNfBWTLhAAT3vj/AaVUuuh1e9gSPjz5HXLzwCPHfrexv+LdD6Zx4bWOYxo24n+xJ1zdt7CnFH8XR3Tb91osi9W6HZewVRB2TqybdvtW/B4DdOhX0gXf9JtqRSFq3cbSB9tjR4/D+ubVtRc9YnCc7SO2Ss4Ze/hnvD6Lo7uW/qgW/0ehC7qL/9qC4o67hFBfuOIVHlmKwaIUhl0QDlutc3NP3hd56+beaOrtbbKP5L/cIM4bfdOh/dJWiwVcVE1a/rmk9f8wzjs1qwZPTv2CKxM2WNTXxNIvQMuOOuv1Tgh+lbJjV96K4sSe2hf+xyVpWa0Qe6tLdcFHBtVuVqBbzpYnJg9KRtrOEb6zssZiHzpZD5pG+d7pLUaLX3stbN5Kg83b6gIfzWDwN9ro+1WcI3/ENqxUY8VlAL1aDsju3uLTktv44nGsPtxufknnufwiZEX1ocZu/rSWSyZaUAMrX5KIxzo1HRtT9SsHbdmsxhlfbUvV9BzCksz28KJ+ycuG1exD/SGbGOT2qZh9dD/XYMUjpvlF2evKR6kkjqlv7dYRF10O1P2SvnkVE/ysJY+lNnYrOL4YyD73tPayK30k9coF469kN9+S+u4oGF99/fdGwfjw4YvbPX/pDfXhExWMsvHfP3hf/rSR6nVf33z6yXv1N4x86c1P/1rfkvr40+2VO/f0N4wPtq/om1L5bzW+oMG/qI+v3qXqVGD+/Zn47Gfk8FoXquMkRbR94bIg6g8ns3WRDyHqDNT4SVtiRAOLyJ71Stny6hfD7oTYY6oPzzdO0LJc5+7cFsMOJlxbHgZyY1J+y/5eZ/XkWZ/iVgpi2CC6+hF23w4GI9azWFG5U6aJsfqrLouv/A/ZwUa5Kp3VPp5iH9s+QpoWU8gGGheMhPTrX8eNwiKPA7P61OIyrU7mDr1p361hq8BDxY26tusqG+0VSHsOsHTMc7P69skaJ6q+wENhjaM7xrP+EQjfV3hojaGUPCuLjbVf+ljoQ3ZGG8vtx7lcbYy2AYl0xIG1ztzMncY2bEdfFI/wvXwO/u23jHHWUf6q3ee2gajGP7wUgJzqZxzGp1cyp90n4tGxw9BfbZZOLOCzbhczD2PkgXTY0uNocumjxJ6TxLwUei4Yu4DzWjVGxvresah8t04KPdZetYm7XrHlIpFCkJd+oF6D7ree2r7ugvEYGt/DQRXTnT0aOvRGVMz2W1yfM89WbP6uXfnmHBPEV207Uqe8ec5pM0ctwmL0bCn8laJTs116ljWncbYRHRuN3QCWGLBltk4ttm91sEqbNe73X97Tuo9ktsveHhNdUenTK3rEio9f+wimaIqk8t/+CmrfuU+KX2JNTCmFjJGB+ic3bqfgqljQ8wtZy2e/ZNiLv4HHnzroJIYLDHL+NY52FY1ll6Tb3iI31rjSLZuLf+ULHj7tN/EnnugmLvWxyeFYfOaLGxyNuDLop35NmRCKPG5aXNj1xdoFYBV2FIPhr7gqBKuwjA3JUzSio/aNisZt08u07VjW7faVGIZPx5QCV7lzn3j10jHG6fFm3JOCuRaWOy9ovXdFr3BeA50vpYqftos/LFTf7ZYjoG8xp76Q93hLhWPOy9YsGqUfw1COgjM7PkybZ4aMT1m10m+VQVYp3iuuqT+Ai/3VlttrPBlYKyLXjjvMpLFyIsc/P6vsAn+L3Pjmj/seFG/B2p74OaavYtZyWQABNo0vulO324u/FXeBfYZ5j19BFy2H4z3HXWVq6HY7fVN5XTYaTwUnZEec+GYt9KqxppK6W6e9DWLBLK91oxGb/xZwjN0ONBpoXkPXwuKbp743LxlUs2xMDNeeDxG3OOVl/WNfFgxc+LIxYpGwTBZlX7pRsXjzlB3l/nbnrr7tVAXjdvUrhVVfevPxJ+9ujz5+e/u9l+5tr772e9vX/uh/2b77J9/Qt6T2l97oG1IpGO9QMP63D95Vrai/X9S+9bxiePzue9uHb721/eyHP9x+9Jd/tb3w6Wfbq/qG1NcePLe9+uD57QtPq1ikYLynRPh3Z4rwnl4UjH6xR2oDuRaleAz/jjAuLuWHQtOHM9iJFNbdUABDXg2Jijn4E1MSCYKJaMHS7O7uxqbsStaNUGz66Jh84cZACbJXLroIBPJPUUM5KQdjkRRqBOTRH+DWa9+0y79AfbiFfOhVG6PwTAMWLd9cvEPB0mGHXvyVgWnHoMXi6NsEApQb3+0inL0p8PaI71Y137Kd7sHGTlYqGVsMpN8hhz1i8lXmG2Dl37uT1l/GJ7RXY/vZBdeB1obbuOC5OPF0mx78PrJZm/qGeb/2g4NOe+p0fOHhTcunUPLZVgBWDGscboOtI/EDLXucJwhXZa957k8P6NPz+hnY2GpLMjKs2oxPFQC5p9vjL8t19moIVLS4peY2wfEjOuMUrnXYa7pZSpzFWO3Q5zMQ/NuBLxRbOeQol6+KqXwQkPeKLtgcI22KRoL1C6yuOX2kg/tRf6xacgq/4CcOHcbWNtiksYEuxSB6La8CsvjG+OJSHzwu2zfxErVTD3UfRGeo4ANvBwZNuVe6eDX2ybcxTA0btNOBXflKocgTRh8TssNHNv0Jb6w5t7TxVy/D2m5iCK+8sgbjX5IIm+KB64t7hRQ5LsTEQysF3XovUfcxpRd9sFwnRVsX29jgLH/4mfhZVMVffKzU9x3YbjtFY6viMx7fetHmAGdsYqIvRsZT7wkThyz4+K8+elXIDT+ylRwwMHB+GVdxDPsRGjdjjE3nw/Yq9hGf8Ph7KpuOIz4WbMVcsdmOgIUuikX+lWUmXLF6UwvtgnApGvdFIPIuCEchufCQWQ5l1XMx9osnjBSKN/f1gi4yMMNnbCCnjSy0dBKzF5EQ7jNSErNQNfnxQbGo2zb92ZF4bD4cnUvPTbBRsLjm0lhypUm+ZqJ9kDM1bMMXj7kVg9kIOyZaXaziRzm3FcD+KWoDZcX8mqGyHQ+hwHIZR2+VhVfzQK99JMAJUGSHQ9DwTNXPsfaDQZY2s348wmHUx5hXrHHtKzrIafulPVXvBKUyYlJjtCVyuxnhS8XXQRsKuwzVua1af7QlclsK4aWPVnijfZvhgWMF1PsOTvy+hKKOkbPom8o6VK/4HAUcSi0bNLymNoHQDfJOWy/9//Fmusv6pIGSDmi60NrUjKlisUcsWf2f8uCLN+xgg6MpBN83+NXDOG+U7WSMy3jPUOlZV1mBtp2i0jjylj5DKXlsRVl7zxNd/3rdvXqgp4TKxx09XfT/w1gF4+NP9V8pdsH4lVe/pILxf97++Lt/5ILxwQNValfaN1Uj+r7lv374jnaCJ9t9LcgXFNNjfeHNB2++uf3s7/9++9FfqGD81a9dLL6mp4uvPvfC9sUn+j8Yf/10+8Kv9URSSb2nuO4rWorHKhCVF+1JFIkqbMdL8eqJJB/M6CJTdCwWkqaj7jMErJ9i5iyh2F5s64JDPPTcQR1kH7aVPj6Dr4Qaa0wJjGxf00xbjBmbXrxYv4w8yx4qvVVaO6fVZMZl3jwFOsZe4w17xjZ9t1WR8ECzCBl1xdF6w0zsHOlqI7IorbLiZQxBpE9E+IfyluV+QNCR8/g4UoOsZ7WMzR30Sz4BLViTpYVPEFwA47De6DkOerU61FjkKVCGXDJwzmn8I+xjj2fw9crN82LafrAzjrZnXgPZCoIJNT6GGGvrrXHTjp3QZYQyEb3yvo97z0P/Qv4Mn6XJGfvkHW1tPqaOpCHP9m9A5pA1Imj8ZyzeSRxDmxMZ1ptvHWLgn/13qqKC3bSTPHSjH9mIBRnxCNA0Twihd+CPohGsrGvhX2nDNkXmAnDawFeeANgmfzPgwlKKFJcqHqHG+CLCR/kHb4zjqdgcMn262nv9yQ671wk1SxAaYRN1ah4xW0bOyA//OMIPDlrWTKopVjfQQL/tQVeZxDMYVFoNnD3GjKk46SNV211O4Q8GhnWEb2vELoZ/igIhp4yNN16XFaIuZMxzFKMwAte3HkXB6p/vMbqNHQ6oZWpj1/86HuxbBkZt2ww1vvT9C1dhkOPDFNv6lzjEliwxwEcKpg63dXKM8PHNK+0jTn3bQ25M+ZVK2yhdx9N2MGGs8XM8+GHqEZo2ruxXHIkrReLqO+PN+DGVcRcv44Bf9uyOYPHldaTfkluKhpmO1QtIBZvvDCjcUqDpTuVq99SPQi8FXVEXlHlimKKPi9sLlF/0dJtCUb/dr4IRij6LALlepnvb9SRRvCFXjI4PPa3VcRHQ7nEeqIDSV060tl0wSsfjLLZklTcwtlBmSi3t9kOxWAVjLd52JcW6buyqdRLPsK/x4Z/75sozVAzjQ+3WLPYq7XZm1JkRh1O48MtGZbMkl2dj46vFWYeX6LIV+dQt5K19iSqefYyxnQyVTQcSkWnpFit+6YWPVYpFb6eL+rC38EZOy5y7nkIZg/Z0trSI/bSN+EQSfniJLX1jFt8rvyxzrhVXK2+CnakowB4iSdRmfVnsoNXPBkEegm3c0A0fc71AnXvWkxcfC7D3B8sxQIw6oOlC2SaMVRzqVyzwErRox6aGf4wXZNhMW8VWCkYXr/A5HEOTxfccHz4KOn2hN18W7/rq+McSxa6C8eldlXh3tKNVwei/X6RgvP5E1+Wj7fGn9YTxyw/1LamvVcH43e99fXv4youbC0b2TdWIV/pl79X/9cE7un9+4ieFPGHkG1I/fOvN7ef/8A/bj/X/MFIwvsrTRX8ktZ8wUjA+uXHBSNF4X7Hx4lsI9eRTBaM2F9GnuuFRnC4aoXc0C9p27eueZ0SdcUjhcFxwxGAT9rf1MIULYF2Ax5uR2e/Fix6TZRNlxBejGKF78wY6OhYuH99FubAJOv1n0cIROzeT5bV11/4S0+oAPOPwWHbKjiRB7MYEs2IsBV88tt+2ppaBRlleIEeZ/g5ry3MMrdiEzEz0oj9vWAtRsQXK2NrurbRwcy7V3xuY/Qt+++iCUStU2Lqg1GhhkewH2XDSt1R2k/9ojz0DAPIy47MxzfAbJD718o2zr/oWitDa+aKPFUMK4D6bGHwdOzxjXrCF0LlzUT7RifZAuDFsxUaLE0NojT9vgWuMpRDc3jo9biC5nXuqFyi9OraBte+2CTNy8dEYc999+wqudenmmPLW1x50xX0Zx8jDVFzxhVlisc4cN7lOLqD++CjxdvuO9qni4VR2eLKGT6h/ywe/1xPFoNr49zwQErbgj8JSeJ42qu97yJYPHP2V1ybgYdef7rBJ2dQawkWdSs264UkH+VindPSqm3lmTxabZxW3dYKa0Ta7a4HXfdkkHrAFT6NtRgDeuMUXCqWEZMZBJ/xQeOsRe45dIP8UtR8xoLyq6Kjx1n2K1q4EzA1vGxPnnUS8XtGWNTbXaeOxabuipS869JBhu3Udw4wDv8h90y1lYxNnY6Va9qG22zYlx6F+6pU2GPuDTjmdYb/blYPoV57Wwg59dMip/dgeY+kxio6PdIFzrqfcuUHHdpov1IhDbVYs/T2v+1LKLLiqAAA40UlEQVScMXYbY9ZTDP6n3UcfrRr7n5JaEAXtgo2+rrEUaLuCsYs57l6WorEKynpiyK9j6uKNDezG9j21Hvi13Txof8IN+Vosop8+GLUVk3PDTZXjE/FGEVpzqF6PyRPgUcuAKN8wQf70oogtZskLCogfnTiTC/fcZlxVMJL9GlfEoeiV/rQTC/avCWL9zrjpyFyOYag8wGYXYst0G7fmuDt0zW6W26vN5kNa3XqrTiA7nmykH//GdYyREf9o20f12IbHkfgFLnYzmoBb4aM/9IoDxq9Fz5JD3wNcdHuZ1NKUgfTR9SHsb/cvzAG35mXVX9tln2Bq7LVz0Ne8DqAasDjiw0Gqk2CRa+mR/vK710EPyLSTtdh+UdTrSvft3nPV9vq20uKXJjzgbCgc3fcGM/oEf4whPkunteVTLWzxhE60chC7U8d4Tm4UXcdadcfqU8DGJmbHzdjckA0d3qNUNF5dswfpdaVfnPmjqCoWKRivVTDqI6kfPX57e+nhg+31N768ff0bv7/9yfe/OQrG65snqnd/LV3tIP/P+yoYtZHy5O85JbQKxre2n//TP20/1ZfePP+rz7ZXVCzyeln/tcYXNXH1sdR6wnhf/TxlZH55uvhUIzXVDU+eMlbBWE8X8zHWMeIams+/7eRikZsx5sxHNdL3rU7L0jY1VhMmWYkzM3Px5oY0tB1Ipw2KMTfSltrelAd7pKBBwVda5rHqp71QgAU30/rVnyaq1XJ3GlGstsDYe/xQcA2rZoGL3xlTrBOSFnlbsCjruG28Yg59tHnxdlWUcx9qBlmpVs/iSQf0t/CHQyvYcFTlRItVY/cjdi6qW45wi/YFbZ+A1eAmXq08CTJODOgKAx1btEuIb3HzmhqGpHupp21mGG+77bMUsV+A5G3gVz3G7qg6hqFcDa+K4JvuYmHs3HBItvKHL5lZ+bYae/ZcJaN3/8GvOV71RhtMj6sirH7k8QtdzO1iCLZyLhwXH/k/HLE12O135Q+tjss+hUuxmAJx9vXLLezo5YKRYlEv7ge5XioWxl8Y59VtRQF1vqHKOe1+whjZSmPLvLaRazLJ8dBx5UEqFuHcLkb57DYmauzgKiu1emoFJZ+WtD/aNIMvmc/mWb9tPQszAvI1krVeMay2xZFNn6e/EWf7HGSOwSzhkpuyM97GvXYodKrYYaUqaoG0c+io65A2PHRpj8LI/MJ7rI0pHHzZxZ41Y7t69qFTbBZ2+oDvghEf+GwrbutUtIslZPZVfITIOaDDF/78KnvBZXz4qFy0HuMfNhhLxh75Qtt28icoSTfhlFyMPIMXP/524wOPrP07PvfhZ8wdS9tAAZnMFtXZvkSzYFy8eJErLhdlxKdrTRcoz3RcrLlgqwJuLRCrkEthx91T2Sh97OSFvbVg5GkjvPbldvu6pVCsGFQwqlisYqvtSp+xcRRlrMU40spbF42jYCQ7KKMfPRixNym8ekADDv9TtotBnWHThg1ViyeMyr8mjlgWUAFWg2r3rjQyWPh4LpWKQu0KvaMq2fFc2FjdS4edhb3bVtq+xRpDbOF46AoT/rLEh8Xgdk+XJA1/AOGt/oKJ/eF/1e1xLXoXdo9GV4fdXnVWePjhpU/eRztxYmuJo0yTp+QKIW1prsr1RmNds2Nj4dtuqQvXyulLqNQM326jAE8HsTt+BCraWO9Z8wYgT0Bql63FJrylgJwfSW0sRlCqnx0lUj/dpFgUxjvogkNPXetA3GlbRFV9EUCHcXsMVi69Ma7YF9u/qPN+pr2Komz7tUzq7xf9kVT+L0b9txqPVTDqW1JfevnB9pr+H8YUjC/5S2+IWL9o80dSFf9b77xzc0fZ1ENLPTFUwfie/obx7be2f/nRj1Qw/s324NNfbQ/1pTcP797bXhL9kjbWLyqgF3nCKJqPpVI0Mh6eMvojqYrtqe5QUjBC+S03W6s/mnp4wlgXWi8EDYsjb+rVm+dg9xenptzqk5YNn63shdsu9p6mr9hgrsYiahP0uTHj6UGOGUNZjP6eBi3KAlnGbh/2JZmUbOVIo77wwwrd6Q1m26NvH9qu+S0BhZPm4Zjf9I90MVcLNwzMluMLCqRkbnlcQMlcsmfVCgzQ7WOfRsoG/eaVPorDUows9mJZede46zfMoYbtTlrGPkJxOtpIEk87t2yHaYGxNlUnY4SunavjxN7B/qKy+io/Arf5+B3Gm+/+IUYrya+uzH4x96ujak+bBz+IwUuJtZF9C7Z1aOhY+cXReTgSErMUTBZerr+LXERXes/yYz444luOSzx+9Y9rjzk44FEtW7SmvWFHrNkuZV8n8j0KxLRV4PlTBDwdhKcXBePVPelxj+nCsfjkx3ZGNde+21Y+1qpNehSYtB2/MNa3TFcVfWQclgErLHMDi7FnnEb6ZA3AwjQDEtmiQxbGPAcTHGa6Xb7argg6zv+CsfQCLwa8vIxPzJmBQwyrzbZn2+PUem3TkB6nZsUoEPWSbe3R3B+4aBGFz45JUPnoqndQywprHUbo/V06UGn4FRzy8W/B4A9s69zmGzt+wKQYdljrVazoxQY0MQriOIoSY+FSrA2dtmVfapd82vHYJUxeqgBrXPtA1y/GQgzQ5rE204Y77IuZvsdgWdnxGIiFl3Hhl93iqy3ZMS54HNCyX7q1gBVLLUoheILHOtA1ZNoF4yjgZmFYhSLvYOK1vIpLdOGvdmjrxcdW14+lDj+Ntx304wc+9psKj48rfzwiOhIL5THqVGNllAzW50FZ4081rlpXGqv0JkbNQ/9SRq6sIiRjqsM+4avLXO/0LGycYp8fSY1yKNplozn2wBbNURnEv70YOCPoaBobvBUvTuyzF8wLezsbsruqOCYZCS8xxip8y46OFHvphEZD9OAjkvgYco9R+j3WyGc0pZn9O3K4VahK8Rm+hs+2bZ0wrV+dYfNg51n80sKo4haorv7irmePIb4Hbaul7tjRWYs1xlPrDtoW1ag2QvH0qk83yJ5/6QIPTCs0QXu1HburD9sDOPYNNbmoYEE41Y9pCbDLvNXcQa0BbjSMrJjgmd/U+5FssILchvYYF/3EOygmhx1p2y7X0We6j9DTQr02FY43V59sj1Qwfvjhm/rSmwf+0ps/+vrvb9/93je2L335Oc2b6jVtRf6dtbaeq1++894N36fAU8Z7+sPMR+/pbxjffrsKxv/0N9u9Tz5VoXh3e0kF40OeMCpoXi9qB6ini/z9Yj1lZDzscS4Y1YbmI6mzYKyPpLJtCbI7sthhpl3X3oLshEceA8E9i9qm7dK69O0psRsld7hTo35QIqi6EZyAEWcB1rjbiPW7zQyySmqllIpsWfrbaBxAY655thA/O9pg82jrsbgeSfPiaVt7Lis7vaFgWey7Q/iMQ0f4z6aFIl79+NVvd7WAYfroSLqfuY3dgSJHztNQLKPDihqS53Br9BW1Fr9vf6B6TWRpeFSlVAy1a6SLXM2Ja/7BkK/rEslHC+1bTFFbaD+r/UBbtUirl091RkGwxiZ+41Bys8c9YrH/Khi5tVrxR3/D1yKIHfJf8im8wI9YmK/CkXm36TsH8EsI3zYKWvtit4cB9RMDouChZffy7Sj4wnLW+FMwtu9gVpsjNx18fE0+aAUtOZB8wc0oHCkUNU/zY6mKjYU/7gdlEV1hvJ4xwrw2r4y2nJ3aTqQvjJ9sL/2pUz4HFlsOE7uVO69/t3tE2MmRpuhgw9PLaM2ZLdLP/LldGKA+0oCmjUBt3szKlpFT3tjYH2NoPUeAfv9L31Zat9p0dDSpDl3y3T3RapLLAnc2RnzE6StFAm/XgoFxwaTkwKNQMU9nFzLo6FVjhK66NW7+L6saA7qNMW0btjnbs0ASzzKPZPFddlwI2LdXuCy2b3gdp0jHtshaZ+AbWzoVRwq+XSwCVI4Wavvqx4Zsl27R+jRl5dxjse/KxsxfxV++MuayOf13v/3Meap4sRgsk1BjY87myyvCkw8PQywEXWehbnOx9kV7UdC1TPz6Ypwq6AqPzmqPtgpGfSSsvvhGbdsVf1dgjs1BcrWzYZhSLPJLqMQksWOF8tI4ayBNiydDJVM8vNtTNHIVG2oZiD22+jD9g9A67rfPXEHtUqLy7xiGni2VLv7F90ttbNXR4AQUtujcYmofK9ulSEbXI1h4R9nEPVty1HuWvbLQ++ri6wI/NtDyTtZrzJf3HBdRjdzMscR+6BrvXl+xNcNEtqDouWBhNhb7Fd08R2e173brtGkrrNgj3oBxqjE7B3Pip421ldi0zoZ98czmpNfKp19rkBVY8vRtlg5rVtfQFdeRX+jAj0LpGS/r5Cc2TANTZy0ozcaG+IWnXa9pGmOVfx6WOffFMr+u2cUGYP2MV4nar0cuGePRD07B6lT+6xosGXwwPku/5kDVra7BKhjvqGC8uaJoVMH48bvbLz96U/8Po54wvvaS/luN3/f/w/ilLz+v9XTdxaLuZ5TCq8fv/vKGTzrxeYE7+pzqh++8s/1S35L68x//aPuJCsa7+m81fk9I/g/Gl+/rbxgVxIva8V8YBaO2N+0EPGFkNikS+Q0441qfLqZgvKcV7V+01yilU4k4FgnjRqrM6lwHbkiWtXJ1iJf+b6Tgyh1W9JqHl6hkvVQXXCtYlkmYemmVXWkb3joSrn249ZFavLR/AUrlt9B2ZK0l9LKPH3zLUttb2xUEOeP/YOliEbo70IcRWkJHZX71xyIk6h0+ekdqi1YGzlKDWtXcPokRX6aRhU9fbd+E75R3HWN2+q1nczxh1Ftn3fAqiYtqfLeBlgmwYEg7ay/pZ42Pw+1i7PgD0FpAll07tgyTLLGbX+Ysqr4YFBYcInvdBVyIjl18i0Dz94OMfz/3mXfUVr/D/mJ6ymO3nZWR8tVtr8EWl220mYPqdWC97uR78RPEELZsxCTAxO9jmfw1R9LsHZtrrzDKtlR3NnE84ph2jTG/dKyYvubE15/2yfGRefGOBeP1HW3YioH7T/xyE5iiEYbbXSCmDTW4qeO2MnGWLJhQ2wqGwejHfhc6x4gZCXxUXkZX7IzbCN4wJMwVULEQB/w2EZL+Qtk7ojv8RzcGoK1jlk8VF8V+Ffzls3CNj9qw02ZWW4ltoX4naUyu7Sr8aqUy/nrVjg1+FouSSbgWRrHhsS57BaveBaN5lYWJRVa8UOu37yqwjvFUXCm+6oY8divPtkHwGp99tW+wBD58qA+LgzlljOBjG1nsJz5TCRjXsIM+L52IpDDYqe82wDbfcYAsmIordtDB1/Sdp6oy60Xm2GwBnfJnPD5bT+IRF2pVLNZTRP5OsYotxohQAblAZH5p6zocBRs3M12kmS6FnHSqWMzHV3lng5d3uFDsqVi81merePG0UZz4nO34QS/tUNn1upZM8RK2qRtqaiC8uCEktxZ7cMiAolMfSa25Rd8/TatjTWzZwCI3Q33TylHpi1E/SwzRi0x4+Wde8c2c2UHHN+zA5xAOR3jhCDU/fTBpV7P6zV9Yu2Zys2OqYx+L7vCJzHz299IaMvFpj72z+4W6PPesDcFqZzC7MWTqux1f6V/gWGP7I30oY0jBcowDrRrj1I8uOR9tcIH8jvzAa1Klb0dS5oAoqWVT52bv6MLLcnFM8PsVfq1/sWH4p6g9cO1SLLo4QbevFzVp1x5AR4e61o8d9R0j/GSgMXAKK9L48h1+r2Mteoo2ZNiiWbjiDd1WjlyowoHXBWRrrVtjQM5YJpB29L3e1eETpNxW8LHSp9e/UhAqGq+eyF59W+pHKhg/+FAfSX34vP6G8eH2zW/94fb9H3xHBeSL1mM35e+/sXP18Vvvq2BkwvTk6cmT7cN339l+QcH4ExWMf/O32x09YfySvL2ib0j9yvMvbi8o8OdVLPLiI6lVLFbB6DcbNieCY37U9hNGmb/mBkoh8pFU0xolI50X3dLmQszFGGqw9FGVGHSxaBXjFjpxDZGWMzx0q4G/Zo1Gezj2d5pSqh9zE0cgax/z9P13TR1D5M+iBJWwsFmLINZ73Pa/z5ftNd9oJpsnjLppddFYW3eJOMePnZXH2ay+wSN3HdfQO/ZttGIXhsg585YKXS2CHP6RtHBgrF9sP82xwnJa5At3Ntt/7Yx6U2Xjcj6IioPcNTwN98PXinG/1l7pMBNiDr3WFxmrq22UpMY/8EKtONqdwYLHbuzFlqifMhWqbCxYs4OlM2Ty4EKRt+zOgcE5CTiw4eGr26ZcORXpDots5K0VRMZ4msXG6Bt+bDSvrBs8naqFFx/Bxb6YIybagCQDdsFHlqPnu+a9cx+b8dHYsklnxgUv11T46a+F3/q0sX65wRpS3vSe5Y/r65cWum80D75fXQyuurQldBEJHe3GesDhQ8WveBpr2RxDCkbvzaz/ZWygbM+NpW1c92W2VLCf/K1YtTnAcYQe2s6tAYUxjFMabmss0RuyKkA844PXegbLBGOOHiLjilfnvgYlqzkO11pamzUuqIsRgcDxct/tevcwz3LWNJiKD376ppysp6JJv5TFcslLJxgkxQ8tv8FaU++9M44pj64LNPsnmoqjfFcnBRzSuhaRFs5RKh3WU/bB+CZfjLSrkEMXnZajzz/jKk9lE3nxHbvWjL/bAB/wrdft7ic+/FqnbbIYMnPRSx4cY/tPHiqW8u1YuOPQzWIVjtyB1EBTONbGoTF7A2Ht6drzq280aXPhrIWkeHm6WO9qpWPdWnjSkZ/G3WgDoGAcBSgxOI7C7Gzb1+ovWO6cdJAXN1aq0ZuZcYcCZz5nwWgTO/0F24anfZzVmrff9n+0Yd9AG2TzNoJu6fOUs/jE7RaN5nW/DTNiBKZq9o4w+ogjo11GDjwL6oT14XPh72w0P77prvK0p7yiyrZj/DKMNtdkGczS3GOqN+1P//DwlhhAZnsuLfURHvxbT7xanZqJg9x2YqDpinmWv5W/ztPBVHdxWo57BcRTj6etJbaVqu0up/WFBfcPa1e8rMVyopy5GFEGRFHxmmP9DezMq5cla5INhgMFK1X+i0e8pV821LNisxuPn6HfmymeLOaEGF9DN9dCyQoY3LN4PX77qnbZjy2eEFI0ak/Vl9dcUzDq7xg3PV282T4T79PNBeMHfOnNC9sbX31l+8Y3/3D7wZ/+sQrGL+jjqIrXv6jlk4lS++V/e/Pmvj6kekPB+FQFoz6S+gt9JPXnP/3J9tO/+7vtzqcUjPe2r7z44vbaF7+0PUehqG9JpWDko6j8PSL/B2P+hrE+tqNEaH78dc6i9c2pVTDW18uqWk2SFH5dcLVofBYjVOL9RYKsFBBZubDg1PLPQgs1cessRGYztmLcwi7f7Q/EHd3I3eVDveth1Y5Z/F18C85mNG4WSHu7jFeC3Tii3wpOG6fbcEfe0md11uNlLSDdtPoLYGKbmMvg4Bz7Q1BI+4cX3JEGH35h6+2T/PRwAisa/k44sdYjiU7kVB3w0ZiyNizC+Mlbv7IOhg52D3ruT74vxPCANn4tVGAbZ/mMne48iGHXmx211vUT26vN0RY28r2B9GbsvpXTvPt3vP2EsewQyxLMokpz+ArG+Q+o5Ba13PhhTuMfbWFZt9mJF/7ez7TtJDWu7Ja9EVPiA7M4WuXTGvNfMLbsXd4W3eB38vbjp378/XJil95Yk12wue92/o6xMPXJC82CNm/fDxILhmSDp5LQ2DdtXgVd47ujfYeX/SdmaPu2Dfr6Ge0eEAUjOP7+YHykFBnYHMMmjMoiZ7Mbhy59S8MDDt+UUx8tf6aAmHSUW4HBLzHEb6GQdcs4NDnEA9jq5UtsMINJq+Iz21pp1Viw7Ddvy9ijJz/FyW/mLToCxp7Muc3TxWv9hpeiyDzbn7jhe8dfYpAeBSffVmnbbZf2WjQhTZwGBkdMfuOHBhNKRPgiJ+Lp7DELVzRjSD96a9GIhRlv+SgchZyLRVmDOn6d3DJVG1+Oq3y43faYPReQGXvrzHlpm+CRYYdgdNDmXefaBSP3Odw0cvOIVKsC6ot9rhDfYPYtNrp++aJFr/vNn8UlV3NktLO+RP10kr9j5L6BohEc8rwWu6v90SbOxoo6ZrLXg6zxqiOGR06TAVpOq4tFdB0jUAtvsaWwhFptY4f+5IE59lsHnBWgdbCuaPtl+VR2HAbGZwEYrQ91PXJd4/WL9mKv8kYal/aR4sK+oth2j7j0DUNJR1TGgMJb5LVtzVm3Yp+cD7dLYdiD1zYaOn01I9isqPTRG23bORha9Nk275I/8XY69G9Xm7iDn6H/G/jtuogVmFscaSW4X1aGLZBe34bQqwOe9Fp1tK3X+PwN4cDJx8DbCjb6+rI9mxFG8RjYpMJrv7LB5tK2Kvcd7RonOos/adGtgyZtv7qTPgjbwY+1DEZc+G60r73/wnToxucaGtTqtqYWA+EhEb9Q0ifM9JFUikVefDyVgvHRo/f1hPGd7csqGF97/eXtG9/4Q31LKk8YKRhZNWXLv8P+6P9+++bBPT5fL8P6SOoH+tKb99/RE0YVjD9RwXj98eON/27j5RdeVNH4he2BPs324MlT0SoSKRbrS2wE0uGCkflRfl0wQnWjwkdLSDn/tQbfGsQWQv+2Y9wwA8i4G0jBZnkrj0tU/bRX/YINsA1279L1gD0DIfZd/T0nMYxDvPhdeaOtRlkTisY605bZQGHqaip7R7tlxPlgidln83b+B48IbISGD54s+rcNumnl44k5Vlvwjv3gbpMFa7dr/AW2aoUkpMOBWms1W+2WXwgWvnXbzw5nzI5z2dHuWN8UqwwuOyXZSES13JZFJ1+jJx/HnJJiBjYw6o72iMmKlqSljo+BDQOa8S1g49wvZvYt4KuN8BcoEB1Caf659fLmEa3FR+H63DFMvwt/0Znyjit2gWccVq0okynynVjb8o4M2WpjGdSQo/Us/t5iwRQfMez0bWMZVOutGKKnkOOp4eArNodnKv2mXqNdxDFO+hSMvldUweZ2+yCorGloFX/a4yjuwDgsQFK/d1cbuG481fZTZmTo2G+1bQO+QEV89tNNF4zYhZX1r7bHVirWowm3xlnzZmNlCtN1WHeRw7UsvAAbL6E5xDwOrkk6OkEjc7tBlssmstEumT2ZHZ+tAzF29pkCmxe00AWgzZ6ardlt8+rtFn5hJq0ibfanrnjqBA/C+nrfy0dSichy221544xHblnj3KdgFDZFU9tw0dTO8Vp6RZOAEsOrp1DEV/EHV35ksuJqO7Ft6hgiF5WN8rXwMKCkS1IyMP2PQtEfiOfGpW2BxkZRCkX00FDePX7aNUcUkNcUzObvfWIDHY4qOqtdZ2zqmlWxds1TPhdtsqnFbR2oG/gpXykK1wKwCkeKPTB9g2O8V9Xg1QpfbJEP+fdX2rMB+NU6wy99bK62moePwcdWxyiNirtypp76yQJtATorLhjVv/aY8VOyIsI2NNTdtrWYXHBC2la5sAVYNoB22sXoHXfMHYaiQ2vgY6BpRkpO/a/3hvBRHW1b2Z8i6xHaE97C36MP/KNth+nT2DrRj62K8Gix+wIlhiCi18MP23TI1Es79Dhm8yssoWkMZNlSLuFQbGd1WSDoHmnuOA3ZAWd++xsYaa38YSSNfq8hBzWFZKsP2xq9LAfR5iHXy2u7/XqYqJsPpRHGbMJxZFw/2DNFrn/eR6OHrNCmsuclCK/5M+IjtuwVrvUwtejSLns0alykBAgCy9QretA1hlP7RcmKTW1HJzZpWG0ktATsvE9kApCovyn1M/HqKePjTz5Q0fgLPWHUQ8HXX9HfMP7B9r3vfXt76aUv+Z6De2bs+c9tPn3rg5vnnrvvzfhGBeMv9YSRgvFnP/nJ9qO//dvt0w9+uV3p/2L80v3725efe17/9YYKRvlNwZhiEepxaEV4bjQ+CkZujkzVJ1X3dMNyX1Xr+oSxJK0vDAdYDtscmdTCV7G2K9gKNs6+YXKvHMaOLfbCnRkfaqPhhTGVBj+No9zQugoCuZWCIzaSvv6mLOAZd3GOfbhH39H9XWk9YeSiJavO7FCtcaQ7L49wTDsvQ7r2u+0oR3tqo0OaGNfQn+Jdq9J5acS6Jdzh3cH2JXfP0biVfo8/q22fheaKuZMPw9OJ9WxL633xEn5YHiv6C8jpHzYX0cIrfRzEkqgTSH/yF7PTxaoz1KtQZA2svyyod79WOOittiuO+M2Yk6VyAn7l7PQl4bbJm85t8e981wrJewbWseVrQrhh1zqt2GTIUMohGWLfMOumc7GQ/dvIMVett9oiFvxn77GseZmPxDfWqfCx6Xu+e8qA9j5unjmSq2BKXz3PcwUNMui7+sWeP91wXAfpL/5YK4w5h58wgnPBGIuS9mJEtB6JLUboZ3zheQRDTzZpj/5qjTbxlNB2IjaLeNSI7m+iLdvHl/EUnRmLIUxz7ScCIdqlNXTaa1YfHquFw+1+j6PNbRgxuK0TlAM+xgszoiye+UGa1foTV1L11SgbbVedFEOg7cf+Yic2SrdG3ACbgI9Fiq7C0J9+kNWYgFOYGSdPtH0ofzVufEZXlDE71cgTt1r8gNO/+kh0F4VtDhL/NKwbKlmVlmUz/w9g2Sue9bGRV7ksowj7YOepolFP2kbBiLDtZKMxZSB59Y2mb7V17fLpAtr2I0wKOQKwziKDxWHssWBENz4AxS482rHdbfW184itV2JFzYfyZv9QGu7obMeN0Dilx9aX+StYY4u0nbZqXgvM6nh7firG9ibYEV6xtC0R+mPnjQ3HG38xUpksrtodAt5zrG14x34FM/k2wdo9AN1t+7EdukKPuCFbYqv9c+4vsQOtld1UyhnTikl72C7F/dgWf8arP/ElPEYQedHsGuUtsviOTegqG+2dvwVzjGtnsI0NI9Jz+5ZI2w7zl6VBrsxeN2LsD0wAxUNUCk2sLIe53qyXa8VonxyNsaVv//Td6FiHvAeDLbSFKRGMKUOUWEwLZPbK39lozFgj6vsXZU/5Zd/BXts3320B6meJiV2UJ4v6/hI9KLqjP0mjULy+4QtveNL4ZPv1rx9vv/rs4+3hy1/cXn/9K9vXvvYH2x9/91sqIH9vu3+fT0YQAx9JVR4evUPB+GB7oo+jPv3sV9svf/He9gv9HePPf/bP24///ofbo/ff354+/mR7XuAX9Nvt55QQisb8/4sUfvp/qP2UUUT5UsKYH514quiXblL8hFFYCsa7FH2MsnPLWAnqdzkcNHf9v+HYLUVDOa0OZnuIh73fbHvAulGL/8g99ssm2LppoT9jKLSi/q2uJ2Z303V094w+b4/2MVbjHjjcj8ZeTs+5XeSXuW7MUVU6pbYoHzHdH4hDg67HPfitcEzls+xq3Iw/BXPUQkutL34xzT/6Un+H70m7FYtByYcJg3SCmjkk3a8Idue2D4+9CA1fYwvIZt3v2A1aADQZu96yq2Acb92L3zZ+UKNr+9jsY/pDlh6ra/aChYJA3a/kYxkXmN1hX+1QJB5soE5L3NJcMXRadbUJyx/JWArGYRcZZqy3KKu5Yta9Z/AzDmHHtcEYmx/qX25SrHkvVJ56lydj0Rt/C0ng0o+P5NW/LMtHUhtTw7VzlPxTIrWXwzMDy3GV5diPmvu37Q3Ssz72hlmhzV+cWFb8hdvNUqyrgfwEMSyLIebCH+3woHoldyVf9ceIxvt2vKCa2294QZrqlL5l9lf5hz9emrPRlvN4Do/gaHMyHYhiVtzRAhcfrcDYdvqxE7vtv4zXPmDVGRfqHL28qlMcG3PJxjiiF1tgelKIE3YVjEWRVcFUMaHvgg47mczo2x8xJC6s6aW1RcvtauzGGxm04jOyNMSMvbLgSbJ+m7JOyayynJQ/55o8Ujwian07q3Z4pikGjWPVdsFGn424+ZnD0gl/cU3c0h1/75iC1ZDgsZnVmaIwfWR6kX9iWGLHxMhwDcocm6Y1eDX+ejqLvSCKuus4UdrLZo/5l67HP7nP0j2aqV9SjGjLgOPDZo7eC9UNN9RxjfEUfsii3vS4hdV0NRpyDO6ov/R3tm7zb1vkZsa8qLsZd45DzkfcESwKQyae240p19UJpijrog5Tr5MYbAnXnQxYmwG1zegFvdIhuwVr2S38Vf+iPQyWxO+lO5AAtkmsErjdSqMf/i0UW9ahUcc6Xb2Dtu3OReMrljVAYpHQExYqm7EvCtrdwUtjibnjGHr0Azu0R6y3yXXhcv1Yd8iJsR1EhnnzSjDafkigdUftpWLt6fVn25Mnn0q9vgSzPpr66+2VV768vfHGq9sf/OG/37797W9uDx9+ebv/4IGD5oms8/Tum+/dPNATxs8++2z71aePtw8/+IWKxve3//Kf/2X72Y9/rL9pfG/77NEjfYOq/tsNKT1QqvS/c/gLb/hkI08WVbS6aCS/DlWLFpqCkTcUblHh3nDDphdtAjgevyvvqPe79yuZI9uK4TKKZ1tzfEvc/xpdrJL45YqofBHSLYZuYRk43I9Gq69jObTxPZwlBWbecrrdsYHO1oX8gnFhFARu/SZWK/kC85sYWRehF1jZ/K3D0mZJHMeCcWerczqmZBma41/A9neQR1xmFqEF0rDSOt3CLLAWlxmLSlj8GuNtI1310g7FmItFOadgrKuxXNSbWLV97vEvnNHEb/0brKVR41h9DiEiCSxj7o+gg09GvItrke/4w0GbBIfyLYdt8rH7pWAEdrSX9bWGGMzF2m9ftaraaULoWNDBFjb0F2z6ans94aHfSeB6yJ7ip696ilD9smfdXC+yuco8WPwt+XnW+G2t7VREnTMEPY7psWSrWeLPRxrB0bda61a+dO5+2TqcpVTigEorOt0rpUCSqWf2Gx65aOWWXE3/NN3tEOPrSIdz26k8oAkuBRSYodc+1jUQWdmqs2/YlH/vf9YuxVuxVsks0WknTeAMfzKAjdgJBVNHlBrlNUAce72RrE6a0cQrI45ZfH8RU+fC40FmJ4lP1E1iL8kYr7rsuxY7BhTpNVJy1hSHUe27OJx77YvasrDloWSjHSNTcWcX3HCPfzEudQlkvmrVzn5kF3wMOX9glyPFoGkKQeTC2Xl49Jd2YtCYiNmvxayb1h/ZbqmZS1tFsn3VGFbpMNf2a2zhBknu62+ykYeb+Mv7YcyYCFDzvhaMsR5aS66ySf4cZWiD/BHCnrgLT+3ngh9dKE6eBWjcSgY0Y5Bv37stoIHBvF8rZwLz5y82BUSN25GlY1n8thlfR7vxMyfYKUu8B/glvHmW0eHdnl8T6b1nTEgbXUhZWRhpHmIduAM/8Nupcid8VikhJ27wq00P2ycJ/t/izuVHkqMI4z07DzAgGVZg5JsvvuKTEXBA/vctISE4WUjIR2MswDaye2Z6Zpfv90VEZlR1dc94ZeHcrcrMeGdU5KuqusZ5YhM2+IoGAVWuHJgTvAC5UQ4AT6g+6EL29F34EMqgUb1o0/cFNw1kibekojUyZLu4gLf2ppCSsaYNmWETD9mCU9CSVzmMlF2fwCip59N3eatTMrjffH/Y725vv5HtvKb6aNilPkLzy1+93L377q93v//D73YfffRHbRh/vrvRhrFuFPojfp9/8e/XNzfXu7vDnTaM+93+2293+/03u7/+5c+7P3388e7b/369e3Wnz7DqkeSlHovycRs2jfUqKptFNo4cYaByXR3KHGwaGcPrCSMbRg47QyfnOnNBvfBRoQIfIP/yv6SljlJkSJ1GOBZgI++MVQ7dG8SbIAYN7/Y3seeBeKUPfIO6RUxZNXCrgv2Vp8jsIZwXfqscvioXU5t47NSV7KerFsTlGOm8vUsszXylGw9v4r9qQrZ26K/C0NR8WbiZM21CmdQSOtoiX5EqBkfM4cOkCq4ZZ31tAm4tywLzVDgG/irDUeW1LNiMS7uo8xuoR7+aMG0AHilhKfDYDXWTJvLhg2KvvOkzqOSp4kViCQ7jggSe4nMxmOxLKIQDAivxH1izzlPxQw7txAzZAyaCUV7QUdmULqj6LR8d0ZsUNcp3n1uMWOuKdPlFF5I5N/+rOmirYEKdnIdJoB7lACZubxjTj0hiQPbvI3nzIsvDd2KEpkRjp8tDfBTKbvCkJYdMERM+qDyo1mdxlc2JqsuCvEf13Uf5sGwxaadXea13oUHCO3nHlczKs5UiCUgtugZPE+T5gjpx5jzLEAMjl5jIp4YEk6UWU4hOnko5Fa1wOf5NHaNIFhe8IT3khEJTiZe+q/iT/yIlTSdKjC01uukZOArFm2Upreu2bF3QxdktoBGWNK4TDrPfMke2nRg+GfIsRIsW5e7HkpKiBr35TIcM8KGFT8qzZfE6Ib1lIzhJwdDhqgUYPWyUsBh7DE7cLFuZq5O3Y8M3kqbgnzKxL+kXNpQMooDyrIfMgAUub+6YUnDHWuWwNl506Yh4Al44pMqvtgVYLgzLtrJhYSM8mey88mDl4LJMh9cmlN+/vtJ3J5Z6U4apsW/WlyW1tmIExMK2M2xNiD1PwGBPa7vlQpfy7Zks10938HXNPWZvcqvYvVmwyt2sc80rwpYv5MnuV5p3WbtsJewzPactH6busgMZp9phHCeSGEok7ZcTDC6fRT6vDXUYbE/m1Fl7P0ihN44bioWeKVRY7wRGadClXWv8qTq2e+xL+01nYek3ANarU/zPOojQ6jZRNh3wVTK8yRtoIbhJzlM2bY7sR+NES5zxr2JPT+Ai5gRLeSYdOpk/yws5NiN+YdTED7BBQwitmEngNaaTY98gGIQBozpkDdwUDSNjXMTFi93V5fXu6vpSr6De7vZsGP2EUW+IahPJpxHefvtnei31F7sPPvjN7rcffrj7yU/fEi9jXIxzXpt88Z+vX1/rCePhoCeMeiVV4SWC3e7TT/+++9snnyjSHvybQ36uzWbRG0UNPn6yqLqvg3ImA5IzCSA2/LsF3DnaPKdfGmpnqBAXLO5gsXCiPhZOUGEQDD7hBMrrJOAGvE8QwbFBtBJlfSsYVYLtcDjIJbz/+wYpVbspJ9ijbU/YCDr9RsH+Kr9p0VkXuMPDd5q21W9eM4KEQ09Y8XxwWLqyV9UtOJsFv/qswfdN06lrE/JOxQZYLAKPA3LazrhCZj+0elddHko4FTw2xoqUpmwkpMMz/OryQFu9ZYiwUEE/acJnUQ95RRliH/WxqXvFH19LXKZllHc5k47BDr7cOIJo4qke8QkfLQcLXpPO6Hz4THh8w+G4M2DCCmc9OqEglcBzNq3xsIt32dKU0GnPiH3QGHfQmxQWlIbENY22rO2Z/kihmdWkU/hh07BvyquYMa3srLGwy/CrpmwWObgTmAN0NCsaDj96zNfaa5NUT9OyVRCXdfDpOqlefzFuY80AQfJOvuEPm6CPcMt/D5oPihK8NZfyIWNwLgvRiEVMQWB5wpWvggkoQNUWcgWo9pLriCezKucYOHLhSI5PROETjUEj0a5RoTAaEsXkLxryXg5W8ZgteGuGAxYQzuo36rP471H+czIS7wVVAOssWOoGEjLljXZNp7OgLb7KOyDwXtSYP1rgMyjp8ZHxFzcv2LQordoPyD7QyTkAp9RRNq/5iD0dSOWnKN26FGB5Q1YBW/6gse9wUOxpDLPtAxe6hxOWQZQixUEM5WLF/CnELkHigi8tdDviCkFXfS8g+K33VbVO9P7JSe+/gvEvNqeSO/R0L1AGl5vF4aGEuxWxaOtcgLMZrZQQE2ZZOlm33OtbFJveHzZhhRjNu9QUfrIhqTTxbl/CT2RhhXuzZGNB6LBn4NdhkPIa+8KPgTO9r9GxgqWVafqKDP1xpA0r/LraZVJm3RLrvuy7yRB0YR2gzpckzqw7keGL07QmK6KUaf4IQDGGPnxWPiqfzfhDvv6lX/kb6Cz5yNulniamvlP2Q9jtOkc3hc4Sm0WvW9hwbzArJGZSO6MqwgF3a6I9kzJKogmRdV4r0HrHf0pOax9vGFkDiQY/Dh8y91KnP6ffRMM/p7RjKXmJg27iV7jRwNGgkDvOkxMpy5q2YBr37u/Vd/vcBdVKXOcr0Yw7/P77UTeLrm9+vHvrrR9pDmevtxcJvlF/pE8qv9Y3Fq5vrnbvvffe7v3337d/bm/ZE0a/fKEPfl588dXXr/n63oMu5oM+eoPjWLT8Sx+/+ec/PvMgz1dU9XE//flZNUYT3wsZwMDPJhFfcIwNo6329KT28C/L2RoyXROa6zxK4s8FJx914Kg6tNBUTm0xcQIYaeVBwRcDnemOaQY7hbRtAcsKsu7u9CRWx5skN0WMy5BYS6oOs4ZnPc23P3QKmbpmXDf5kK8o8ilcOkNsHKUviCWA32/oenyPG0ZbdeTS7TZ40aQFO4vON05uyxnu4wveiGWXN00xaZWo8FX4z3+6gFhkAHEwREBEOUQdNVfggoXMutJNNUUThW6qnar4TdYQ1gtQ6aAbFcQeA3CnB/dUnV7onqj2R9k1WCM1nSVrgLIQrgUrALB0oAfZXHDSd9k8AgNvVnLqsOowrGSE9qMznLYjiI0nqgw7ogYgwkZ7TKINj3x3f6d39xl417TYt5G29S3tMI2cs6Bt4gY8/VCTdo1j9pd8dqVx9qr7b2UP9ENWw0X/bgAVS3ZBn9wwmlDym93BGxq5UcANRX66cBxtYjJf0B49DRSH78warSvbGjGL67ZVfVKMa1bqnEtejn30XY999F1N/iQuK7HkRAAvJl0IqjVJU7QVD8Uq0mnJuu8ULzSzHCKoxx32O8Uem55wQFk16bGxoDYsAKFXyu2RYUTxZV5VeLoNow5jWaeyjYucBWf4Lv5si31X8pxHxRI4WZKkUS78oK+CyXxaPGEU0zFF0G5jgpoFO2MfT3oqWb3RJbHyoqicuGbBmHl4dPi1qLrfZrlkilcKQx1XiZLOHuvwn+be/IJ6zbvGmyFiMTpXyUNrlUNWGJTlBQ7amtMpn0p5cbJ9XO9IF3oFjZ8c6Q91F2ghouywxdOsskE8ZhvMk74RS2KHNwWjw0uKSPp4RTniL/znvkzfhQ6Jwpe3m8Sj4lBxhJHtEoT97j8b+FOgkslYSuz5ZuMRcUQCYOzdStadSPtRRKdoB7wIh8CMP/sDfv0TsTeLikHGPS/owRcNwlTmw5Pxp+3YImynoXcbHfamTU/RrkWwt/DYd2bdVzIrxFyXPlS6rVhAg4/8Ap4EVeTO6qR+H08X6f88IQ6JppS8EXu557A/U88JiWINTaXCucROaJXI0ZdHBdSCkUrRR7nXgBz0huet/rzhHPuKonKollICIs0Kfp4vsFe/ur7Z8b2aV68evGmMDSOU+IbI0AgskS9fvty988474nnluKcDXTC2qV9efP7lVx6n/XYvd+9olJi4G3rQAoEqm0VMY9i78GZRF0FwbxiBwZIrDRVHio4KZ7iMHIOAONfJiyBFiTeICvxrfY31RkctOi1PeA8yMKncdSDzbFoQLyrHbGHqMbwg0r3f3+5uNfG/ScJPlZ5SVXSbufxQg0ItIr1ZtP9u/GUj4/FvCiD4Ly74rDg+x485iW0q+L6ApT3kEYB7vfbM5P/DpFiSEEblfy+sBYjN9qXjjxsodA6IdMmdIv6qvmxXhn42qSQft9AYsQbFMd1C6jHad+lu93vf3OnSF3wdsShn2+lLIyqCYMG/oXeKScsdf/KFEN1/bHiu9Xo7CycmfgjorRF78AKDC8jz0sI2sbj+BPOaB02w3GnQxX+2GWClE/K25MDyJHwlr+iJO7c9A9B9l/HUk32Mfdca1H3zR/EXdsJN342xEglvkrxolyiP4WXQOUEarDoZN1r28h8+7PFeTQ1anQXofKUixj61ozMXcuSTc8gDV0pcxhf2iPwTT5vwFzcqrjRvXOmrbswdCxb7T8y1WSw1nUjo6CFWwimSaIocwCy3XhQX1vQTvzSbNyuIPe60k1aqF5DqHV2Wmdan4UtJOxY4jDUq8Rl6lsRNANflL/dd+Y8bju67ElgR4LHPdYlsRo3i0J0+GfUwOGIvbjDzair147RiMsGEcYeduWMumo4lbDsBOrWEpwveNMbCKKApw+ZMXQnNLOB1iZ1zEg/9k80hc8f11bXnDvpy3awIfPRd03ORNnWVbvJWHtcXcEXF0rpZ6z6tcuVsGO+8dgn9kytKpbPDV7ASNew7Q9tRVdYAEL6jhTGW4R98Z/8p9lj71YYxxj6a3dotG1ZWlfSzOabb/NWYdopp6Mg2Ywt9904L96006IXsZWhThPN+Obsc8xRhQ6xlITz8Ef5jTK2xj3njSuuWuFkReEThTz9dFK//FupK6KratC+Lpms2PpcPKQdtFJk7eDOviRgKhqwtpJwW+EE1+KpQFNSPqSSUjWL2fceg6Cq+iL059sWDKkuhb+e/0lNrmaqP/Mjusghr4GJDBhFjT0/H1h5jL3yjm31HvBJdPJXb2s62KrOOiOPixZXWtYzRmjf1NxmxSdGRtk37iCV+uygX+OlkaFA/1f7h4rMvvwRuJnI2jN485qVFfKARDplyOzP0BGwab+J2Ci5L0EmyktSBj/FM+prI6y47v6fEWA8kPBHTv5jY4vLFBWgK/p9FtZtJi93+d07hRrOd9tbzpJbvoCbwOfAXiyZ8x8BLHY/VoioGmtgw5iV9nrLvkUpvFXnS4mbED5UcrzqNgSMXkTVw4D8PvLmflmvtLtPDnPVz9m9ODBn6vvZZ7jIEiiSCUS5Y5of72HDzetZIZ+gHjQroZcyiP3vsSqR12ahOfa6sqJIzONw3dfuKMgslFuz471KTlMJPsRcHvuNww0417pzKhtv0bcOfK97dPir+NjaMZ5ieba7a9xxa3DD8Jwfx1N1jnRyG7270Sgi+8357w3/P0bHVHG7u1Rshzza0CeJaMmltvV0RNuW5B1fjZ6PIP3ab+GA7hQxwLpmQKItkTsHsP4H4TS9Bxp8qqbGPGGQRRby5a4vZ8YeIElR5iJ3n04YN1iEmaU+JmkKjxM31vT4qd9DGJzpgU4aNJmuwtYBFvSvf5llDqx59MfpuPWnvY9/llXzXxj7Uuu8qp63n2rvAlUL4haj4OytAtKfSI2Of4o+3Kyo1FWnYAlJkMkBrDB/wsnFcWDrpXNqS0VYxcobHPvqu4s9PKNRhfaNb/ZcntdNhqWc4dKXqqCeU7sy/62A32tXbR/lid7e/06ZH65aOWpsz6mUHgF4eBBsF0Vn2Br3tElKoEX8a91jXEXt80MPrFvnPBMQfsji6OMvfUP0cUJfzHPpOo4EkNoyn3ywbru98Wa7LaPPLjo22FGpDhEAxpsXYx1Oj2HxcKra4wY3/XuimRdwRFHntTRDKXKycp4xly7aOE1DZet62E3wJZr3yreZd3pB6TrKu9I9a3Vh6uYEHbYONIsar37Nh9KupQghE30W2xz7dZPS6RTfL/BQNEiY8KOjvrusUAU5B6YQthRmORj87KunHhkU6LaOT3fOEUf5b3ix7Hm8EhH6gqB+k+G/QVl90gNBG7Mt8tA/ZebgddEj5ShvG/wHmK/eTXPNjtwAAAABJRU5ErkJggg==;" vertex="1" parent="1">
                    <mxGeometry x="380.64" y="420" width="784.72" height="83" as="geometry"/>
                </mxCell>
                <mxCell id="66" value="Idealist" style="text;html=1;strokeColor=none;fillColor=none;align=center;verticalAlign=middle;whiteSpace=wrap;rounded=0;fontSize=37;fontColor=#000000;" vertex="1" parent="1">
                    <mxGeometry x="248" y="444.5" width="60" height="30" as="geometry"/>
                </mxCell>
                <mxCell id="67" value="realist" style="text;html=1;strokeColor=none;fillColor=none;align=center;verticalAlign=middle;whiteSpace=wrap;rounded=0;fontSize=37;fontColor=#000000;" vertex="1" parent="1">
                    <mxGeometry x="1227" y="442" width="60" height="30" as="geometry"/>
                </mxCell>
                <mxCell id="81" value="For Idealist&lt;br style=&quot;font-size: 30px;&quot;&gt;- if they have money (burn cash for 2 years)&lt;br&gt;- nudge them to be realistic with a functional product&lt;br&gt;- otherwise let them dream" style="text;html=1;strokeColor=none;fillColor=none;align=left;verticalAlign=middle;whiteSpace=wrap;rounded=0;fontSize=30;fontColor=#000000;" vertex="1" parent="1">
                    <mxGeometry x="100" y="520" width="700" height="180" as="geometry"/>
                </mxCell>
                <mxCell id="83" value="For realist&lt;br style=&quot;font-size: 30px;&quot;&gt;- convince them to try AI&lt;br&gt;- introduct the benefits of AI" style="text;html=1;strokeColor=none;fillColor=none;align=left;verticalAlign=middle;whiteSpace=wrap;rounded=0;fontSize=30;fontColor=#000000;" vertex="1" parent="1">
                    <mxGeometry x="1050" y="510" width="400" height="180" as="geometry"/>
                </mxCell>
            </root>
        </mxGraphModel>
    </diagram>
</mxfile>